{
.appVersion = "1352";
DisplayStrings = (
"/Aogonek/Eogonek/Iogonek Ò/Oogonek/Uogonek/Ograve.ss01/aogonek/eogonek/iogonek ò/oogonek/uogonek",
"/Ge-cy/Gje-cy ð"
);
classes = (
{
automatic = 1;

glyphs = (
{
glyphname = .notdef;
lastChange = "2022-01-21 18:55:04 +0000";
layers = (
{
background = {
paths = (
{
closed = 1;
nodes = (
"479 0 LINE",
"488 8 LINE",
"488 621 LINE",
"479 630 LINE",
"58 630 LINE",
"50 620 LINE",
"50 9 LINE",
"58 0 LINE"
);
},
{
closed = 1;
nodes = (
"154 150 LINE",
"244 316 LINE",
"154 479 LINE",
"173 514 LINE",
"263 350 LINE",
"354 514 LINE",
"373 479 LINE",
"283 314 LINE",
"373 150 LINE",
"354 116 LINE",
"263 279 LINE",
"173 116 LINE"
);
},
{
closed = 1;
nodes = (
"67 613 LINE",
"471 613 LINE",
"471 16 LINE",
"67 16 LINE"
);
},
{
closed = 1;
nodes = (
"437 49 LINE",
"437 577 LINE",
"102 577 LINE",
"102 49 LINE"
);
}
);
};
layerId = "6544E2DB-1912-401E-9B5B-A29F161A5995";
paths = (
{
closed = 1;
nodes = (
"479 0 LINE",
"488 8 LINE",
"488 621 LINE",
"479 630 LINE",
"58 630 LINE",
"50 620 LINE",
"50 9 LINE",
"58 0 LINE"
);
},
{
closed = 1;
nodes = (
"154 150 LINE",
"244 316 LINE",
"154 479 LINE",
"173 514 LINE",
"263 350 LINE",
"354 514 LINE",
"373 479 LINE",
"283 314 LINE",
"373 150 LINE",
"354 116 LINE",
"263 279 LINE",
"173 116 LINE"
);
},
{
closed = 1;
nodes = (
"67 613 LINE",
"471 613 LINE",
"471 16 LINE",
"67 16 LINE"
);
},
{
closed = 1;
nodes = (
"437 49 LINE",
"437 577 LINE",
"102 577 LINE",
"102 49 LINE"
);
}
);
userData = {
assembly = "SVTCA[0]	/* SetFreedomAndProjectionVectorToAxis */\012PUSHW[ ]	/* 1 value pushed */\0122 \012MDAP[1]	/* MoveDirectAbsPt */\012PUSHW[ ]	/* 1 value pushed */\0120 \012RCVT[ ]	/* ReadCVT */\012IF[ ]	/* If */\012PUSHW[ ]	/* 1 value pushed */\0126 \012MDAP[1]	/* MoveDirectAbsPt */\012ELSE[ ]	/* Else */\012PUSHW[ ]	/* 2 values pushed */\0126 7 \012MIAP[0]	/* MoveIndirectAbsPt */\012EIF[ ]	/* EndIf */\012PUSHW[ ]	/* 3 values pushed */\01216 6 2 \012SRP1[ ]	/* SetRefPoint1 */\012SRP2[ ]	/* SetRefPoint2 */\012IP[ ]	/* InterpolatePts */\012PUSHW[ ]	/* 3 values pushed */\01217 6 2 \012SRP1[ ]	/* SetRefPoint1 */\012SRP2[ ]	/* SetRefPoint2 */\012IP[ ]	/* InterpolatePts */\012PUSHW[ ]	/* 3 values pushed */\01218 6 2 \012SRP1[ ]	/* SetRefPoint1 */\012SRP2[ ]	/* SetRefPoint2 */\012IP[ ]	/* InterpolatePts */\012PUSHW[ ]	/* 3 values pushed */\01222 6 2 \012SRP1[ ]	/* SetRefPoint1 */\012SRP2[ ]	/* SetRefPoint2 */\012IP[ ]	/* InterpolatePts */\012PUSHW[ ]	/* 3 values pushed */\01223 6 2 \012SRP1[ ]	/* SetRefPoint1 */\012SRP2[ ]	/* SetRefPoint2 */\012IP[ ]	/* InterpolatePts */\012PUSHW[ ]	/* 3 values pushed */\01224 6 2 \012SRP1[ ]	/* SetRefPoint1 */\012SRP2[ ]	/* SetRefPoint2 */\012IP[ ]	/* InterpolatePts */\012IUP[0]	/* InterpolateUntPts */\012IUP[1]	/* InterpolateUntPts */";
};
width = 538;
}
);
note = .notdef;
},
{
glyphname = A;
lastChange = "2022-02-25 00:39:36 +0000";
layers = (
{
anchors = (
{
name = bottom;
position = "{166, 0}";
},
{
name = ogonek;
position = "{361, 0}";
},
{
name = top;
position = "{250, 591}";
}
);
background = {
anchors = (
{
name = bottom;
position = "{166, 0}";
},
{
name = ogonek;
position = "{361, 0}";
},
{
name = top;
position = "{250, 591}";
}
);
paths = (
{
closed = 1;
nodes = (
"376 0 LINE",
"379 591 LINE",
"129 591 LINE",
"-36 0 LINE"
);
},
{
closed = 1;
nodes = (
"199 184 LINE",
"203 233 LINE",
"203 237 OFFCURVE",
"205 271 OFFCURVE",
"207 291 CURVE",
"185 184 LINE"
);
},
{
closed = 1;
nodes = (
"141 573 LINE",
"361 573 LINE",
"358 18 LINE",
"184 18 LINE",
"187 96 LINE",
"172 96 LINE",
"155 18 LINE",
"-14 18 LINE"
);
},
{
closed = 1;
nodes = (
"148 27 LINE",
"164 105 LINE",
"196 105 LINE",
"192 27 LINE",
"348 27 LINE",
"352 564 LINE",
"147 564 LINE",
"-3 27 LINE"
);
},
{
closed = 1;
nodes = (
"230 450 LINE",
"206 175 LINE",
"175 175 LINE"
);
}
);
};
layerId = "6544E2DB-1912-401E-9B5B-A29F161A5995";
paths = (
{
closed = 1;
nodes = (
"376 0 LINE",
"379 591 LINE",
"129 591 LINE",
"-36 0 LINE"
);
},
{
closed = 1;
nodes = (
"199 184 LINE",
"203 233 LINE",
"203 237 OFFCURVE",
"205 271 OFFCURVE",
"207 291 CURVE",
"185 184 LINE"
);
},
{
closed = 1;
nodes = (
"141 573 LINE",
"361 573 LINE",
"358 18 LINE",
"184 18 LINE",
"187 96 LINE",
"172 96 LINE",
"155 18 LINE",
"-14 18 LINE"
);
},
{
closed = 1;
nodes = (
"148 27 LINE",
"164 105 LINE",
"196 105 LINE",
"192 27 LINE",
"348 27 LINE",
"352 564 LINE",
"147 564 LINE",
"-3 27 LINE"
);
},
{
closed = 1;
nodes = (
"230 450 LINE",
"206 175 LINE",
"175 175 LINE"
);
}
);
userData = {
assembly = "SVTCA[0]	/* SetFreedomAndProjectionVectorToAxis */\012PUSHW[ ]	/* 4 values pushed */\0129 4 2 4 \012CALL[ ]	/* CallFunction */\012PUSHW[ ]	/* 1 value pushed */\0129 \012SRP0[ ]	/* SetRefPoint0 */\012PUSHW[ ]	/* 2 values pushed */\0123 2 \012MIRP[10100]	/* MoveIndirectRelPt */\012PUSHW[ ]	/* 1 value pushed */\0122 \012SRP0[ ]	/* SetRefPoint0 */\012PUSHW[ ]	/* 1 value pushed */\0125 \012MDRP[10000]	/* MoveDirectRelPt */\012IUP[0]	/* InterpolateUntPts */\012IUP[1]	/* InterpolateUntPts */";
};
width = 415;
}
);
leftKerningGroup = A;
note = A;
rightKerningGroup = A;
unicode = 0041;
},
{
color = 3;
glyphname = Aogonek;
lastChange = "2022-02-25 01:07:07 +0000";
layers = (
{
background = {
anchors = (
{
name = bottom;
position = "{158, 0}";
},
{
name = ogonek;
position = "{336, 0}";
},
{
name = top;
position = "{241, 591}";
}
);
components = (
{
name = A;
transform = "{1, 0, 0, 1, -7, 0}";
},
{
name = ogonekcomb;
transform = "{1, 0, 0, 1, 240, -1}";
}
);
guideLines = (
{
angle = 82;
position = "{144, 445}";
}
);
};
layerId = "6544E2DB-1912-401E-9B5B-A29F161A5995";
paths = (
{
closed = 1;
nodes = (
"236 1 LINE",
"240 9 LINE",
"196 -19 OFFCURVE",
"182 -43 OFFCURVE",
"178 -75 CURVE SMOOTH",
"171 -124 OFFCURVE",
"203 -155 OFFCURVE",
"258 -155 CURVE SMOOTH",
"294 -155 OFFCURVE",
"332 -142 OFFCURVE",
"349 -124 CURVE",
"338 -51 LINE",
"321 -60 OFFCURVE",
"311 -65 OFFCURVE",
"304 -65 CURVE SMOOTH",
"299 -65 OFFCURVE",
"296 -63 OFFCURVE",
"297 -55 CURVE SMOOTH",
"300 -34 OFFCURVE",
"331 -5 OFFCURVE",
"374 13 CURVE",
"378 590 LINE",
"127 590 LINE",
"-36 1 LINE"
);
},
{
closed = 1;
nodes = (
"215 -137 OFFCURVE",
"190 -114 OFFCURVE",
"196 -75 CURVE SMOOTH",
"203 -27 OFFCURVE",
"267 19 OFFCURVE",
"297 34 CURVE",
"299 19 LINE",
"184 19 LINE",
"188 97 LINE",
"171 97 LINE",
"155 19 LINE",
"-13 19 LINE",
"141 572 LINE",
"360 572 LINE",
"356 22 LINE",
"313 1 OFFCURVE",
"282 -29 OFFCURVE",
"278 -59 CURVE SMOOTH",
"276 -72 OFFCURVE",
"283 -80 OFFCURVE",
"296 -80 CURVE SMOOTH",
"305 -80 OFFCURVE",
"314 -77 OFFCURVE",
"323 -72 CURVE",
"329 -119 LINE",
"316 -130 OFFCURVE",
"285 -137 OFFCURVE",
"260 -137 CURVE SMOOTH"
);
},
{
closed = 1;
nodes = (
"289 -129 OFFCURVE",
"312 -121 OFFCURVE",
"320 -116 CURVE",
"317 -84 LINE",
"312 -85 OFFCURVE",
"306 -88 OFFCURVE",
"295 -88 CURVE SMOOTH",
"280 -88 OFFCURVE",
"267 -79 OFFCURVE",
"270 -59 CURVE SMOOTH",
"275 -26 OFFCURVE",
"306 5 OFFCURVE",
"348 27 CURVE",
"352 564 LINE",
"147 564 LINE",
"-3 27 LINE",
"148 27 LINE",
"164 105 LINE",
"196 105 LINE",
"192 27 LINE",
"300 27 LINE",
"270 12 OFFCURVE",
"210 -31 OFFCURVE",
"204 -75 CURVE SMOOTH",
"199 -110 OFFCURVE",
"221 -129 OFFCURVE",
"261 -129 CURVE SMOOTH"
);
},
{
closed = 1;
nodes = (
"230 450 LINE",
"206 175 LINE",
"175 175 LINE"
);
},
{
closed = 1;
nodes = (
"199 183 LINE",
"210 312 LINE",
"185 183 LINE"
);
}
);
width = 411;
}
);
leftKerningGroup = A;
leftMetricsKey = A;
rightKerningGroup = A;
rightMetricsKey = A;
unicode = 0104;
},
{
glyphname = AE;
lastChange = "2021-12-07 23:32:14 +0000";
layers = (
{
anchors = (
{
name = bottom;
position = "{233, 0}";
},
{
name = top;
position = "{347, 591}";
}
);
background = {
anchors = (
{
name = bottom;
position = "{233, 0}";
},
{
name = top;
position = "{347, 591}";
}
);
paths = (
{
closed = 1;
nodes = (
"480 0 LINE",
"501 153 LINE",
"386 153 LINE",
"387 218 LINE",
"501 218 LINE",
"525 386 LINE",
"388 386 LINE",
"388 397 OFFCURVE",
"388 406 OFFCURVE",
"388 413 CURVE SMOOTH",
"387 436 LINE",
"541 436 LINE",
"563 591 LINE",
"132 591 LINE",
"-36 0 LINE"
);
},
{
closed = 1;
nodes = (
"205 184 LINE",
"215 302 LINE",
"191 184 LINE"
);
},
{
closed = 1;
nodes = (
"231 428 LINE",
"236 450 LINE",
"234 428 LINE",
"213 175 LINE",
"181 175 LINE"
);
},
{
closed = 1;
nodes = (
"144 573 LINE",
"542 573 LINE",
"525 454 LINE",
"368 454 LINE",
"368 439 OFFCURVE",
"368 424 OFFCURVE",
"369 411 CURVE SMOOTH",
"370 398 OFFCURVE",
"370 383 OFFCURVE",
"369 368 CURVE",
"504 368 LINE",
"486 236 LINE",
"369 236 LINE",
"368 219 OFFCURVE",
"368 202 OFFCURVE",
"369 186 CURVE SMOOTH",
"370 170 OFFCURVE",
"369 153 OFFCURVE",
"368 134 CURVE",
"480 134 LINE",
"464 18 LINE",
"190 18 LINE",
"193 96 LINE",
"178 96 LINE",
"161 18 LINE",
"-13 18 LINE"
);
},
{
closed = 1;
nodes = (
"154 27 LINE",
"170 105 LINE",
"203 105 LINE",
"199 27 LINE",
"456 27 LINE",
"470 125 LINE",
"359 125 LINE",
"360 245 LINE",
"478 245 LINE",
"494 359 LINE",
"360 359 LINE",
"361 463 LINE",
"518 463 LINE",
"532 564 LINE",
"151 564 LINE",
"-1 27 LINE"
);
}
);
};
layerId = "6544E2DB-1912-401E-9B5B-A29F161A5995";
paths = (
{
closed = 1;
nodes = (
"480 0 LINE",
"501 153 LINE",
"386 153 LINE",
"387 218 LINE",
"501 218 LINE",
"525 386 LINE",
"388 386 LINE",
"388 397 OFFCURVE",
"388 406 OFFCURVE",
"388 413 CURVE SMOOTH",
"387 436 LINE",
"541 436 LINE",
"563 591 LINE",
"132 591 LINE",
"-36 0 LINE"
);
},
{
closed = 1;
nodes = (
"205 184 LINE",
"215 302 LINE",
"191 184 LINE"
);
},
{
closed = 1;
nodes = (
"231 428 LINE",
"236 450 LINE",
"234 428 LINE",
"213 175 LINE",
"181 175 LINE"
);
},
{
closed = 1;
nodes = (
"144 573 LINE",
"542 573 LINE",
"525 454 LINE",
"368 454 LINE",
"368 439 OFFCURVE",
"368 424 OFFCURVE",
"369 411 CURVE SMOOTH",
"370 398 OFFCURVE",
"370 383 OFFCURVE",
"369 368 CURVE",
"504 368 LINE",
"486 236 LINE",
"369 236 LINE",
"368 219 OFFCURVE",
"368 202 OFFCURVE",
"369 186 CURVE SMOOTH",
"370 170 OFFCURVE",
"369 153 OFFCURVE",
"368 134 CURVE",
"480 134 LINE",
"464 18 LINE",
"190 18 LINE",
"193 96 LINE",
"178 96 LINE",
"161 18 LINE",
"-13 18 LINE"
);
},
{
closed = 1;
nodes = (
"154 27 LINE",
"170 105 LINE",
"203 105 LINE",
"199 27 LINE",
"456 27 LINE",
"470 125 LINE",
"359 125 LINE",
"360 245 LINE",
"478 245 LINE",
"494 359 LINE",
"360 359 LINE",
"361 463 LINE",
"518 463 LINE",
"532 564 LINE",
"151 564 LINE",
"-1 27 LINE"
);
}
);
userData = {
assembly = "SVTCA[0]	/* SetFreedomAndProjectionVectorToAxis */\012PUSHW[ ]	/* 4 values pushed */\01227 3 14 4 \012CALL[ ]	/* CallFunction */\012PUSHW[ ]	/* 1 value pushed */\01214 \012SRP0[ ]	/* SetRefPoint0 */\012PUSHW[ ]	/* 1 value pushed */\0122 \012MDRP[10000]	/* MoveDirectRelPt */\012IUP[0]	/* InterpolateUntPts */\012IUP[1]	/* InterpolateUntPts */";
};
width = 524;
}
);
leftKerningGroup = AE;
note = AE;
rightKerningGroup = E;
unicode = 00C6;
},
{
glyphname = B;
lastChange = "2022-02-25 00:39:36 +0000";
layers = (
{
background = {
paths = (
{
closed = 1;
nodes = (
"192 0 LINE SMOOTH",
"289 0 OFFCURVE",
"351 34 OFFCURVE",
"366 141 CURVE SMOOTH",
"376 211 LINE SMOOTH",
"384 263 OFFCURVE",
"374 299 OFFCURVE",
"347 320 CURVE",
"371 343 OFFCURVE",
"385 377 OFFCURVE",
"392 414 CURVE SMOOTH",
"400 472 LINE SMOOTH",
"411 545 OFFCURVE",
"373 591 OFFCURVE",
"283 591 CURVE SMOOTH",
"58 591 LINE",
"-26 0 LINE"
);
},
{
closed = 1;
nodes = (
"178 253 LINE",
"191 253 LINE SMOOTH",
"199 253 OFFCURVE",
"203 246 OFFCURVE",
"202 231 CURVE SMOOTH",
"201 216 OFFCURVE",
"199 198 OFFCURVE",
"196 177 CURVE SMOOTH",
"193 156 OFFCURVE",
"189 138 OFFCURVE",
"185 123 CURVE SMOOTH",
"181 108 OFFCURVE",
"176 101 OFFCURVE",
"170 101 CURVE SMOOTH",
"157 101 LINE"
);
},
{
closed = 1;
nodes = (
"171 110 LINE SMOOTH",
"174 110 OFFCURVE",
"176 117 OFFCURVE",
"179 130 CURVE SMOOTH",
"182 143 OFFCURVE",
"184 158 OFFCURVE",
"187 177 CURVE SMOOTH",
"190 196 OFFCURVE",
"193 212 OFFCURVE",
"194 225 CURVE SMOOTH",
"195 238 OFFCURVE",
"193 244 OFFCURVE",
"190 244 CURVE SMOOTH",
"186 244 LINE",
"167 110 LINE"
);
},
{
closed = 1;
nodes = (
"72 573 LINE",
"280 573 LINE SMOOTH",
"363 573 OFFCURVE",
"390 532 OFFCURVE",
"382 472 CURVE SMOOTH",
"374 414 LINE SMOOTH",
"367 371 OFFCURVE",
"349 336 OFFCURVE",
"313 317 CURVE",
"349 305 OFFCURVE",
"367 271 OFFCURVE",
"358 211 CURVE SMOOTH",
"348 141 LINE SMOOTH",
"335 49 OFFCURVE",
"283 18 OFFCURVE",
"194 18 CURVE SMOOTH",
"-7 18 LINE"
);
},
{
closed = 1;
nodes = (
"195 27 LINE SMOOTH",
"275 27 OFFCURVE",
"328 54 OFFCURVE",
"340 141 CURVE SMOOTH",
"350 211 LINE SMOOTH",
"359 280 OFFCURVE",
"325 314 OFFCURVE",
"276 314 CURVE",
"276 316 LINE",
"332 323 OFFCURVE",
"359 363 OFFCURVE",
"366 414 CURVE SMOOTH",
"374 472 LINE SMOOTH",
"381 527 OFFCURVE",
"355 564 OFFCURVE",
"279 564 CURVE SMOOTH",
"79 564 LINE",
"3 27 LINE"
);
},
{
closed = 1;
nodes = (
"211 488 LINE",
"224 488 LINE SMOOTH",
"232 488 OFFCURVE",
"236 481 OFFCURVE",
"236 467 CURVE SMOOTH",
"235 453 OFFCURVE",
"233 436 OFFCURVE",
"230 415 CURVE SMOOTH",
"227 395 OFFCURVE",
"223 378 OFFCURVE",
"218 364 CURVE SMOOTH",
"213 350 OFFCURVE",
"208 343 OFFCURVE",
"202 343 CURVE SMOOTH",
"191 343 LINE"
);
},
{
closed = 1;
nodes = (
"203 352 LINE SMOOTH",
"206 352 OFFCURVE",
"210 358 OFFCURVE",
"213 371 CURVE SMOOTH",
"216 383 OFFCURVE",
"218 398 OFFCURVE",
"221 415 CURVE SMOOTH",
"224 432 OFFCURVE",
"226 447 OFFCURVE",
"227 460 CURVE SMOOTH",
"228 472 OFFCURVE",
"226 478 OFFCURVE",
"223 478 CURVE SMOOTH",
"219 478 LINE",
"201 352 LINE"
);
}
);
};
layerId = "6544E2DB-1912-401E-9B5B-A29F161A5995";
paths = (
{
closed = 1;
nodes = (
"192 0 LINE SMOOTH",
"289 0 OFFCURVE",
"351 34 OFFCURVE",
"366 141 CURVE SMOOTH",
"376 211 LINE SMOOTH",
"384 263 OFFCURVE",
"374 299 OFFCURVE",
"347 320 CURVE",
"371 343 OFFCURVE",
"385 377 OFFCURVE",
"392 414 CURVE SMOOTH",
"400 472 LINE SMOOTH",
"411 545 OFFCURVE",
"373 591 OFFCURVE",
"283 591 CURVE SMOOTH",
"58 591 LINE",
"-26 0 LINE"
);
},
{
closed = 1;
nodes = (
"178 253 LINE",
"191 253 LINE SMOOTH",
"199 253 OFFCURVE",
"203 246 OFFCURVE",
"202 231 CURVE SMOOTH",
"201 216 OFFCURVE",
"199 198 OFFCURVE",
"196 177 CURVE SMOOTH",
"193 156 OFFCURVE",
"189 138 OFFCURVE",
"185 123 CURVE SMOOTH",
"181 108 OFFCURVE",
"176 101 OFFCURVE",
"170 101 CURVE SMOOTH",
"157 101 LINE"
);
},
{
closed = 1;
nodes = (
"171 110 LINE SMOOTH",
"174 110 OFFCURVE",
"176 117 OFFCURVE",
"179 130 CURVE SMOOTH",
"182 143 OFFCURVE",
"184 158 OFFCURVE",
"187 177 CURVE SMOOTH",
"190 196 OFFCURVE",
"193 212 OFFCURVE",
"194 225 CURVE SMOOTH",
"195 238 OFFCURVE",
"193 244 OFFCURVE",
"190 244 CURVE SMOOTH",
"186 244 LINE",
"167 110 LINE"
);
},
{
closed = 1;
nodes = (
"72 573 LINE",
"280 573 LINE SMOOTH",
"363 573 OFFCURVE",
"390 532 OFFCURVE",
"382 472 CURVE SMOOTH",
"374 414 LINE SMOOTH",
"367 371 OFFCURVE",
"349 336 OFFCURVE",
"313 317 CURVE",
"349 305 OFFCURVE",
"367 271 OFFCURVE",
"358 211 CURVE SMOOTH",
"348 141 LINE SMOOTH",
"335 49 OFFCURVE",
"283 18 OFFCURVE",
"194 18 CURVE SMOOTH",
"-7 18 LINE"
);
},
{
closed = 1;
nodes = (
"195 27 LINE SMOOTH",
"275 27 OFFCURVE",
"328 54 OFFCURVE",
"340 141 CURVE SMOOTH",
"350 211 LINE SMOOTH",
"359 280 OFFCURVE",
"325 314 OFFCURVE",
"276 314 CURVE",
"276 316 LINE",
"332 323 OFFCURVE",
"359 363 OFFCURVE",
"366 414 CURVE SMOOTH",
"374 472 LINE SMOOTH",
"381 527 OFFCURVE",
"355 564 OFFCURVE",
"279 564 CURVE SMOOTH",
"79 564 LINE",
"3 27 LINE"
);
},
{
closed = 1;
nodes = (
"211 488 LINE",
"224 488 LINE SMOOTH",
"232 488 OFFCURVE",
"236 481 OFFCURVE",
"236 467 CURVE SMOOTH",
"235 453 OFFCURVE",
"233 436 OFFCURVE",
"230 415 CURVE SMOOTH",
"227 395 OFFCURVE",
"223 378 OFFCURVE",
"218 364 CURVE SMOOTH",
"213 350 OFFCURVE",
"208 343 OFFCURVE",
"202 343 CURVE SMOOTH",
"191 343 LINE"
);
},
{
closed = 1;
nodes = (
"203 352 LINE SMOOTH",
"206 352 OFFCURVE",
"210 358 OFFCURVE",
"213 371 CURVE SMOOTH",
"216 383 OFFCURVE",
"218 398 OFFCURVE",
"221 415 CURVE SMOOTH",
"224 432 OFFCURVE",
"226 447 OFFCURVE",
"227 460 CURVE SMOOTH",
"228 472 OFFCURVE",
"226 478 OFFCURVE",
"223 478 CURVE SMOOTH",
"219 478 LINE",
"201 352 LINE"
);
}
);
userData = {
assembly = "SVTCA[0]	/* SetFreedomAndProjectionVectorToAxis */\012PUSHW[ ]	/* 4 values pushed */\01219 2 16 4 \012CALL[ ]	/* CallFunction */\012PUSHW[ ]	/* 4 values pushed */\01227 1 25 4 \012CALL[ ]	/* CallFunction */\012PUSHW[ ]	/* 3 values pushed */\0129 25 27 \012SRP1[ ]	/* SetRefPoint1 */\012SRP2[ ]	/* SetRefPoint2 */\012IP[ ]	/* InterpolatePts */\012PUSHW[ ]	/* 3 values pushed */\01264 25 27 \012SRP1[ ]	/* SetRefPoint1 */\012SRP2[ ]	/* SetRefPoint2 */\012IP[ ]	/* InterpolatePts */\012IUP[0]	/* InterpolateUntPts */\012IUP[1]	/* InterpolateUntPts */";
};
width = 382;
}
);
leftKerningGroup = H;
leftMetricsKey = H;
note = B;
rightKerningGroup = B;
rightMetricsKey = "=O-5";
unicode = 0042;
},
{
glyphname = C;
lastChange = "2022-02-25 00:39:36 +0000";
layers = (
{
anchors = (
{
name = bottom;
position = "{162, 0}";
},
{
name = top;
position = "{236, 591}";
}
);
background = {
anchors = (
{
name = bottom;
position = "{162, 0}";
},
{
name = top;
position = "{236, 591}";
}
);
paths = (
{
closed = 1;
nodes = (
"273 -11 OFFCURVE",
"333 29 OFFCURVE",
"355 186 CURVE SMOOTH",
"368 280 LINE",
"205 280 LINE",
"207 298 LINE",
"370 298 LINE",
"392 451 LINE SMOOTH",
"408 560 OFFCURVE",
"347 601 OFFCURVE",
"238 601 CURVE SMOOTH",
"128 601 OFFCURVE",
"50 559 OFFCURVE",
"35 451 CURVE SMOOTH",
"-2 185 LINE SMOOTH",
"-24 29 OFFCURVE",
"30 -11 OFFCURVE",
"152 -11 CURVE SMOOTH"
);
},
{
closed = 1;
nodes = (
"42 7 OFFCURVE",
"-5 44 OFFCURVE",
"15 185 CURVE SMOOTH",
"52 451 LINE SMOOTH",
"65 547 OFFCURVE",
"135 583 OFFCURVE",
"235 583 CURVE SMOOTH",
"334 583 OFFCURVE",
"389 547 OFFCURVE",
"375 451 CURVE SMOOTH",
"356 316 LINE",
"203 316 LINE",
"223 458 LINE SMOOTH",
"224 465 OFFCURVE",
"225 470 OFFCURVE",
"224 473 CURVE SMOOTH",
"223 475 OFFCURVE",
"221 476 OFFCURVE",
"220 476 CURVE SMOOTH",
"218 476 OFFCURVE",
"217 475 OFFCURVE",
"216 473 CURVE SMOOTH",
"215 470 OFFCURVE",
"213 465 OFFCURVE",
"212 458 CURVE SMOOTH",
"165 127 LINE",
"164 115 OFFCURVE",
"166 109 OFFCURVE",
"169 109 CURVE SMOOTH",
"170 109 OFFCURVE",
"172 110 OFFCURVE",
"173 113 CURVE SMOOTH",
"174 116 OFFCURVE",
"175 120 OFFCURVE",
"176 127 CURVE SMOOTH",
"195 262 LINE",
"348 262 LINE",
"338 186 LINE SMOOTH",
"319 44 OFFCURVE",
"263 7 OFFCURVE",
"154 7 CURVE SMOOTH"
);
},
{
closed = 1;
nodes = (
"260 16 OFFCURVE",
"311 50 OFFCURVE",
"329 186 CURVE SMOOTH",
"338 253 LINE",
"202 253 LINE",
"184 127 LINE SMOOTH",
"183 117 OFFCURVE",
"181 110 OFFCURVE",
"178 106 CURVE SMOOTH",
"175 102 OFFCURVE",
"171 100 OFFCURVE",
"168 100 CURVE SMOOTH",
"163 100 OFFCURVE",
"160 102 OFFCURVE",
"158 106 CURVE SMOOTH",
"156 110 OFFCURVE",
"156 117 OFFCURVE",
"157 127 CURVE SMOOTH",
"204 458 LINE SMOOTH",
"206 469 OFFCURVE",
"208 476 OFFCURVE",
"211 480 CURVE SMOOTH",
"214 483 OFFCURVE",
"217 485 OFFCURVE",
"222 485 CURVE SMOOTH",
"225 485 OFFCURVE",
"228 483 OFFCURVE",
"230 480 CURVE SMOOTH",
"232 476 OFFCURVE",
"233 469 OFFCURVE",
"231 458 CURVE SMOOTH",
"212 325 LINE",
"348 325 LINE",
"366 451 LINE SMOOTH",
"379 540 OFFCURVE",
"327 574 OFFCURVE",
"234 574 CURVE SMOOTH",
"139 574 OFFCURVE",
"74 542 OFFCURVE",
"61 451 CURVE SMOOTH",
"24 185 LINE SMOOTH",
"5 51 OFFCURVE",
"51 16 OFFCURVE",
"156 16 CURVE SMOOTH"
);
}
);
};
layerId = "6544E2DB-1912-401E-9B5B-A29F161A5995";
paths = (
{
closed = 1;
nodes = (
"273 -11 OFFCURVE",
"333 29 OFFCURVE",
"355 186 CURVE SMOOTH",
"368 280 LINE",
"205 280 LINE",
"207 298 LINE",
"370 298 LINE",
"392 451 LINE SMOOTH",
"408 560 OFFCURVE",
"347 601 OFFCURVE",
"238 601 CURVE SMOOTH",
"128 601 OFFCURVE",
"50 559 OFFCURVE",
"35 451 CURVE SMOOTH",
"-2 185 LINE SMOOTH",
"-24 29 OFFCURVE",
"30 -11 OFFCURVE",
"152 -11 CURVE SMOOTH"
);
},
{
closed = 1;
nodes = (
"42 7 OFFCURVE",
"-5 44 OFFCURVE",
"15 185 CURVE SMOOTH",
"52 451 LINE SMOOTH",
"65 547 OFFCURVE",
"135 583 OFFCURVE",
"235 583 CURVE SMOOTH",
"334 583 OFFCURVE",
"389 547 OFFCURVE",
"375 451 CURVE SMOOTH",
"356 316 LINE",
"203 316 LINE",
"223 458 LINE SMOOTH",
"224 465 OFFCURVE",
"225 470 OFFCURVE",
"224 473 CURVE SMOOTH",
"223 475 OFFCURVE",
"221 476 OFFCURVE",
"220 476 CURVE SMOOTH",
"218 476 OFFCURVE",
"217 475 OFFCURVE",
"216 473 CURVE SMOOTH",
"215 470 OFFCURVE",
"213 465 OFFCURVE",
"212 458 CURVE SMOOTH",
"165 127 LINE",
"164 115 OFFCURVE",
"166 109 OFFCURVE",
"169 109 CURVE SMOOTH",
"170 109 OFFCURVE",
"172 110 OFFCURVE",
"173 113 CURVE SMOOTH",
"174 116 OFFCURVE",
"175 120 OFFCURVE",
"176 127 CURVE SMOOTH",
"195 262 LINE",
"348 262 LINE",
"338 186 LINE SMOOTH",
"319 44 OFFCURVE",
"263 7 OFFCURVE",
"154 7 CURVE SMOOTH"
);
},
{
closed = 1;
nodes = (
"260 16 OFFCURVE",
"311 50 OFFCURVE",
"329 186 CURVE SMOOTH",
"338 253 LINE",
"202 253 LINE",
"184 127 LINE SMOOTH",
"183 117 OFFCURVE",
"181 110 OFFCURVE",
"178 106 CURVE SMOOTH",
"175 102 OFFCURVE",
"171 100 OFFCURVE",
"168 100 CURVE SMOOTH",
"163 100 OFFCURVE",
"160 102 OFFCURVE",
"158 106 CURVE SMOOTH",
"156 110 OFFCURVE",
"156 117 OFFCURVE",
"157 127 CURVE SMOOTH",
"204 458 LINE SMOOTH",
"206 469 OFFCURVE",
"208 476 OFFCURVE",
"211 480 CURVE SMOOTH",
"214 483 OFFCURVE",
"217 485 OFFCURVE",
"222 485 CURVE SMOOTH",
"225 485 OFFCURVE",
"228 483 OFFCURVE",
"230 480 CURVE SMOOTH",
"232 476 OFFCURVE",
"233 469 OFFCURVE",
"231 458 CURVE SMOOTH",
"212 325 LINE",
"348 325 LINE",
"366 451 LINE SMOOTH",
"379 540 OFFCURVE",
"327 574 OFFCURVE",
"234 574 CURVE SMOOTH",
"139 574 OFFCURVE",
"74 542 OFFCURVE",
"61 451 CURVE SMOOTH",
"24 185 LINE SMOOTH",
"5 51 OFFCURVE",
"51 16 OFFCURVE",
"156 16 CURVE SMOOTH"
);
}
);
width = 370;
}
);
leftKerningGroup = O;
leftMetricsKey = O;
note = C;
rightKerningGroup = C;
unicode = 0043;
},
{
color = 3;
glyphname = Ccedilla;
lastChange = "2022-02-25 00:37:42 +0000";
layers = (
{
background = {
anchors = (
{
name = bottom;
position = "{150, -253}";
},
{
name = top;
position = "{232, 591}";
}
);
paths = (
{
closed = 1;
nodes = (
"273 -11 OFFCURVE",
"333 29 OFFCURVE",
"355 186 CURVE SMOOTH",
"368 280 LINE",
"205 280 LINE",
"207 298 LINE",
"370 298 LINE",
"392 451 LINE SMOOTH",
"408 560 OFFCURVE",
"347 601 OFFCURVE",
"238 601 CURVE SMOOTH",
"128 601 OFFCURVE",
"50 559 OFFCURVE",
"35 451 CURVE SMOOTH",
"-2 185 LINE SMOOTH",
"-24 29 OFFCURVE",
"30 -11 OFFCURVE",
"152 -11 CURVE SMOOTH"
);
},
{
closed = 1;
nodes = (
"42 7 OFFCURVE",
"-5 44 OFFCURVE",
"15 185 CURVE SMOOTH",
"52 451 LINE SMOOTH",
"65 547 OFFCURVE",
"135 583 OFFCURVE",
"235 583 CURVE SMOOTH",
"334 583 OFFCURVE",
"389 547 OFFCURVE",
"375 451 CURVE SMOOTH",
"356 316 LINE",
"203 316 LINE",
"223 458 LINE SMOOTH",
"224 465 OFFCURVE",
"225 470 OFFCURVE",
"224 473 CURVE SMOOTH",
"223 475 OFFCURVE",
"221 476 OFFCURVE",
"220 476 CURVE SMOOTH",
"218 476 OFFCURVE",
"217 475 OFFCURVE",
"216 473 CURVE SMOOTH",
"215 470 OFFCURVE",
"213 465 OFFCURVE",
"212 458 CURVE SMOOTH",
"165 127 LINE",
"164 115 OFFCURVE",
"166 109 OFFCURVE",
"169 109 CURVE SMOOTH",
"170 109 OFFCURVE",
"172 110 OFFCURVE",
"173 113 CURVE SMOOTH",
"174 116 OFFCURVE",
"175 120 OFFCURVE",
"176 127 CURVE SMOOTH",
"195 262 LINE",
"348 262 LINE",
"338 186 LINE SMOOTH",
"319 44 OFFCURVE",
"263 7 OFFCURVE",
"154 7 CURVE SMOOTH"
);
},
{
closed = 1;
nodes = (
"260 16 OFFCURVE",
"311 50 OFFCURVE",
"329 186 CURVE SMOOTH",
"338 253 LINE",
"202 253 LINE",
"184 127 LINE SMOOTH",
"183 117 OFFCURVE",
"181 110 OFFCURVE",
"178 106 CURVE SMOOTH",
"175 102 OFFCURVE",
"171 100 OFFCURVE",
"168 100 CURVE SMOOTH",
"163 100 OFFCURVE",
"160 102 OFFCURVE",
"158 106 CURVE SMOOTH",
"156 110 OFFCURVE",
"156 117 OFFCURVE",
"157 127 CURVE SMOOTH",
"204 458 LINE SMOOTH",
"206 469 OFFCURVE",
"208 476 OFFCURVE",
"211 480 CURVE SMOOTH",
"214 483 OFFCURVE",
"217 485 OFFCURVE",
"222 485 CURVE SMOOTH",
"225 485 OFFCURVE",
"228 483 OFFCURVE",
"230 480 CURVE SMOOTH",
"232 476 OFFCURVE",
"233 469 OFFCURVE",
"231 458 CURVE SMOOTH",
"212 325 LINE",
"348 325 LINE",
"366 451 LINE SMOOTH",
"379 540 OFFCURVE",
"327 574 OFFCURVE",
"234 574 CURVE SMOOTH",
"139 574 OFFCURVE",
"74 542 OFFCURVE",
"61 451 CURVE SMOOTH",
"24 185 LINE SMOOTH",
"5 51 OFFCURVE",
"51 16 OFFCURVE",
"156 16 CURVE SMOOTH"
);
},
{
closed = 1;
nodes = (
"196 -168 OFFCURVE",
"240 -134 OFFCURVE",
"246 -94 CURVE SMOOTH",
"250 -64 OFFCURVE",
"233 -33 OFFCURVE",
"191 -33 CURVE SMOOTH",
"173 -33 OFFCURVE",
"160 -38 OFFCURVE",
"151 -43 CURVE",
"157 -47 LINE",
"190 0 LINE",
"133 0 LINE",
"94 -58 LINE",
"131 -80 LINE",
"134 -78 OFFCURVE",
"139 -74 OFFCURVE",
"147 -74 CURVE SMOOTH",
"157 -74 OFFCURVE",
"164 -79 OFFCURVE",
"162 -91 CURVE SMOOTH",
"160 -106 OFFCURVE",
"149 -115 OFFCURVE",
"132 -115 CURVE SMOOTH",
"116 -115 OFFCURVE",
"100 -107 OFFCURVE",
"93 -100 CURVE",
"67 -147 LINE",
"75 -153 OFFCURVE",
"101 -168 OFFCURVE",
"131 -168 CURVE SMOOTH"
);
}
);
};
components = (
{
name = C;
},
{
name = cedillacomb;
transform = "{1, 0, 0, 1, 122, 0}";
}
);
layerId = "6544E2DB-1912-401E-9B5B-A29F161A5995";
width = 370;
}
);
leftKerningGroup = O;
leftMetricsKey = C;
rightKerningGroup = C;
rightMetricsKey = C;
unicode = 00C7;
},
{
glyphname = D;
lastChange = "2022-02-25 00:39:36 +0000";
layers = (
{
anchors = (
{
name = bottom;
position = "{137, 0}";
},
{
name = center;
position = "{76, 296}";
},
{
name = top;
position = "{239, 591}";
}
);
background = {
anchors = (
{
name = bottom;
position = "{137, 0}";
},
{
name = center;
position = "{76, 296}";
},
{
name = top;
position = "{239, 591}";
}
);
paths = (
{
closed = 1;
nodes = (
"179 0 LINE SMOOTH",
"275 0 OFFCURVE",
"336 34 OFFCURVE",
"351 141 CURVE SMOOTH",
"398 472 LINE SMOOTH",
"408 543 OFFCURVE",
"376 591 OFFCURVE",
"283 591 CURVE SMOOTH",
"58 591 LINE",
"-26 0 LINE"
);
},
{
closed = 1;
nodes = (
"73 573 LINE",
"280 573 LINE SMOOTH",
"361 573 OFFCURVE",
"390 532 OFFCURVE",
"381 472 CURVE SMOOTH",
"334 141 LINE SMOOTH",
"321 49 OFFCURVE",
"270 18 OFFCURVE",
"181 18 CURVE SMOOTH",
"-6 18 LINE"
);
},
{
closed = 1;
nodes = (
"182 27 LINE SMOOTH",
"262 27 OFFCURVE",
"314 54 OFFCURVE",
"326 141 CURVE SMOOTH",
"373 472 LINE SMOOTH",
"381 527 OFFCURVE",
"355 564 OFFCURVE",
"279 564 CURVE SMOOTH",
"80 564 LINE",
"4 27 LINE"
);
},
{
closed = 1;
nodes = (
"211 484 LINE",
"224 484 LINE SMOOTH",
"229 484 OFFCURVE",
"232 482 OFFCURVE",
"234 479 CURVE SMOOTH",
"236 475 OFFCURVE",
"237 468 OFFCURVE",
"235 457 CURVE SMOOTH",
"188 127 LINE SMOOTH",
"186 116 OFFCURVE",
"185 109 OFFCURVE",
"182 106 CURVE SMOOTH",
"179 102 OFFCURVE",
"175 100 OFFCURVE",
"170 100 CURVE SMOOTH",
"157 100 LINE"
);
},
{
closed = 1;
nodes = (
"171 109 LINE SMOOTH",
"172 109 OFFCURVE",
"174 110 OFFCURVE",
"175 113 CURVE SMOOTH",
"176 115 OFFCURVE",
"178 120 OFFCURVE",
"179 127 CURVE SMOOTH",
"226 457 LINE SMOOTH",
"228 469 OFFCURVE",
"227 475 OFFCURVE",
"222 475 CURVE SMOOTH",
"218 475 LINE",
"167 109 LINE"
);
}
);
};
layerId = "6544E2DB-1912-401E-9B5B-A29F161A5995";
paths = (
{
closed = 1;
nodes = (
"179 0 LINE SMOOTH",
"275 0 OFFCURVE",
"336 34 OFFCURVE",
"351 141 CURVE SMOOTH",
"398 472 LINE SMOOTH",
"408 543 OFFCURVE",
"376 591 OFFCURVE",
"283 591 CURVE SMOOTH",
"58 591 LINE",
"-26 0 LINE"
);
},
{
closed = 1;
nodes = (
"73 573 LINE",
"280 573 LINE SMOOTH",
"361 573 OFFCURVE",
"390 532 OFFCURVE",
"381 472 CURVE SMOOTH",
"334 141 LINE SMOOTH",
"321 49 OFFCURVE",
"270 18 OFFCURVE",
"181 18 CURVE SMOOTH",
"-6 18 LINE"
);
},
{
closed = 1;
nodes = (
"182 27 LINE SMOOTH",
"262 27 OFFCURVE",
"314 54 OFFCURVE",
"326 141 CURVE SMOOTH",
"373 472 LINE SMOOTH",
"381 527 OFFCURVE",
"355 564 OFFCURVE",
"279 564 CURVE SMOOTH",
"80 564 LINE",
"4 27 LINE"
);
},
{
closed = 1;
nodes = (
"211 484 LINE",
"224 484 LINE SMOOTH",
"229 484 OFFCURVE",
"232 482 OFFCURVE",
"234 479 CURVE SMOOTH",
"236 475 OFFCURVE",
"237 468 OFFCURVE",
"235 457 CURVE SMOOTH",
"188 127 LINE SMOOTH",
"186 116 OFFCURVE",
"185 109 OFFCURVE",
"182 106 CURVE SMOOTH",
"179 102 OFFCURVE",
"175 100 OFFCURVE",
"170 100 CURVE SMOOTH",
"157 100 LINE"
);
},
{
closed = 1;
nodes = (
"171 109 LINE SMOOTH",
"172 109 OFFCURVE",
"174 110 OFFCURVE",
"175 113 CURVE SMOOTH",
"176 115 OFFCURVE",
"178 120 OFFCURVE",
"179 127 CURVE SMOOTH",
"226 457 LINE SMOOTH",
"228 469 OFFCURVE",
"227 475 OFFCURVE",
"222 475 CURVE SMOOTH",
"218 475 LINE",
"167 109 LINE"
);
}
);
userData = {
assembly = "SVTCA[0]	/* SetFreedomAndProjectionVectorToAxis */\012PUSHW[ ]	/* 4 values pushed */\01216 2 8 4 \012CALL[ ]	/* CallFunction */\012IUP[0]	/* InterpolateUntPts */\012IUP[1]	/* InterpolateUntPts */";
};
width = 372;
}
);
leftKerningGroup = H;
leftMetricsKey = H;
note = D;
rightKerningGroup = O;
rightMetricsKey = O;
unicode = 0044;
},
{
glyphname = Eth;
lastChange = "2022-02-25 01:11:30 +0000";
layers = (
{
anchors = (
{
name = bottom;
position = "{137, 0}";
},
{
name = center;
position = "{76, 296}";
},
{
name = top;
position = "{239, 591}";
}
);
background = {
components = (
{
name = D;
},
{
name = strokeshortcomb;
transform = "{1, 0, 0, 1, -38, 27}";
}
);
paths = (
{
closed = 1;
nodes = (
"192 258 LINE",
"200 321 LINE",
"27 321 LINE",
"18 258 LINE"
);
}
);
};
layerId = "6544E2DB-1912-401E-9B5B-A29F161A5995";
paths = (
{
closed = 1;
nodes = (
"182 27 LINE SMOOTH",
"262 27 OFFCURVE",
"314 54 OFFCURVE",
"326 141 CURVE SMOOTH",
"373 472 LINE SMOOTH",
"381 527 OFFCURVE",
"355 564 OFFCURVE",
"279 564 CURVE SMOOTH",
"80 564 LINE",
"46 321 LINE",
"27 321 LINE",
"18 258 LINE",
"37 258 LINE",
"4 27 LINE"
);
},
{
closed = 1;
nodes = (
"179 258 LINE",
"198 258 LINE",
"206 321 LINE",
"188 321 LINE",
"211 484 LINE",
"224 484 LINE SMOOTH",
"229 484 OFFCURVE",
"232 482 OFFCURVE",
"234 479 CURVE SMOOTH",
"236 475 OFFCURVE",
"237 468 OFFCURVE",
"235 457 CURVE SMOOTH",
"188 127 LINE SMOOTH",
"186 116 OFFCURVE",
"185 109 OFFCURVE",
"182 106 CURVE SMOOTH",
"179 102 OFFCURVE",
"175 100 OFFCURVE",
"170 100 CURVE SMOOTH",
"157 100 LINE"
);
},
{
closed = 1;
nodes = (
"182 1 LINE SMOOTH",
"283.887 1 OFFCURVE",
"339 45 OFFCURVE",
"351.749 137.396 CURVE SMOOTH",
"398.736 468.301 LINE SMOOTH",
"410 545 OFFCURVE",
"364.374 590 OFFCURVE",
"279 590 CURVE SMOOTH",
"57.385 590 LINE",
"23.385 347 LINE",
"4.45 347 LINE",
"-11.978 232 LINE",
"7.022 232 LINE",
"-25.978 1 LINE"
);
},
{
closed = 1;
nodes = (
"27.776 250 LINE",
"8.776 250 LINE",
"20.062 329 LINE",
"39.041 329 LINE",
"73.041 572 LINE",
"279 572 LINE SMOOTH",
"353.929 572 OFFCURVE",
"390 536 OFFCURVE",
"380.919 470.862 CURVE SMOOTH",
"333.923 139.891 LINE SMOOTH",
"322 57 OFFCURVE",
"274.923 19 OFFCURVE",
"182 19 CURVE SMOOTH",
"-5.224 19 LINE"
);
},
{
closed = 1;
nodes = (
"227 458 LINE SMOOTH",
"228 467 OFFCURVE",
"228 473 OFFCURVE",
"227 475 CURVE SMOOTH",
"227 476 OFFCURVE",
"226 476 OFFCURVE",
"224 476 CURVE SMOOTH",
"218 476 LINE",
"197 329 LINE",
"208 329 LINE"
);
},
{
closed = 1;
nodes = (
"186 250 LINE",
"166 108 LINE",
"170 108 LINE SMOOTH",
"173 108 OFFCURVE",
"175 109 OFFCURVE",
"177 113 CURVE SMOOTH",
"177 115 OFFCURVE",
"179 119 OFFCURVE",
"180 128 CURVE SMOOTH",
"197 250 LINE"
);
}
);
userData = {
assembly = "SVTCA[0]	/* SetFreedomAndProjectionVectorToAxis */\012PUSHW[ ]	/* 4 values pushed */\01233 2 13 4 \012CALL[ ]	/* CallFunction */\012PUSHW[ ]	/* 4 values pushed */\0120 2 15 4 \012CALL[ ]	/* CallFunction */\012PUSHW[ ]	/* 1 value pushed */\0120 \012SRP0[ ]	/* SetRefPoint0 */\012PUSHW[ ]	/* 1 value pushed */\01228 \012MDRP[10000]	/* MoveDirectRelPt */\012PUSHW[ ]	/* 1 value pushed */\01215 \012SRP0[ ]	/* SetRefPoint0 */\012PUSHW[ ]	/* 1 value pushed */\01230 \012MDRP[10000]	/* MoveDirectRelPt */\012IUP[0]	/* InterpolateUntPts */\012IUP[1]	/* InterpolateUntPts */";
};
width = 372;
}
);
leftKerningGroup = H;
note = Eth;
rightKerningGroup = O;
unicode = 00D0;
},
{
glyphname = E;
lastChange = "2022-02-25 00:39:36 +0000";
layers = (
{
anchors = (
{
name = bottom;
position = "{116, 0}";
},
{
name = ogonek;
position = "{254, 0}";
},
{
name = top;
position = "{191, 591}";
},
{
name = topleft;
position = "{58, 591}";
}
);
background = {
anchors = (
{
name = bottom;
position = "{116, 0}";
},
{
name = ogonek;
position = "{254, 0}";
},
{
name = top;
position = "{191, 591}";
},
{
name = topleft;
position = "{58, 591}";
}
);
paths = (
{
closed = 1;
nodes = (
"261 0 LINE",
"282 153 LINE",
"182 153 LINE",
"191 218 LINE",
"282 218 LINE",
"306 386 LINE",
"215 386 LINE",
"222 436 LINE",
"322 436 LINE",
"344 591 LINE",
"58 591 LINE",
"-26 0 LINE"
);
},
{
closed = 1;
nodes = (
"71 573 LINE",
"324 573 LINE",
"307 454 LINE",
"208 454 LINE",
"196 368 LINE",
"287 368 LINE",
"269 236 LINE",
"178 236 LINE",
"163 134 LINE",
"262 134 LINE",
"246 18 LINE",
"-8 18 LINE"
);
},
{
closed = 1;
nodes = (
"239 27 LINE",
"253 125 LINE",
"154 125 LINE",
"171 245 LINE",
"262 245 LINE",
"278 359 LINE",
"187 359 LINE",
"202 463 LINE",
"301 463 LINE",
"315 564 LINE",
"78 564 LINE",
"2 27 LINE"
);
}
);
};
layerId = "6544E2DB-1912-401E-9B5B-A29F161A5995";
paths = (
{
closed = 1;
nodes = (
"261 0 LINE",
"282 153 LINE",
"182 153 LINE",
"191 218 LINE",
"282 218 LINE",
"306 386 LINE",
"215 386 LINE",
"222 436 LINE",
"322 436 LINE",
"344 591 LINE",
"58 591 LINE",
"-26 0 LINE"
);
},
{
closed = 1;
nodes = (
"71 573 LINE",
"324 573 LINE",
"307 454 LINE",
"208 454 LINE",
"196 368 LINE",
"287 368 LINE",
"269 236 LINE",
"178 236 LINE",
"163 134 LINE",
"262 134 LINE",
"246 18 LINE",
"-8 18 LINE"
);
},
{
closed = 1;
nodes = (
"239 27 LINE",
"253 125 LINE",
"154 125 LINE",
"171 245 LINE",
"262 245 LINE",
"278 359 LINE",
"187 359 LINE",
"202 463 LINE",
"301 463 LINE",
"315 564 LINE",
"78 564 LINE",
"2 27 LINE"
);
}
);
userData = {
assembly = "PUSHW[ ]	/* 4 values pushed */\01229 6 7 4 \012CALL[ ]	/* CallFunction */\012PUSHW[ ]	/* 1 value pushed */\01229 \012SRP0[ ]	/* SetRefPoint0 */\012PUSHW[ ]	/* 1 value pushed */\0122 \012MDRP[10000]	/* MoveDirectRelPt */\012PUSHW[ ]	/* 1 value pushed */\0122 \012MDAP[1]	/* MoveDirectAbsPt */\012PUSHW[ ]	/* 1 value pushed */\0127 \012SRP0[ ]	/* SetRefPoint0 */\012PUSHW[ ]	/* 1 value pushed */\01216 \012MDRP[10000]	/* MoveDirectRelPt */\012PUSHW[ ]	/* 1 value pushed */\01216 \012MDAP[1]	/* MoveDirectAbsPt */\012PUSHW[ ]	/* 1 value pushed */\01229 \012SRP0[ ]	/* SetRefPoint0 */\012PUSHW[ ]	/* 1 value pushed */\01221 \012MDRP[10000]	/* MoveDirectRelPt */\012PUSHW[ ]	/* 1 value pushed */\01221 \012MDAP[1]	/* MoveDirectAbsPt */\012PUSHW[ ]	/* 1 value pushed */\01229 \012SRP0[ ]	/* SetRefPoint0 */\012PUSHW[ ]	/* 1 value pushed */\01237 \012MDRP[11100]	/* MoveDirectRelPt */\012SVTCA[0]	/* SetFreedomAndProjectionVectorToAxis */\012PUSHW[ ]	/* 4 values pushed */\0129 3 10 4 \012CALL[ ]	/* CallFunction */\012IUP[0]	/* InterpolateUntPts */\012IUP[1]	/* InterpolateUntPts */";
};
width = 302;
}
);
leftKerningGroup = H;
leftMetricsKey = H;
note = E;
rightKerningGroup = E;
unicode = 0045;
},
{
color = 3;
glyphname = Eogonek;
lastChange = "2022-02-25 01:07:49 +0000";
layers = (
{
background = {
anchors = (
{
name = bottom;
position = "{114, 0}";
},
{
name = ogonek;
position = "{247, 10}";
},
{
name = top;
position = "{198, 591}";
},
{
name = topleft;
position = "{52, 591}";
}
);
paths = (
{
closed = 1;
nodes = (
"226 -151 OFFCURVE",
"248 -137 OFFCURVE",
"256 -133 CURVE",
"244 -96 LINE",
"241 -96 OFFCURVE",
"235 -99 OFFCURVE",
"226 -99 CURVE SMOOTH",
"210 -99 OFFCURVE",
"191 -85 OFFCURVE",
"194 -61 CURVE SMOOTH",
"197 -39 OFFCURVE",
"216 -10 OFFCURVE",
"253 0 CURVE",
"260 0 LINE",
"281 153 LINE",
"181 153 LINE",
"190 218 LINE",
"281 218 LINE",
"305 386 LINE",
"214 386 LINE",
"221 436 LINE",
"321 436 LINE",
"343 591 LINE",
"57 591 LINE",
"-26 0 LINE",
"181 0 LINE",
"132 -10 OFFCURVE",
"98 -49 OFFCURVE",
"93 -83 CURVE SMOOTH",
"88 -117 OFFCURVE",
"118 -151 OFFCURVE",
"176 -151 CURVE SMOOTH"
);
},
{
closed = 1;
nodes = (
"261 0 LINE",
"282 153 LINE",
"182 153 LINE",
"191 218 LINE",
"282 218 LINE",
"306 386 LINE",
"215 386 LINE",
"222 436 LINE",
"322 436 LINE",
"344 591 LINE",
"58 591 LINE",
"-26 0 LINE"
);
},
{
closed = 1;
nodes = (
"71 573 LINE",
"324 573 LINE",
"307 454 LINE",
"208 454 LINE",
"196 368 LINE",
"287 368 LINE",
"269 236 LINE",
"178 236 LINE",
"163 134 LINE",
"262 134 LINE",
"246 18 LINE",
"-8 18 LINE"
);
},
{
closed = 1;
nodes = (
"239 27 LINE",
"253 125 LINE",
"154 125 LINE",
"171 245 LINE",
"262 245 LINE",
"278 359 LINE",
"187 359 LINE",
"202 463 LINE",
"301 463 LINE",
"315 564 LINE",
"78 564 LINE",
"2 27 LINE"
);
},
{
closed = 1;
nodes = (
"227 -151 OFFCURVE",
"249 -137 OFFCURVE",
"257 -133 CURVE",
"245 -96 LINE",
"242 -96 OFFCURVE",
"236 -99 OFFCURVE",
"227 -99 CURVE SMOOTH",
"211 -99 OFFCURVE",
"192 -85 OFFCURVE",
"195 -61 CURVE SMOOTH",
"198 -39 OFFCURVE",
"217 -10 OFFCURVE",
"254 0 CURVE",
"196 2 LINE",
"140 -3 OFFCURVE",
"99 -46 OFFCURVE",
"94 -83 CURVE SMOOTH",
"89 -117 OFFCURVE",
"119 -151 OFFCURVE",
"177 -151 CURVE SMOOTH"
);
},
{
closed = 1;
nodes = (
"239 27 LINE",
"253 125 LINE",
"154 125 LINE",
"171 245 LINE",
"262 245 LINE",
"278 359 LINE",
"187 359 LINE",
"202 463 LINE",
"301 463 LINE",
"315 564 LINE",
"78 564 LINE",
"2 27 LINE"
);
},
{
closed = 1;
nodes = (
"198 -141 OFFCURVE",
"220 -127 OFFCURVE",
"227 -123 CURVE",
"214 -86 LINE",
"211 -87 OFFCURVE",
"205 -89 OFFCURVE",
"196 -89 CURVE SMOOTH",
"176 -89 OFFCURVE",
"159 -80 OFFCURVE",
"159 -54 CURVE SMOOTH",
"159 -24 OFFCURVE",
"192 9 OFFCURVE",
"238 27 CURVE",
"179 29 LINE",
"127 18 OFFCURVE",
"68 -29 OFFCURVE",
"68 -76 CURVE SMOOTH",
"68 -113 OFFCURVE",
"94 -141 OFFCURVE",
"148 -141 CURVE SMOOTH"
);
}
);
};
layerId = "6544E2DB-1912-401E-9B5B-A29F161A5995";
paths = (
{
closed = 1;
nodes = (
"185 -157 OFFCURVE",
"221 -145 OFFCURVE",
"239 -126 CURVE",
"230 -51 LINE",
"217 -59 OFFCURVE",
"204 -65 OFFCURVE",
"194 -65 CURVE SMOOTH",
"190 -65 OFFCURVE",
"188 -63 OFFCURVE",
"188 -58 CURVE SMOOTH",
"191 -40 OFFCURVE",
"221 -10 OFFCURVE",
"264 8 CURVE",
"284 151 LINE",
"185 151 LINE",
"194 219 LINE",
"284 219 LINE",
"308 385 LINE",
"218 385 LINE",
"225 437 LINE",
"324 437 LINE",
"346 592 LINE",
"58 592 LINE",
"-26 -1 LINE",
"114 -1 LINE",
"90 -25 OFFCURVE",
"73 -53 OFFCURVE",
"70 -77 CURVE SMOOTH",
"63 -126 OFFCURVE",
"94 -157 OFFCURVE",
"149 -157 CURVE SMOOTH"
);
},
{
closed = 1;
nodes = (
"73 574 LINE",
"325 574 LINE",
"308 455 LINE",
"209 455 LINE",
"197 367 LINE",
"287 367 LINE",
"269 237 LINE",
"179 237 LINE",
"164 133 LINE",
"263 133 LINE",
"247 20 LINE",
"204 -1 OFFCURVE",
"174 -31 OFFCURVE",
"170 -61 CURVE SMOOTH",
"168 -74 OFFCURVE",
"175 -82 OFFCURVE",
"190 -82 CURVE SMOOTH",
"200 -82 OFFCURVE",
"209 -78 OFFCURVE",
"215 -74 CURVE",
"220 -121 LINE",
"208 -132 OFFCURVE",
"177 -139 OFFCURVE",
"152 -139 CURVE SMOOTH",
"107 -139 OFFCURVE",
"82 -116 OFFCURVE",
"88 -77 CURVE SMOOTH",
"93 -40 OFFCURVE",
"132 -4 OFFCURVE",
"164 17 CURVE",
"-5 17 LINE"
);
},
{
closed = 1;
nodes = (
"181 -131 OFFCURVE",
"204 -123 OFFCURVE",
"212 -118 CURVE",
"208 -86 LINE",
"204 -87 OFFCURVE",
"198 -90 OFFCURVE",
"187 -90 CURVE SMOOTH",
"172 -90 OFFCURVE",
"159 -81 OFFCURVE",
"162 -61 CURVE SMOOTH",
"166 -28 OFFCURVE",
"198 3 OFFCURVE",
"240 25 CURVE",
"254 125 LINE",
"155 125 LINE",
"172 245 LINE",
"262 245 LINE",
"278 359 LINE",
"188 359 LINE",
"203 463 LINE",
"302 463 LINE",
"316 566 LINE",
"80 566 LINE",
"4 25 LINE",
"192 25 LINE",
"162 10 OFFCURVE",
"102 -33 OFFCURVE",
"96 -77 CURVE SMOOTH",
"91 -112 OFFCURVE",
"113 -131 OFFCURVE",
"153 -131 CURVE SMOOTH"
);
}
);
width = 304;
}
);
leftKerningGroup = H;
leftMetricsKey = E;
rightKerningGroup = E;
rightMetricsKey = E;
unicode = 0118;
},
{
glyphname = F;
lastChange = "2022-02-25 00:39:36 +0000";
layers = (
{
background = {
paths = (
{
closed = 1;
nodes = (
"161 0 LINE",
"191 218 LINE",
"282 218 LINE",
"306 386 LINE",
"215 386 LINE",
"222 436 LINE",
"322 436 LINE",
"344 591 LINE",
"58 591 LINE",
"-26 0 LINE"
);
},
{
closed = 1;
nodes = (
"71 573 LINE",
"324 573 LINE",
"307 454 LINE",
"208 454 LINE",
"196 368 LINE",
"287 368 LINE",
"269 236 LINE",
"178 236 LINE",
"147 18 LINE",
"-8 18 LINE"
);
},
{
closed = 1;
nodes = (
"140 27 LINE",
"171 245 LINE",
"262 245 LINE",
"278 359 LINE",
"187 359 LINE",
"202 463 LINE",
"301 463 LINE",
"315 564 LINE",
"78 564 LINE",
"2 27 LINE"
);
}
);
};
layerId = "6544E2DB-1912-401E-9B5B-A29F161A5995";
paths = (
{
closed = 1;
nodes = (
"161 0 LINE",
"191 218 LINE",
"282 218 LINE",
"306 386 LINE",
"215 386 LINE",
"222 436 LINE",
"322 436 LINE",
"344 591 LINE",
"58 591 LINE",
"-26 0 LINE"
);
},
{
closed = 1;
nodes = (
"71 573 LINE",
"324 573 LINE",
"307 454 LINE",
"208 454 LINE",
"196 368 LINE",
"287 368 LINE",
"269 236 LINE",
"178 236 LINE",
"147 18 LINE",
"-8 18 LINE"
);
},
{
closed = 1;
nodes = (
"140 27 LINE",
"171 245 LINE",
"262 245 LINE",
"278 359 LINE",
"187 359 LINE",
"202 463 LINE",
"301 463 LINE",
"315 564 LINE",
"78 564 LINE",
"2 27 LINE"
);
}
);
userData = {
assembly = "PUSHW[ ]	/* 4 values pushed */\01225 6 7 4 \012CALL[ ]	/* CallFunction */\012PUSHW[ ]	/* 1 value pushed */\01225 \012SRP0[ ]	/* SetRefPoint0 */\012PUSHW[ ]	/* 1 value pushed */\0122 \012MDRP[10000]	/* MoveDirectRelPt */\012PUSHW[ ]	/* 1 value pushed */\0122 \012MDAP[1]	/* MoveDirectAbsPt */\012PUSHW[ ]	/* 1 value pushed */\0127 \012SRP0[ ]	/* SetRefPoint0 */\012PUSHW[ ]	/* 1 value pushed */\01212 \012MDRP[10000]	/* MoveDirectRelPt */\012PUSHW[ ]	/* 1 value pushed */\01212 \012MDAP[1]	/* MoveDirectAbsPt */\012PUSHW[ ]	/* 1 value pushed */\01225 \012SRP0[ ]	/* SetRefPoint0 */\012PUSHW[ ]	/* 1 value pushed */\01217 \012MDRP[10000]	/* MoveDirectRelPt */\012PUSHW[ ]	/* 1 value pushed */\01217 \012MDAP[1]	/* MoveDirectAbsPt */\012PUSHW[ ]	/* 1 value pushed */\01225 \012SRP0[ ]	/* SetRefPoint0 */\012PUSHW[ ]	/* 1 value pushed */\01231 \012MDRP[11100]	/* MoveDirectRelPt */\012SVTCA[0]	/* SetFreedomAndProjectionVectorToAxis */\012PUSHW[ ]	/* 1 value pushed */\0128 \012MDAP[1]	/* MoveDirectAbsPt */\012IUP[0]	/* InterpolateUntPts */\012IUP[1]	/* InterpolateUntPts */";
};
width = 302;
}
);
leftKerningGroup = H;
leftMetricsKey = H;
note = F;
rightKerningGroup = F;
unicode = 0046;
},
{
glyphname = G;
lastChange = "2022-02-25 00:39:36 +0000";
layers = (
{
anchors = (
{
name = bottom;
position = "{149, 0}";
},
{
name = top;
position = "{232, 591}";
}
);
background = {
anchors = (
{
name = bottom;
position = "{149, 0}";
},
{
name = top;
position = "{232, 591}";
}
);
paths = (
{
closed = 1;
nodes = (
"136 -9 OFFCURVE",
"159 1 OFFCURVE",
"178 16 CURVE",
"179 0 LINE",
"328 0 LINE",
"375 338 LINE",
"206 338 LINE",
"206 339 LINE",
"375 339 LINE",
"391 449 LINE SMOOTH",
"407 556 OFFCURVE",
"339 599 OFFCURVE",
"231 599 CURVE SMOOTH",
"124 599 OFFCURVE",
"49 558 OFFCURVE",
"34 449 CURVE SMOOTH",
"-6 165 LINE SMOOTH",
"-25 33 OFFCURVE",
"25 -9 OFFCURVE",
"105 -9 CURVE SMOOTH"
);
},
{
closed = 1;
nodes = (
"174 109 OFFCURVE",
"178 115 OFFCURVE",
"179 127 CURVE",
"192 220 LINE",
"171 220 LINE",
"158 127 LINE",
"157 115 OFFCURVE",
"160 109 OFFCURVE",
"167 109 CURVE SMOOTH"
);
},
{
closed = 1;
nodes = (
"36 9 OFFCURVE",
"-5 48 OFFCURVE",
"11 165 CURVE SMOOTH",
"51 449 LINE SMOOTH",
"64 545 OFFCURVE",
"132 581 OFFCURVE",
"228 581 CURVE SMOOTH",
"324 581 OFFCURVE",
"387 544 OFFCURVE",
"374 449 CURVE SMOOTH",
"361 358 LINE",
"212 358 LINE",
"226 458 LINE SMOOTH",
"228 470 OFFCURVE",
"225 476 OFFCURVE",
"218 476 CURVE SMOOTH",
"211 476 OFFCURVE",
"207 470 OFFCURVE",
"205 458 CURVE SMOOTH",
"185 319 LINE",
"355 319 LINE",
"313 18 LINE",
"195 18 LINE",
"191 55 LINE",
"176 31 OFFCURVE",
"151 9 OFFCURVE",
"108 9 CURVE SMOOTH"
);
},
{
closed = 1;
nodes = (
"158 18 OFFCURVE",
"185 55 OFFCURVE",
"199 84 CURVE",
"203 27 LINE",
"305 27 LINE",
"345 310 LINE",
"192 310 LINE",
"181 229 LINE",
"203 229 LINE",
"188 127 LINE SMOOTH",
"185 106 OFFCURVE",
"177 100 OFFCURVE",
"166 100 CURVE SMOOTH",
"155 100 OFFCURVE",
"147 106 OFFCURVE",
"150 127 CURVE SMOOTH",
"197 458 LINE SMOOTH",
"200 479 OFFCURVE",
"209 485 OFFCURVE",
"220 485 CURVE SMOOTH",
"231 485 OFFCURVE",
"238 479 OFFCURVE",
"235 458 CURVE SMOOTH",
"222 367 LINE",
"353 367 LINE",
"365 449 LINE SMOOTH",
"376 538 OFFCURVE",
"320 572 OFFCURVE",
"227 572 CURVE SMOOTH",
"136 572 OFFCURVE",
"72 538 OFFCURVE",
"60 449 CURVE SMOOTH",
"20 165 LINE SMOOTH",
"4 56 OFFCURVE",
"41 18 OFFCURVE",
"109 18 CURVE SMOOTH"
);
}
);
};
layerId = "6544E2DB-1912-401E-9B5B-A29F161A5995";
paths = (
{
closed = 1;
nodes = (
"136 -9 OFFCURVE",
"159 1 OFFCURVE",
"178 16 CURVE",
"179 0 LINE",
"328 0 LINE",
"375 338 LINE",
"206 338 LINE",
"206 339 LINE",
"375 339 LINE",
"391 449 LINE SMOOTH",
"407 556 OFFCURVE",
"339 599 OFFCURVE",
"231 599 CURVE SMOOTH",
"124 599 OFFCURVE",
"49 558 OFFCURVE",
"34 449 CURVE SMOOTH",
"-6 165 LINE SMOOTH",
"-25 33 OFFCURVE",
"25 -9 OFFCURVE",
"105 -9 CURVE SMOOTH"
);
},
{
closed = 1;
nodes = (
"174 109 OFFCURVE",
"178 115 OFFCURVE",
"179 127 CURVE",
"192 220 LINE",
"171 220 LINE",
"158 127 LINE",
"157 115 OFFCURVE",
"160 109 OFFCURVE",
"167 109 CURVE SMOOTH"
);
},
{
closed = 1;
nodes = (
"36 9 OFFCURVE",
"-5 48 OFFCURVE",
"11 165 CURVE SMOOTH",
"51 449 LINE SMOOTH",
"64 545 OFFCURVE",
"132 581 OFFCURVE",
"228 581 CURVE SMOOTH",
"324 581 OFFCURVE",
"387 544 OFFCURVE",
"374 449 CURVE SMOOTH",
"361 358 LINE",
"212 358 LINE",
"226 458 LINE SMOOTH",
"228 470 OFFCURVE",
"225 476 OFFCURVE",
"218 476 CURVE SMOOTH",
"211 476 OFFCURVE",
"207 470 OFFCURVE",
"205 458 CURVE SMOOTH",
"185 319 LINE",
"355 319 LINE",
"313 18 LINE",
"195 18 LINE",
"191 55 LINE",
"176 31 OFFCURVE",
"151 9 OFFCURVE",
"108 9 CURVE SMOOTH"
);
},
{
closed = 1;
nodes = (
"158 18 OFFCURVE",
"185 55 OFFCURVE",
"199 84 CURVE",
"203 27 LINE",
"305 27 LINE",
"345 310 LINE",
"192 310 LINE",
"181 229 LINE",
"203 229 LINE",
"188 127 LINE SMOOTH",
"185 106 OFFCURVE",
"177 100 OFFCURVE",
"166 100 CURVE SMOOTH",
"155 100 OFFCURVE",
"147 106 OFFCURVE",
"150 127 CURVE SMOOTH",
"197 458 LINE SMOOTH",
"200 479 OFFCURVE",
"209 485 OFFCURVE",
"220 485 CURVE SMOOTH",
"231 485 OFFCURVE",
"238 479 OFFCURVE",
"235 458 CURVE SMOOTH",
"222 367 LINE",
"353 367 LINE",
"365 449 LINE SMOOTH",
"376 538 OFFCURVE",
"320 572 OFFCURVE",
"227 572 CURVE SMOOTH",
"136 572 OFFCURVE",
"72 538 OFFCURVE",
"60 449 CURVE SMOOTH",
"20 165 LINE SMOOTH",
"4 56 OFFCURVE",
"41 18 OFFCURVE",
"109 18 CURVE SMOOTH"
);
}
);
userData = {
assembly = "PUSHW[ ]	/* 4 values pushed */\01275 6 48 4 \012CALL[ ]	/* CallFunction */\012PUSHW[ ]	/* 3 values pushed */\0123 48 75 \012SRP1[ ]	/* SetRefPoint1 */\012SRP2[ ]	/* SetRefPoint2 */\012IP[ ]	/* InterpolatePts */\012PUSHW[ ]	/* 3 values pushed */\01273 48 75 \012SRP1[ ]	/* SetRefPoint1 */\012SRP2[ ]	/* SetRefPoint2 */\012IP[ ]	/* InterpolatePts */\012PUSHW[ ]	/* 3 values pushed */\01279 48 75 \012SRP1[ ]	/* SetRefPoint1 */\012SRP2[ ]	/* SetRefPoint2 */\012IP[ ]	/* InterpolatePts */\012PUSHW[ ]	/* 1 value pushed */\01248 \012SRP0[ ]	/* SetRefPoint0 */\012PUSHW[ ]	/* 1 value pushed */\01283 \012MDRP[10000]	/* MoveDirectRelPt */\012PUSHW[ ]	/* 1 value pushed */\01283 \012MDAP[1]	/* MoveDirectAbsPt */\012PUSHW[ ]	/* 1 value pushed */\01275 \012SRP0[ ]	/* SetRefPoint0 */\012PUSHW[ ]	/* 1 value pushed */\012103 \012MDRP[11100]	/* MoveDirectRelPt */\012SVTCA[0]	/* SetFreedomAndProjectionVectorToAxis */\012PUSHW[ ]	/* 1 value pushed */\0121 \012MDAP[1]	/* MoveDirectAbsPt */\012PUSHW[ ]	/* 4 values pushed */\01235 2 8 4 \012CALL[ ]	/* CallFunction */\012PUSHW[ ]	/* 3 values pushed */\0123 8 35 \012SRP1[ ]	/* SetRefPoint1 */\012SRP2[ ]	/* SetRefPoint2 */\012IP[ ]	/* InterpolatePts */\012PUSHW[ ]	/* 3 values pushed */\01273 8 35 \012SRP1[ ]	/* SetRefPoint1 */\012SRP2[ ]	/* SetRefPoint2 */\012IP[ ]	/* InterpolatePts */\012PUSHW[ ]	/* 1 value pushed */\0128 \012SRP0[ ]	/* SetRefPoint0 */\012PUSHW[ ]	/* 1 value pushed */\01274 \012MDRP[10000]	/* MoveDirectRelPt */\012IUP[0]	/* InterpolateUntPts */\012IUP[1]	/* InterpolateUntPts */";
};
width = 369;
}
);
leftKerningGroup = O;
leftMetricsKey = O;
note = G;
rightKerningGroup = G;
unicode = 0047;
},
{
glyphname = H;
lastChange = "2022-02-25 00:39:36 +0000";
layers = (
{
anchors = (
{
name = bottom;
position = "{152, 0}";
},
{
name = center;
position = "{194, 296}";
},
{
name = top;
position = "{235, 591}";
},
{
name = topleft;
position = "{53, 591}";
}
);
background = {
anchors = (
{
name = bottom;
position = "{152, 0}";
},
{
name = center;
position = "{194, 296}";
},
{
name = top;
position = "{235, 591}";
},
{
name = topleft;
position = "{53, 591}";
}
);
paths = (
{
closed = 1;
nodes = (
"329 0 LINE",
"412 591 LINE",
"58 591 LINE",
"-26 0 LINE"
);
},
{
closed = 1;
nodes = (
"72 573 LINE",
"226 573 LINE",
"197 365 LINE",
"210 365 LINE",
"239 573 LINE",
"392 573 LINE",
"314 18 LINE",
"161 18 LINE",
"192 241 LINE",
"179 241 LINE",
"148 18 LINE",
"-7 18 LINE"
);
},
{
closed = 1;
nodes = (
"140 27 LINE",
"172 250 LINE",
"203 250 LINE",
"171 27 LINE",
"307 27 LINE",
"383 564 LINE",
"247 564 LINE",
"218 356 LINE",
"187 356 LINE",
"216 564 LINE",
"80 564 LINE",
"4 27 LINE"
);
}
);
};
layerId = "6544E2DB-1912-401E-9B5B-A29F161A5995";
paths = (
{
closed = 1;
nodes = (
"329 0 LINE",
"412 591 LINE",
"58 591 LINE",
"-26 0 LINE"
);
},
{
closed = 1;
nodes = (
"72 573 LINE",
"226 573 LINE",
"197 365 LINE",
"210 365 LINE",
"239 573 LINE",
"392 573 LINE",
"314 18 LINE",
"161 18 LINE",
"192 241 LINE",
"179 241 LINE",
"148 18 LINE",
"-7 18 LINE"
);
},
{
closed = 1;
nodes = (
"140 27 LINE",
"172 250 LINE",
"203 250 LINE",
"171 27 LINE",
"307 27 LINE",
"383 564 LINE",
"247 564 LINE",
"218 356 LINE",
"187 356 LINE",
"216 564 LINE",
"80 564 LINE",
"4 27 LINE"
);
}
);
userData = {
assembly = "PUSHW[ ]	/* 1 value pushed */\01228 \012MDAP[1]	/* MoveDirectAbsPt */\012PUSHW[ ]	/* 1 value pushed */\01223 \012MDAP[1]	/* MoveDirectAbsPt */\012PUSHW[ ]	/* 1 value pushed */\0120 \012MDRP[10000]	/* MoveDirectRelPt */\012PUSHW[ ]	/* 1 value pushed */\0120 \012MDAP[1]	/* MoveDirectAbsPt */\012PUSHW[ ]	/* 1 value pushed */\01228 \012SRP0[ ]	/* SetRefPoint0 */\012PUSHW[ ]	/* 1 value pushed */\0122 \012MDRP[10000]	/* MoveDirectRelPt */\012PUSHW[ ]	/* 1 value pushed */\0122 \012MDAP[1]	/* MoveDirectAbsPt */\012PUSHW[ ]	/* 2 values pushed */\0121 6 \012MIRP[10100]	/* MoveIndirectRelPt */\012PUSHW[ ]	/* 1 value pushed */\01223 \012SRP0[ ]	/* SetRefPoint0 */\012PUSHW[ ]	/* 2 values pushed */\01214 6 \012MIRP[10100]	/* MoveIndirectRelPt */\012PUSHW[ ]	/* 1 value pushed */\0129 \012MDRP[10000]	/* MoveDirectRelPt */\012PUSHW[ ]	/* 1 value pushed */\0129 \012MDAP[1]	/* MoveDirectAbsPt */\012PUSHW[ ]	/* 1 value pushed */\01214 \012SRP0[ ]	/* SetRefPoint0 */\012PUSHW[ ]	/* 1 value pushed */\01229 \012MDRP[11100]	/* MoveDirectRelPt */\012SVTCA[0]	/* SetFreedomAndProjectionVectorToAxis */\012PUSHW[ ]	/* 1 value pushed */\0121 \012MDAP[1]	/* MoveDirectAbsPt */\012PUSHW[ ]	/* 1 value pushed */\0129 \012MDAP[1]	/* MoveDirectAbsPt */\012PUSHW[ ]	/* 4 values pushed */\0125 3 0 4 \012CALL[ ]	/* CallFunction */\012IUP[0]	/* InterpolateUntPts */\012IUP[1]	/* InterpolateUntPts */";
};
width = 373;
}
);
leftKerningGroup = H;
note = H;
rightKerningGroup = H;
unicode = 0048;
},
{
color = 3;
glyphname = Hbar;
lastChange = "2022-02-25 00:37:42 +0000";
layers = (
{
background = {
paths = (
{
closed = 1;
nodes = (
"149 0 LINE",
"184 245 LINE",
"220 245 LINE",
"185 0 LINE",
"344 0 LINE",
"407 445 LINE",
"436 445 LINE",
"446 517 LINE",
"417 517 LINE",
"428 591 LINE",
"269 591 LINE",
"258 517 LINE",
"222 517 LINE",
"233 591 LINE",
"74 591 LINE",
"63 517 LINE",
"32 517 LINE",
"22 445 LINE",
"53 445 LINE",
"-10 0 LINE"
);
},
{
closed = 1;
nodes = (
"212 445 LINE",
"248 445 LINE",
"236 362 LINE",
"200 362 LINE"
);
},
{
closed = 1;
nodes = (
"149 0 LINE",
"184 245 LINE",
"220 245 LINE",
"185 0 LINE",
"344 0 LINE",
"407 445 LINE",
"436 445 LINE",
"446 517 LINE",
"417 517 LINE",
"428 591 LINE",
"269 591 LINE",
"258 517 LINE",
"222 517 LINE",
"233 591 LINE",
"74 591 LINE",
"63 517 LINE",
"32 517 LINE",
"22 445 LINE",
"53 445 LINE",
"-10 0 LINE"
);
},
{
closed = 1;
nodes = (
"212 445 LINE",
"248 445 LINE",
"236 362 LINE",
"200 362 LINE"
);
}
);
};
layerId = "6544E2DB-1912-401E-9B5B-A29F161A5995";
paths = (
{
closed = 1;
nodes = (
"367 -26 LINE",
"430 419 LINE",
"459 419 LINE",
"476 543 LINE",
"447 543 LINE",
"458 617 LINE",
"52 617 LINE",
"41 543 LINE",
"9 543 LINE",
"-8 419 LINE",
"23 419 LINE",
"-40 -26 LINE"
);
},
{
closed = 1;
nodes = (
"44 437 LINE",
"13 437 LINE",
"25 525 LINE",
"56 525 LINE",
"67 599 LINE",
"242 599 LINE",
"231 525 LINE",
"251 525 LINE",
"262 599 LINE",
"437 599 LINE",
"426 525 LINE",
"455 525 LINE",
"443 437 LINE",
"414 437 LINE",
"351 -8 LINE",
"176 -8 LINE",
"211 237 LINE",
"191 237 LINE",
"156 -8 LINE",
"-19 -8 LINE"
);
},
{
closed = 1;
nodes = (
"149 0 LINE",
"184 245 LINE",
"220 245 LINE",
"185 0 LINE",
"344 0 LINE",
"407 445 LINE",
"436 445 LINE",
"446 517 LINE",
"417 517 LINE",
"428 591 LINE",
"269 591 LINE",
"258 517 LINE",
"222 517 LINE",
"233 591 LINE",
"74 591 LINE",
"63 517 LINE",
"32 517 LINE",
"22 445 LINE",
"53 445 LINE",
"-10 0 LINE"
);
},
{
closed = 1;
nodes = (
"212 445 LINE",
"248 445 LINE",
"236 362 LINE",
"200 362 LINE"
);
},
{
closed = 1;
nodes = (
"229.073 370 LINE",
"238.76 437 LINE",
"218.927 437 LINE",
"209.24 370 LINE"
);
}
);
width = 404;
}
);
leftKerningGroup = H;
rightKerningGroup = H;
unicode = 0126;
},
{
glyphname = I;
lastChange = "2022-02-25 00:39:36 +0000";
layers = (
{
anchors = (
{
name = bottom;
position = "{55, 0}";
},
{
name = ogonek;
position = "{140, 10}";
},
{
name = top;
position = "{138, 591}";
},
{
name = topleft;
position = "{53, 591}";
}
);
background = {
anchors = (
{
name = bottom;
position = "{55, 0}";
},
{
name = ogonek;
position = "{140, 10}";
},
{
name = top;
position = "{138, 591}";
},
{
name = topleft;
position = "{53, 591}";
}
);
paths = (
{
closed = 1;
nodes = (
"134 0 LINE",
"217 591 LINE",
"58 591 LINE",
"-26 0 LINE"
);
},
{
closed = 1;
nodes = (
"69 573 LINE",
"199 573 LINE",
"121 18 LINE",
"-10 18 LINE"
);
},
{
closed = 1;
nodes = (
"115 27 LINE",
"191 564 LINE",
"76 564 LINE",
"0 27 LINE"
);
}
);
};
layerId = "6544E2DB-1912-401E-9B5B-A29F161A5995";
paths = (
{
closed = 1;
nodes = (
"134 0 LINE",
"217 591 LINE",
"58 591 LINE",
"-26 0 LINE"
);
},
{
closed = 1;
nodes = (
"69 573 LINE",
"199 573 LINE",
"121 18 LINE",
"-10 18 LINE"
);
},
{
closed = 1;
nodes = (
"115 27 LINE",
"191 564 LINE",
"76 564 LINE",
"0 27 LINE"
);
}
);
userData = {
assembly = "SVTCA[0]	/* SetFreedomAndProjectionVectorToAxis */\012PUSHW[ ]	/* 1 value pushed */\0120 \012MDAP[1]	/* MoveDirectAbsPt */\012IUP[0]	/* InterpolateUntPts */\012IUP[1]	/* InterpolateUntPts */";
};
width = 178;
}
);
leftKerningGroup = H;
leftMetricsKey = H;
note = I;
rightKerningGroup = H;
rightMetricsKey = H;
unicode = 0049;
},
{
color = 3;
glyphname = Iogonek;
lastChange = "2022-02-25 00:37:42 +0000";
layers = (
{
anchors = (
{
name = bottom;
position = "{55, 0}";
},
{
name = ogonek;
position = "{140, 10}";
},
{
name = top;
position = "{138, 591}";
},
{
name = topleft;
position = "{53, 591}";
}
);
background = {
paths = (
{
closed = 1;
nodes = (
"134 0 LINE",
"217 591 LINE",
"58 591 LINE",
"-26 0 LINE"
);
},
{
closed = 1;
nodes = (
"69 573 LINE",
"199 573 LINE",
"121 18 LINE",
"-10 18 LINE"
);
},
{
closed = 1;
nodes = (
"115 27 LINE",
"191 564 LINE",
"76 564 LINE",
"0 27 LINE"
);
},
{
closed = 1;
nodes = (
"113 -141 OFFCURVE",
"135 -127 OFFCURVE",
"143 -123 CURVE",
"131 -86 LINE",
"128 -86 OFFCURVE",
"122 -89 OFFCURVE",
"113 -89 CURVE SMOOTH",
"97 -89 OFFCURVE",
"78 -75 OFFCURVE",
"81 -51 CURVE SMOOTH",
"84 -29 OFFCURVE",
"103 0 OFFCURVE",
"140 10 CURVE",
"82 12 LINE",
"26 7 OFFCURVE",
"-15 -36 OFFCURVE",
"-20 -73 CURVE SMOOTH",
"-25 -107 OFFCURVE",
"5 -141 OFFCURVE",
"63 -141 CURVE SMOOTH"
);
}
);
};
layerId = "6544E2DB-1912-401E-9B5B-A29F161A5995";
paths = (
{
closed = 1;
nodes = (
"79 -158 OFFCURVE",
"108 -145 OFFCURVE",
"129 -127 CURVE",
"118 -52 LINE",
"109 -58 OFFCURVE",
"96 -66 OFFCURVE",
"87 -66 CURVE SMOOTH",
"80 -66 OFFCURVE",
"77 -63 OFFCURVE",
"77 -58 CURVE SMOOTH",
"80 -37 OFFCURVE",
"104 -12 OFFCURVE",
"145 10 CURVE",
"227 593 LINE",
"62 593 LINE",
"-22 -2 LINE",
"6 -2 LINE",
"-17 -27 OFFCURVE",
"-33 -53 OFFCURVE",
"-36 -76 CURVE SMOOTH",
"-43 -127 OFFCURVE",
"-11 -158 OFFCURVE",
"46 -158 CURVE SMOOTH"
);
},
{
closed = 1;
nodes = (
"1 -141 OFFCURVE",
"-24 -117 OFFCURVE",
"-18 -76 CURVE SMOOTH",
"-13 -41 OFFCURVE",
"22 -5 OFFCURVE",
"50 16 CURVE",
"-1 16 LINE",
"77 575 LINE",
"206 575 LINE",
"128 20 LINE",
"87 -4 OFFCURVE",
"63 -32 OFFCURVE",
"59 -59 CURVE SMOOTH",
"57 -73 OFFCURVE",
"65 -83 OFFCURVE",
"77 -83 CURVE SMOOTH",
"85 -83 OFFCURVE",
"96 -80 OFFCURVE",
"104 -75 CURVE",
"109 -123 LINE",
"97 -134 OFFCURVE",
"71 -141 OFFCURVE",
"49 -141 CURVE SMOOTH"
);
},
{
closed = 1;
nodes = (
"74 -133 OFFCURVE",
"93 -125 OFFCURVE",
"101 -120 CURVE",
"97 -87 LINE",
"93 -88 OFFCURVE",
"87 -91 OFFCURVE",
"76 -91 CURVE SMOOTH",
"61 -91 OFFCURVE",
"48 -82 OFFCURVE",
"51 -59 CURVE SMOOTH",
"55 -31 OFFCURVE",
"78 -1 OFFCURVE",
"121 24 CURVE",
"197 567 LINE",
"84 567 LINE",
"8 24 LINE",
"74 24 LINE",
"48 9 OFFCURVE",
"-4 -34 OFFCURVE",
"-10 -76 CURVE SMOOTH",
"-16 -114 OFFCURVE",
"8 -133 OFFCURVE",
"50 -133 CURVE SMOOTH"
);
}
);
width = 191;
}
);
leftMetricsKey = I;
rightMetricsKey = I;
unicode = 012E;
},
{
glyphname = J;
lastChange = "2022-02-25 00:39:36 +0000";
layers = (
{
background = {
paths = (
{
closed = 1;
nodes = (
"154 -1 OFFCURVE",
"202 40 OFFCURVE",
"223 172 CURVE SMOOTH",
"282 591 LINE",
"108 591 LINE",
"48 169 LINE SMOOTH",
"45 154 OFFCURVE",
"44 153 OFFCURVE",
"33 153 CURVE SMOOTH",
"-14 153 LINE",
"-35 3 LINE",
"-4 -1 OFFCURVE",
"22 -1 OFFCURVE",
"31 -1 CURVE SMOOTH"
);
},
{
closed = 1;
nodes = (
"0 17 OFFCURVE",
"-9 18 OFFCURVE",
"-17 19 CURVE",
"-1 134 LINE",
"30 134 LINE SMOOTH",
"54 134 OFFCURVE",
"60 141 OFFCURVE",
"64 169 CURVE SMOOTH",
"121 573 LINE",
"263 573 LINE",
"207 172 LINE SMOOTH",
"192 54 OFFCURVE",
"143 17 OFFCURVE",
"34 17 CURVE SMOOTH",
"11 17 LINE SMOOTH"
);
},
{
closed = 1;
nodes = (
"35 26 LINE SMOOTH",
"140 26 OFFCURVE",
"183 60 OFFCURVE",
"199 172 CURVE SMOOTH",
"254 564 LINE",
"128 564 LINE",
"72 169 LINE SMOOTH",
"67 133 OFFCURVE",
"60 125 OFFCURVE",
"29 125 CURVE SMOOTH",
"6 125 LINE",
"-8 27 LINE",
"-4 26 OFFCURVE",
"3 26 OFFCURVE",
"13 26 CURVE SMOOTH"
);
}
);
};
layerId = "6544E2DB-1912-401E-9B5B-A29F161A5995";
paths = (
{
closed = 1;
nodes = (
"154 -1 OFFCURVE",
"202 40 OFFCURVE",
"223 172 CURVE SMOOTH",
"282 591 LINE",
"108 591 LINE",
"48 169 LINE SMOOTH",
"45 154 OFFCURVE",
"44 153 OFFCURVE",
"33 153 CURVE SMOOTH",
"-14 153 LINE",
"-35 3 LINE",
"-4 -1 OFFCURVE",
"22 -1 OFFCURVE",
"31 -1 CURVE SMOOTH"
);
},
{
closed = 1;
nodes = (
"0 17 OFFCURVE",
"-9 18 OFFCURVE",
"-17 19 CURVE",
"-1 134 LINE",
"30 134 LINE SMOOTH",
"54 134 OFFCURVE",
"60 141 OFFCURVE",
"64 169 CURVE SMOOTH",
"121 573 LINE",
"263 573 LINE",
"207 172 LINE SMOOTH",
"192 54 OFFCURVE",
"143 17 OFFCURVE",
"34 17 CURVE SMOOTH",
"11 17 LINE SMOOTH"
);
},
{
closed = 1;
nodes = (
"35 26 LINE SMOOTH",
"140 26 OFFCURVE",
"183 60 OFFCURVE",
"199 172 CURVE SMOOTH",
"254 564 LINE",
"128 564 LINE",
"72 169 LINE SMOOTH",
"67 133 OFFCURVE",
"60 125 OFFCURVE",
"29 125 CURVE SMOOTH",
"6 125 LINE",
"-8 27 LINE",
"-4 26 OFFCURVE",
"3 26 OFFCURVE",
"13 26 CURVE SMOOTH"
);
}
);
width = 245;
}
);
leftKerningGroup = J;
note = J;
rightKerningGroup = J;
rightMetricsKey = "=O+5";
unicode = 004A;
},
{
glyphname = K;
lastChange = "2022-02-25 00:39:36 +0000";
layers = (
{
anchors = (
{
name = bottom;
position = "{167, 0}";
},
{
name = top;
position = "{250, 591}";
}
);
background = {
anchors = (
{
name = bottom;
position = "{167, 0}";
},
{
name = top;
position = "{250, 591}";
}
);
paths = (
{
closed = 1;
nodes = (
"165 0 LINE",
"167 17 LINE",
"168 0 LINE",
"378 0 LINE",
"324 306 LINE",
"460 591 LINE",
"58 591 LINE",
"-26 0 LINE"
);
},
{
closed = 1;
nodes = (
"72 573 LINE",
"227 573 LINE",
"208 436 LINE",
"255 573 LINE",
"433 573 LINE",
"306 306 LINE",
"321 213 OFFCURVE",
"339 110 OFFCURVE",
"356 18 CURVE",
"184 18 LINE",
"172 182 LINE",
"149 18 LINE",
"-7 18 LINE"
);
},
{
closed = 1;
nodes = (
"142 27 LINE",
"176 269 LINE",
"192 27 LINE",
"346 27 LINE",
"297 306 LINE",
"420 564 LINE",
"261 564 LINE",
"187 345 LINE",
"218 564 LINE",
"80 564 LINE",
"4 27 LINE"
);
}
);
};
layerId = "6544E2DB-1912-401E-9B5B-A29F161A5995";
paths = (
{
closed = 1;
nodes = (
"165 0 LINE",
"167 17 LINE",
"168 0 LINE",
"378 0 LINE",
"324 306 LINE",
"460 591 LINE",
"58 591 LINE",
"-26 0 LINE"
);
},
{
closed = 1;
nodes = (
"72 573 LINE",
"227 573 LINE",
"208 436 LINE",
"255 573 LINE",
"433 573 LINE",
"306 306 LINE",
"321 213 OFFCURVE",
"339 110 OFFCURVE",
"356 18 CURVE",
"184 18 LINE",
"172 182 LINE",
"149 18 LINE",
"-7 18 LINE"
);
},
{
closed = 1;
nodes = (
"142 27 LINE",
"176 269 LINE",
"192 27 LINE",
"346 27 LINE",
"297 306 LINE",
"420 564 LINE",
"261 564 LINE",
"187 345 LINE",
"218 564 LINE",
"80 564 LINE",
"4 27 LINE"
);
}
);
userData = {
assembly = "SVTCA[0]	/* SetFreedomAndProjectionVectorToAxis */\012PUSHW[ ]	/* 1 value pushed */\0124 \012MDAP[1]	/* MoveDirectAbsPt */\012PUSHW[ ]	/* 1 value pushed */\0127 \012MDAP[1]	/* MoveDirectAbsPt */\012IUP[0]	/* InterpolateUntPts */\012IUP[1]	/* InterpolateUntPts */";
};
width = 415;
}
);
leftKerningGroup = H;
leftMetricsKey = H;
note = K;
rightKerningGroup = K;
unicode = 004B;
},
{
glyphname = L;
lastChange = "2022-02-25 00:39:36 +0000";
layers = (
{
anchors = (
{
name = bottom;
position = "{100, 0}";
},
{
name = center;
position = "{283, 296}";
},
{
name = top;
position = "{194, 591}";
},
{
name = topright;
position = "{262, 441}";
}
);
background = {
anchors = (
{
name = bottom;
position = "{100, 0}";
},
{
name = center;
position = "{142, 296}";
},
{
name = top;
position = "{194, 591}";
},
{
name = topright;
position = "{262, 441}";
}
);
paths = (
{
closed = 1;
nodes = (
"241 0 LINE",
"262 153 LINE",
"173 153 LINE",
"235 591 LINE",
"58 591 LINE",
"-26 0 LINE"
);
},
{
closed = 1;
nodes = (
"72 573 LINE",
"216 573 LINE",
"154 134 LINE",
"243 134 LINE",
"227 18 LINE",
"-7 18 LINE"
);
},
{
closed = 1;
nodes = (
"220 27 LINE",
"234 125 LINE",
"145 125 LINE",
"207 564 LINE",
"79 564 LINE",
"3 27 LINE"
);
}
);
};
layerId = "6544E2DB-1912-401E-9B5B-A29F161A5995";
paths = (
{
closed = 1;
nodes = (
"241 0 LINE",
"262 153 LINE",
"173 153 LINE",
"235 591 LINE",
"58 591 LINE",
"-26 0 LINE"
);
},
{
closed = 1;
nodes = (
"72 573 LINE",
"216 573 LINE",
"154 134 LINE",
"243 134 LINE",
"227 18 LINE",
"-7 18 LINE"
);
},
{
closed = 1;
nodes = (
"220 27 LINE",
"234 125 LINE",
"145 125 LINE",
"207 564 LINE",
"79 564 LINE",
"3 27 LINE"
);
}
);
userData = {
assembly = "SVTCA[0]	/* SetFreedomAndProjectionVectorToAxis */\012PUSHW[ ]	/* 4 values pushed */\0123 3 4 4 \012CALL[ ]	/* CallFunction */\012IUP[0]	/* InterpolateUntPts */\012IUP[1]	/* InterpolateUntPts */";
};
width = 279;
}
);
leftKerningGroup = H;
leftMetricsKey = H;
note = L;
rightKerningGroup = L;
unicode = 004C;
},
{
glyphname = Lslash;
lastChange = "2022-02-25 00:24:45 +0000";
layers = (
{
background = {
paths = (
{
closed = 1;
nodes = (
"285 0 LINE",
"306 153 LINE",
"217 153 LINE",
"222 187 LINE",
"282 199 LINE",
"297 308 LINE",
"236 296 LINE",
"279 591 LINE",
"102 591 LINE",
"56 263 LINE",
"4 254 LINE",
"-12 144 LINE",
"41 153 LINE",
"19 0 LINE"
);
},
{
closed = 1;
nodes = (
"60 178 LINE",
"70 243 LINE",
"25 235 LINE",
"15 170 LINE"
);
},
{
closed = 1;
nodes = (
"60 171 LINE",
"5 160 LINE",
"17 241 LINE",
"54 248 LINE",
"71 251 LINE",
"116 573 LINE",
"260 573 LINE",
"218 279 LINE",
"234 282 LINE",
"278 291 LINE",
"267 210 LINE",
"224 201 LINE",
"208 198 LINE",
"198 134 LINE",
"287 134 LINE",
"271 18 LINE",
"38 18 LINE"
);
},
{
closed = 1;
nodes = (
"264 27 LINE",
"278 125 LINE",
"189 125 LINE",
"251 564 LINE",
"123 564 LINE",
"47 27 LINE"
);
},
{
closed = 1;
nodes = (
"259 216 LINE",
"269 281 LINE",
"218 270 LINE",
"209 205 LINE"
);
},
{
closed = 1;
nodes = (
"285 0 LINE",
"306 153 LINE",
"217 153 LINE",
"222 187 LINE",
"282 199 LINE",
"297 308 LINE",
"236 296 LINE",
"279 591 LINE",
"102 591 LINE",
"56 263 LINE",
"4 254 LINE",
"-12 144 LINE",
"41 153 LINE",
"19 0 LINE"
);
},
{
closed = 1;
nodes = (
"60 178 LINE",
"70 243 LINE",
"25 235 LINE",
"15 170 LINE"
);
},
{
closed = 1;
nodes = (
"60 171 LINE",
"5 160 LINE",
"17 241 LINE",
"54 248 LINE",
"71 251 LINE",
"116 573 LINE",
"260 573 LINE",
"218 279 LINE",
"234 282 LINE",
"278 291 LINE",
"267 210 LINE",
"224 201 LINE",
"208 198 LINE",
"198 134 LINE",
"287 134 LINE",
"271 18 LINE",
"38 18 LINE"
);
},
{
closed = 1;
nodes = (
"264 27 LINE",
"278 125 LINE",
"189 125 LINE",
"251 564 LINE",
"123 564 LINE",
"47 27 LINE"
);
},
{
closed = 1;
nodes = (
"259 216 LINE",
"269 281 LINE",
"218 270 LINE",
"209 205 LINE"
);
}
);
};
layerId = "6544E2DB-1912-401E-9B5B-A29F161A5995";
paths = (
{
closed = 1;
nodes = (
"264 27 LINE",
"278 125 LINE",
"189 125 LINE",
"200 203 LINE",
"259 216 LINE",
"269 281 LINE",
"209 268 LINE",
"251 564 LINE",
"123 564 LINE",
"78 245 LINE",
"25 235 LINE",
"15 170 LINE",
"69 180 LINE",
"47 27 LINE"
);
},
{
closed = 1;
nodes = (
"286.55 1 LINE",
"307.978 151 LINE",
"218.924 151 LINE",
"223.224 181.494 LINE",
"281.989 194.442 LINE",
"300.447 314.417 LINE",
"239.988 301.317 LINE",
"280.95 590 LINE",
"100.41 590 LINE",
"54.859 267.093 LINE",
"2.1 257.138 LINE",
"-16.265 137.768 LINE",
"38.108 147.837 LINE",
"16.994 1 LINE"
);
},
{
closed = 1;
nodes = (
"59.495 170.104 LINE",
"5.38 160.083 LINE",
"17.954 241.812 LINE",
"70.88 251.798 LINE",
"116.049 572 LINE",
"260.215 572 LINE",
"218.535 278.251 LINE",
"278.676 291.282 LINE",
"266.074 209.367 LINE",
"207.146 196.383 LINE",
"198.207 133 LINE",
"287.224 133 LINE",
"270.938 19 LINE",
"37.767 19 LINE"
);
}
);
width = 329;
}
);
leftKerningGroup = H;
note = Lslash;
rightKerningGroup = L;
unicode = 0141;
},
{
glyphname = M;
lastChange = "2022-02-25 00:39:36 +0000";
layers = (
{
background = {
paths = (
{
closed = 1;
nodes = (
"465 0 LINE",
"548 591 LINE",
"318 591 LINE",
"287 483 LINE",
"288 591 LINE",
"58 591 LINE",
"-26 0 LINE"
);
},
{
closed = 1;
nodes = (
"73 573 LINE",
"270 573 LINE",
"270 357 LINE",
"331 573 LINE",
"527 573 LINE",
"449 18 LINE",
"308 18 LINE",
"341 255 LINE",
"278 18 LINE",
"167 18 LINE",
"170 255 LINE",
"137 18 LINE",
"-6 18 LINE"
);
},
{
closed = 1;
nodes = (
"129 27 LINE",
"182 401 LINE",
"176 27 LINE",
"270 27 LINE",
"371 401 LINE",
"318 27 LINE",
"442 27 LINE",
"518 564 LINE",
"338 564 LINE",
"260 290 LINE",
"261 564 LINE",
"81 564 LINE",
"5 27 LINE"
);
}
);
};
layerId = "6544E2DB-1912-401E-9B5B-A29F161A5995";
paths = (
{
closed = 1;
nodes = (
"465 0 LINE",
"548 591 LINE",
"318 591 LINE",
"287 483 LINE",
"288 591 LINE",
"58 591 LINE",
"-26 0 LINE"
);
},
{
closed = 1;
nodes = (
"73 573 LINE",
"270 573 LINE",
"270 357 LINE",
"331 573 LINE",
"527 573 LINE",
"449 18 LINE",
"308 18 LINE",
"341 255 LINE",
"278 18 LINE",
"167 18 LINE",
"170 255 LINE",
"137 18 LINE",
"-6 18 LINE"
);
},
{
closed = 1;
nodes = (
"129 27 LINE",
"182 401 LINE",
"176 27 LINE",
"270 27 LINE",
"371 401 LINE",
"318 27 LINE",
"442 27 LINE",
"518 564 LINE",
"338 564 LINE",
"260 290 LINE",
"261 564 LINE",
"81 564 LINE",
"5 27 LINE"
);
}
);
userData = {
assembly = "SVTCA[0]	/* SetFreedomAndProjectionVectorToAxis */\012PUSHW[ ]	/* 1 value pushed */\0121 \012MDAP[1]	/* MoveDirectAbsPt */\012PUSHW[ ]	/* 1 value pushed */\0128 \012MDAP[1]	/* MoveDirectAbsPt */\012PUSHW[ ]	/* 1 value pushed */\01211 \012MDAP[1]	/* MoveDirectAbsPt */\012IUP[0]	/* InterpolateUntPts */\012IUP[1]	/* InterpolateUntPts */";
};
width = 509;
}
);
leftKerningGroup = H;
leftMetricsKey = H;
note = M;
rightKerningGroup = H;
rightMetricsKey = H;
unicode = 004D;
},
{
glyphname = N;
lastChange = "2022-02-25 00:39:36 +0000";
layers = (
{
anchors = (
{
name = bottom;
position = "{150, 0}";
},
{
name = top;
position = "{233, 591}";
}
);
background = {
anchors = (
{
name = bottom;
position = "{150, 0}";
},
{
name = top;
position = "{233, 591}";
}
);
paths = (
{
closed = 1;
nodes = (
"145 0 LINE",
"153 63 LINE",
"162 0 LINE",
"324 0 LINE",
"407 591 LINE",
"238 591 LINE",
"229 527 LINE",
"221 591 LINE",
"58 591 LINE",
"-26 0 LINE"
);
},
{
closed = 1;
nodes = (
"72 573 LINE",
"206 573 LINE",
"225 384 LINE",
"252 573 LINE",
"387 573 LINE",
"309 18 LINE",
"177 18 LINE",
"153 184 LINE",
"130 18 LINE",
"-7 18 LINE"
);
},
{
closed = 1;
nodes = (
"123 27 LINE",
"155 250 LINE",
"185 27 LINE",
"302 27 LINE",
"378 564 LINE",
"259 564 LINE",
"224 314 LINE",
"198 564 LINE",
"80 564 LINE",
"4 27 LINE"
);
}
);
};
layerId = "6544E2DB-1912-401E-9B5B-A29F161A5995";
paths = (
{
closed = 1;
nodes = (
"145 0 LINE",
"153 63 LINE",
"162 0 LINE",
"324 0 LINE",
"407 591 LINE",
"238 591 LINE",
"229 527 LINE",
"221 591 LINE",
"58 591 LINE",
"-26 0 LINE"
);
},
{
closed = 1;
nodes = (
"72 573 LINE",
"206 573 LINE",
"225 384 LINE",
"252 573 LINE",
"387 573 LINE",
"309 18 LINE",
"177 18 LINE",
"153 184 LINE",
"130 18 LINE",
"-7 18 LINE"
);
},
{
closed = 1;
nodes = (
"123 27 LINE",
"155 250 LINE",
"185 27 LINE",
"302 27 LINE",
"378 564 LINE",
"259 564 LINE",
"224 314 LINE",
"198 564 LINE",
"80 564 LINE",
"4 27 LINE"
);
}
);
userData = {
assembly = "SVTCA[0]	/* SetFreedomAndProjectionVectorToAxis */\012PUSHW[ ]	/* 1 value pushed */\0121 \012MDAP[1]	/* MoveDirectAbsPt */\012PUSHW[ ]	/* 1 value pushed */\0128 \012MDAP[1]	/* MoveDirectAbsPt */\012IUP[0]	/* InterpolateUntPts */\012IUP[1]	/* InterpolateUntPts */";
};
width = 368;
}
);
leftKerningGroup = H;
leftMetricsKey = H;
note = N;
rightKerningGroup = H;
rightMetricsKey = H;
unicode = 004E;
},
{
glyphname = Eng;
lastChange = "2021-12-07 23:36:50 +0000";
layers = (
{
background = {
paths = (
{
closed = 1;
nodes = (
"241 -233 OFFCURVE",
"295 -193 OFFCURVE",
"316 -56 CURVE SMOOTH",
"409 608 LINE",
"240 608 LINE",
"231 542 LINE",
"223 608 LINE",
"60 608 LINE",
"-26 0 LINE",
"137 0 LINE",
"128 -59 LINE SMOOTH",
"125 -74 OFFCURVE",
"124 -76 OFFCURVE",
"113 -76 CURVE SMOOTH",
"62 -76 LINE",
"40 -230 LINE",
"75 -233 OFFCURVE",
"103 -233 OFFCURVE",
"112 -233 CURVE SMOOTH"
);
},
{
closed = 1;
nodes = (
"79 -215 OFFCURVE",
"69 -214 OFFCURVE",
"61 -213 CURVE",
"77 -94 LINE",
"110 -94 LINE SMOOTH",
"135 -94 OFFCURVE",
"142 -88 OFFCURVE",
"146 -59 CURVE SMOOTH",
"168 94 LINE",
"154 190 LINE",
"130 19 LINE",
"-7 19 LINE",
"74 589 LINE",
"208 589 LINE",
"227 395 LINE",
"254 589 LINE",
"389 589 LINE",
"299 -56 LINE SMOOTH",
"281 -177 OFFCURVE",
"231 -215 OFFCURVE",
"114 -215 CURVE SMOOTH",
"90 -215 LINE SMOOTH"
);
},
{
closed = 1;
nodes = (
"116 -205 LINE SMOOTH",
"227 -205 OFFCURVE",
"275 -172 OFFCURVE",
"291 -56 CURVE SMOOTH",
"380 580 LINE",
"261 580 LINE",
"225 323 LINE",
"200 580 LINE",
"82 580 LINE",
"4 28 LINE",
"123 28 LINE",
"156 257 LINE",
"176 97 LINE",
"154 -59 LINE SMOOTH",
"149 -95 OFFCURVE",
"141 -104 OFFCURVE",
"109 -104 CURVE SMOOTH",
"84 -104 LINE",
"70 -204 LINE",
"75 -205 OFFCURVE",
"82 -205 OFFCURVE",
"93 -205 CURVE SMOOTH"
);
}
);
};
layerId = "6544E2DB-1912-401E-9B5B-A29F161A5995";
paths = (
{
closed = 1;
nodes = (
"241 -233 OFFCURVE",
"295 -193 OFFCURVE",
"316 -56 CURVE SMOOTH",
"409 608 LINE",
"240 608 LINE",
"231 542 LINE",
"223 608 LINE",
"60 608 LINE",
"-26 0 LINE",
"137 0 LINE",
"128 -59 LINE SMOOTH",
"125 -74 OFFCURVE",
"124 -76 OFFCURVE",
"113 -76 CURVE SMOOTH",
"62 -76 LINE",
"40 -230 LINE",
"75 -233 OFFCURVE",
"103 -233 OFFCURVE",
"112 -233 CURVE SMOOTH"
);
},
{
closed = 1;
nodes = (
"79 -215 OFFCURVE",
"69 -214 OFFCURVE",
"61 -213 CURVE",
"77 -94 LINE",
"110 -94 LINE SMOOTH",
"135 -94 OFFCURVE",
"142 -88 OFFCURVE",
"146 -59 CURVE SMOOTH",
"168 94 LINE",
"154 190 LINE",
"130 19 LINE",
"-7 19 LINE",
"74 589 LINE",
"208 589 LINE",
"227 395 LINE",
"254 589 LINE",
"389 589 LINE",
"299 -56 LINE SMOOTH",
"281 -177 OFFCURVE",
"231 -215 OFFCURVE",
"114 -215 CURVE SMOOTH",
"90 -215 LINE SMOOTH"
);
},
{
closed = 1;
nodes = (
"116 -205 LINE SMOOTH",
"227 -205 OFFCURVE",
"275 -172 OFFCURVE",
"291 -56 CURVE SMOOTH",
"380 580 LINE",
"261 580 LINE",
"225 323 LINE",
"200 580 LINE",
"82 580 LINE",
"4 28 LINE",
"123 28 LINE",
"156 257 LINE",
"176 97 LINE",
"154 -59 LINE SMOOTH",
"149 -95 OFFCURVE",
"141 -104 OFFCURVE",
"109 -104 CURVE SMOOTH",
"84 -104 LINE",
"70 -204 LINE",
"75 -205 OFFCURVE",
"82 -205 OFFCURVE",
"93 -205 CURVE SMOOTH"
);
}
);
userData = {
assembly = "PUSHW[ ]	/* 4 values pushed */\01250 6 8 4 \012CALL[ ]	/* CallFunction */\012PUSHW[ ]	/* 4 values pushed */\01214 6 40 4 \012CALL[ ]	/* CallFunction */\012PUSHW[ ]	/* 3 values pushed */\0126 8 14 \012SRP1[ ]	/* SetRefPoint1 */\012SRP2[ ]	/* SetRefPoint2 */\012IP[ ]	/* InterpolatePts */\012PUSHW[ ]	/* 3 values pushed */\01211 40 14 \012SRP1[ ]	/* SetRefPoint1 */\012SRP2[ ]	/* SetRefPoint2 */\012IP[ ]	/* InterpolatePts */\012PUSHW[ ]	/* 3 values pushed */\01234 40 14 \012SRP1[ ]	/* SetRefPoint1 */\012SRP2[ ]	/* SetRefPoint2 */\012IP[ ]	/* InterpolatePts */\012PUSHW[ ]	/* 1 value pushed */\01250 \012SRP0[ ]	/* SetRefPoint0 */\012PUSHW[ ]	/* 1 value pushed */\01238 \012MDRP[10000]	/* MoveDirectRelPt */\012PUSHW[ ]	/* 1 value pushed */\01238 \012MDAP[1]	/* MoveDirectAbsPt */\012PUSHW[ ]	/* 1 value pushed */\0128 \012SRP0[ ]	/* SetRefPoint0 */\012PUSHW[ ]	/* 2 values pushed */\01251 6 \012MIRP[10100]	/* MoveIndirectRelPt */\012PUSHW[ ]	/* 3 values pushed */\01255 40 14 \012SRP1[ ]	/* SetRefPoint1 */\012SRP2[ ]	/* SetRefPoint2 */\012IP[ ]	/* InterpolatePts */\012SVTCA[0]	/* SetFreedomAndProjectionVectorToAxis */\012PUSHW[ ]	/* 1 value pushed */\0127 \012MDAP[1]	/* MoveDirectAbsPt */\012IUP[0]	/* InterpolateUntPts */\012IUP[1]	/* InterpolateUntPts */";
};
width = 368;
}
);
leftKerningGroup = H;
leftMetricsKey = H;
note = Eng;
rightKerningGroup = H;
rightMetricsKey = H;
unicode = 014A;
},
{
glyphname = O;
lastChange = "2022-02-25 00:39:36 +0000";
layers = (
{
anchors = (
{
name = bottom;
position = "{150, 0}";
},
{
name = center;
position = "{192, 296}";
},
{
name = ogonek;
position = "{207, 0}";
},
{
name = top;
position = "{238, 591}";
},
{
name = topleft;
position = "{54, 591}";
},
{
name = topright;
position = "{307, 591}";
}
);
background = {
anchors = (
{
name = bottom;
position = "{150, 0}";
},
{
name = center;
position = "{192, 296}";
},
{
name = ogonek;
position = "{207, 0}";
},
{
name = top;
position = "{238, 591}";
},
{
name = topleft;
position = "{54, 591}";
},
{
name = topright;
position = "{307, 591}";
}
);
paths = (
{
closed = 1;
nodes = (
"273 -11 OFFCURVE",
"333 29 OFFCURVE",
"355 186 CURVE SMOOTH",
"392 451 LINE SMOOTH",
"407 560 OFFCURVE",
"347 601 OFFCURVE",
"238 601 CURVE SMOOTH",
"128 601 OFFCURVE",
"50 559 OFFCURVE",
"35 451 CURVE SMOOTH",
"-2 185 LINE SMOOTH",
"-24 29 OFFCURVE",
"30 -11 OFFCURVE",
"152 -11 CURVE SMOOTH"
);
},
{
closed = 1;
nodes = (
"42 7 OFFCURVE",
"-5 44 OFFCURVE",
"15 185 CURVE SMOOTH",
"52 451 LINE SMOOTH",
"65 547 OFFCURVE",
"135 583 OFFCURVE",
"235 583 CURVE SMOOTH",
"334 583 OFFCURVE",
"388 547 OFFCURVE",
"375 451 CURVE SMOOTH",
"338 186 LINE SMOOTH",
"318 44 OFFCURVE",
"263 7 OFFCURVE",
"154 7 CURVE SMOOTH"
);
},
{
closed = 1;
nodes = (
"260 16 OFFCURVE",
"310 50 OFFCURVE",
"329 186 CURVE SMOOTH",
"366 451 LINE SMOOTH",
"378 540 OFFCURVE",
"327 574 OFFCURVE",
"234 574 CURVE SMOOTH",
"139 574 OFFCURVE",
"74 542 OFFCURVE",
"61 451 CURVE SMOOTH",
"24 185 LINE SMOOTH",
"5 51 OFFCURVE",
"51 16 OFFCURVE",
"156 16 CURVE SMOOTH"
);
},
{
closed = 1;
nodes = (
"163 100 OFFCURVE",
"160 102 OFFCURVE",
"158 106 CURVE SMOOTH",
"156 110 OFFCURVE",
"156 117 OFFCURVE",
"157 127 CURVE SMOOTH",
"204 458 LINE SMOOTH",
"206 469 OFFCURVE",
"208 476 OFFCURVE",
"211 480 CURVE SMOOTH",
"214 483 OFFCURVE",
"217 485 OFFCURVE",
"222 485 CURVE SMOOTH",
"225 485 OFFCURVE",
"228 483 OFFCURVE",
"230 480 CURVE SMOOTH",
"232 476 OFFCURVE",
"233 469 OFFCURVE",
"231 458 CURVE SMOOTH",
"184 127 LINE SMOOTH",
"183 117 OFFCURVE",
"181 110 OFFCURVE",
"178 106 CURVE SMOOTH",
"175 102 OFFCURVE",
"171 100 OFFCURVE",
"168 100 CURVE SMOOTH"
);
},
{
closed = 1;
nodes = (
"170 109 OFFCURVE",
"172 110 OFFCURVE",
"173 113 CURVE SMOOTH",
"174 116 OFFCURVE",
"175 120 OFFCURVE",
"176 127 CURVE SMOOTH",
"223 458 LINE SMOOTH",
"224 465 OFFCURVE",
"225 470 OFFCURVE",
"224 473 CURVE SMOOTH",
"223 475 OFFCURVE",
"221 476 OFFCURVE",
"220 476 CURVE SMOOTH",
"218 476 OFFCURVE",
"217 475 OFFCURVE",
"216 473 CURVE SMOOTH",
"215 470 OFFCURVE",
"213 465 OFFCURVE",
"212 458 CURVE SMOOTH",
"165 127 LINE",
"164 115 OFFCURVE",
"166 109 OFFCURVE",
"169 109 CURVE SMOOTH"
);
}
);
};
layerId = "6544E2DB-1912-401E-9B5B-A29F161A5995";
paths = (
{
closed = 1;
nodes = (
"273 -11 OFFCURVE",
"333 29 OFFCURVE",
"355 186 CURVE SMOOTH",
"392 451 LINE SMOOTH",
"407 560 OFFCURVE",
"347 601 OFFCURVE",
"238 601 CURVE SMOOTH",
"128 601 OFFCURVE",
"50 559 OFFCURVE",
"35 451 CURVE SMOOTH",
"-2 185 LINE SMOOTH",
"-24 29 OFFCURVE",
"30 -11 OFFCURVE",
"152 -11 CURVE SMOOTH"
);
},
{
closed = 1;
nodes = (
"42 7 OFFCURVE",
"-5 44 OFFCURVE",
"15 185 CURVE SMOOTH",
"52 451 LINE SMOOTH",
"65 547 OFFCURVE",
"135 583 OFFCURVE",
"235 583 CURVE SMOOTH",
"334 583 OFFCURVE",
"388 547 OFFCURVE",
"375 451 CURVE SMOOTH",
"338 186 LINE SMOOTH",
"318 44 OFFCURVE",
"263 7 OFFCURVE",
"154 7 CURVE SMOOTH"
);
},
{
closed = 1;
nodes = (
"260 16 OFFCURVE",
"310 50 OFFCURVE",
"329 186 CURVE SMOOTH",
"366 451 LINE SMOOTH",
"378 540 OFFCURVE",
"327 574 OFFCURVE",
"234 574 CURVE SMOOTH",
"139 574 OFFCURVE",
"74 542 OFFCURVE",
"61 451 CURVE SMOOTH",
"24 185 LINE SMOOTH",
"5 51 OFFCURVE",
"51 16 OFFCURVE",
"156 16 CURVE SMOOTH"
);
},
{
closed = 1;
nodes = (
"163 100 OFFCURVE",
"160 102 OFFCURVE",
"158 106 CURVE SMOOTH",
"156 110 OFFCURVE",
"156 117 OFFCURVE",
"157 127 CURVE SMOOTH",
"204 458 LINE SMOOTH",
"206 469 OFFCURVE",
"208 476 OFFCURVE",
"211 480 CURVE SMOOTH",
"214 483 OFFCURVE",
"217 485 OFFCURVE",
"222 485 CURVE SMOOTH",
"225 485 OFFCURVE",
"228 483 OFFCURVE",
"230 480 CURVE SMOOTH",
"232 476 OFFCURVE",
"233 469 OFFCURVE",
"231 458 CURVE SMOOTH",
"184 127 LINE SMOOTH",
"183 117 OFFCURVE",
"181 110 OFFCURVE",
"178 106 CURVE SMOOTH",
"175 102 OFFCURVE",
"171 100 OFFCURVE",
"168 100 CURVE SMOOTH"
);
},
{
closed = 1;
nodes = (
"170 109 OFFCURVE",
"172 110 OFFCURVE",
"173 113 CURVE SMOOTH",
"174 116 OFFCURVE",
"175 120 OFFCURVE",
"176 127 CURVE SMOOTH",
"223 458 LINE SMOOTH",
"224 465 OFFCURVE",
"225 470 OFFCURVE",
"224 473 CURVE SMOOTH",
"223 475 OFFCURVE",
"221 476 OFFCURVE",
"220 476 CURVE SMOOTH",
"218 476 OFFCURVE",
"217 475 OFFCURVE",
"216 473 CURVE SMOOTH",
"215 470 OFFCURVE",
"213 465 OFFCURVE",
"212 458 CURVE SMOOTH",
"165 127 LINE",
"164 115 OFFCURVE",
"166 109 OFFCURVE",
"169 109 CURVE SMOOTH"
);
}
);
width = 370;
}
);
leftKerningGroup = O;
note = O;
rightKerningGroup = O;
unicode = 004F;
},
{
glyphname = Ohookabove;
lastChange = "2022-01-14 23:33:33 +0000";
layers = (
{
background = {
components = (
{
name = O;
transform = "{1, 0, 0, 1, -6, 0}";
},
{
name = hookabovecomb.case;
transform = "{1, 0, 0, 1, 109, 0}";
}
);
paths = (
{
closed = 1;
nodes = (
"258 -12 OFFCURVE",
"337 14 OFFCURVE",
"360 174 CURVE SMOOTH",
"401 465 LINE SMOOTH",
"406 500 OFFCURVE",
"400 527 OFFCURVE",
"386 547 CURVE",
"419 564 OFFCURVE",
"452 594 OFFCURVE",
"456 638 CURVE SMOOTH",
"458 658 LINE",
"358 658 LINE",
"356 638 LINE SMOOTH",
"353 613 OFFCURVE",
"341 597 OFFCURVE",
"321 593 CURVE",
"299 598 OFFCURVE",
"274 600 OFFCURVE",
"246 600 CURVE SMOOTH",
"137 600 OFFCURVE",
"59 564 OFFCURVE",
"45 465 CURVE SMOOTH",
"4 173 LINE SMOOTH",
"-18 14 OFFCURVE",
"51 -12 OFFCURVE",
"160 -12 CURVE SMOOTH"
);
},
{
closed = 1;
nodes = (
"163 80 OFFCURVE",
"148 87 OFFCURVE",
"151 110 CURVE SMOOTH",
"202 473 LINE SMOOTH",
"205 496 OFFCURVE",
"211 503 OFFCURVE",
"221 503 CURVE SMOOTH",
"230 503 OFFCURVE",
"246 496 OFFCURVE",
"243 473 CURVE SMOOTH",
"203 110 LINE SMOOTH",
"200 87 OFFCURVE",
"182 80 OFFCURVE",
"173 80 CURVE SMOOTH"
);
}
);
};
components = (
{
name = O;
},
{
name = hookabovecomb.case;
transform = "{1, 0, 0, 1, 106, 0}";
}
);
layerId = "6544E2DB-1912-401E-9B5B-A29F161A5995";
width = 370;
}
);
leftKerningGroup = O;
rightKerningGroup = O;
unicode = 1ECE;
},
{
color = 3;
glyphname = Ohorn;
lastChange = "2022-02-25 00:37:42 +0000";
layers = (
{
anchors = (
{
name = bottom;
position = "{169, 0}";
},
{
name = center;
position = "{211, 296}";
},
{
name = ogonek;
position = "{234, 0}";
},
{
name = top;
position = "{252, 591}";
},
{
name = topleft;
position = "{68, 591}";
},
{
name = topright;
position = "{485, 658}";
}
);
background = {
paths = (
{
closed = 1;
nodes = (
"273 -11 OFFCURVE",
"333 29 OFFCURVE",
"355 186 CURVE SMOOTH",
"392 451 LINE SMOOTH",
"407 560 OFFCURVE",
"347 601 OFFCURVE",
"238 601 CURVE SMOOTH",
"128 601 OFFCURVE",
"50 559 OFFCURVE",
"35 451 CURVE SMOOTH",
"-2 185 LINE SMOOTH",
"-24 29 OFFCURVE",
"30 -11 OFFCURVE",
"152 -11 CURVE SMOOTH"
);
},
{
closed = 1;
nodes = (
"42 7 OFFCURVE",
"-5 44 OFFCURVE",
"15 185 CURVE SMOOTH",
"52 451 LINE SMOOTH",
"65 547 OFFCURVE",
"135 583 OFFCURVE",
"235 583 CURVE SMOOTH",
"334 583 OFFCURVE",
"388 547 OFFCURVE",
"375 451 CURVE SMOOTH",
"338 186 LINE SMOOTH",
"318 44 OFFCURVE",
"263 7 OFFCURVE",
"154 7 CURVE SMOOTH"
);
},
{
closed = 1;
nodes = (
"260 16 OFFCURVE",
"310 50 OFFCURVE",
"329 186 CURVE SMOOTH",
"366 451 LINE SMOOTH",
"378 540 OFFCURVE",
"327 574 OFFCURVE",
"234 574 CURVE SMOOTH",
"139 574 OFFCURVE",
"74 542 OFFCURVE",
"61 451 CURVE SMOOTH",
"24 185 LINE SMOOTH",
"5 51 OFFCURVE",
"51 16 OFFCURVE",
"156 16 CURVE SMOOTH"
);
},
{
closed = 1;
nodes = (
"163 100 OFFCURVE",
"160 102 OFFCURVE",
"158 106 CURVE SMOOTH",
"156 110 OFFCURVE",
"156 117 OFFCURVE",
"157 127 CURVE SMOOTH",
"204 458 LINE SMOOTH",
"206 469 OFFCURVE",
"208 476 OFFCURVE",
"211 480 CURVE SMOOTH",
"214 483 OFFCURVE",
"217 485 OFFCURVE",
"222 485 CURVE SMOOTH",
"225 485 OFFCURVE",
"228 483 OFFCURVE",
"230 480 CURVE SMOOTH",
"232 476 OFFCURVE",
"233 469 OFFCURVE",
"231 458 CURVE SMOOTH",
"184 127 LINE SMOOTH",
"183 117 OFFCURVE",
"181 110 OFFCURVE",
"178 106 CURVE SMOOTH",
"175 102 OFFCURVE",
"171 100 OFFCURVE",
"168 100 CURVE SMOOTH"
);
},
{
closed = 1;
nodes = (
"170 109 OFFCURVE",
"172 110 OFFCURVE",
"173 113 CURVE SMOOTH",
"174 116 OFFCURVE",
"175 120 OFFCURVE",
"176 127 CURVE SMOOTH",
"223 458 LINE SMOOTH",
"224 465 OFFCURVE",
"225 470 OFFCURVE",
"224 473 CURVE SMOOTH",
"223 475 OFFCURVE",
"221 476 OFFCURVE",
"220 476 CURVE SMOOTH",
"218 476 OFFCURVE",
"217 475 OFFCURVE",
"216 473 CURVE SMOOTH",
"215 470 OFFCURVE",
"213 465 OFFCURVE",
"212 458 CURVE SMOOTH",
"165 127 LINE",
"164 115 OFFCURVE",
"166 109 OFFCURVE",
"169 109 CURVE SMOOTH"
);
},
{
closed = 1;
nodes = (
"417 513 OFFCURVE",
"449 538 OFFCURVE",
"460 621 CURVE SMOOTH",
"463 639 LINE",
"372 639 LINE",
"369 621 LINE SMOOTH",
"365 588 OFFCURVE",
"351 568 OFFCURVE",
"327 568 CURVE SMOOTH",
"304 568 LINE",
"333 513 LINE"
);
}
);
};
layerId = "6544E2DB-1912-401E-9B5B-A29F161A5995";
paths = (
{
closed = 1;
nodes = (
"260 15 OFFCURVE",
"309 50 OFFCURVE",
"328 186 CURVE SMOOTH",
"366 452 LINE SMOOTH",
"369 476 OFFCURVE",
"368 496 OFFCURVE",
"363 512 CURVE",
"428 517 OFFCURVE",
"454 545 OFFCURVE",
"464 619 CURVE SMOOTH",
"467 637 LINE",
"376 637 LINE",
"373 619 LINE SMOOTH",
"369 586 OFFCURVE",
"355 566 OFFCURVE",
"331 566 CURVE SMOOTH",
"308 566 LINE",
"295 570 OFFCURVE",
"263 576 OFFCURVE",
"234 576 CURVE SMOOTH",
"139 576 OFFCURVE",
"73 542 OFFCURVE",
"61 452 CURVE SMOOTH",
"23 185 LINE SMOOTH",
"4 49 OFFCURVE",
"49 15 OFFCURVE",
"155 15 CURVE SMOOTH"
);
},
{
closed = 1;
nodes = (
"156 100 OFFCURVE",
"154 108 OFFCURVE",
"157 125 CURVE SMOOTH",
"204 461 LINE SMOOTH",
"207 480 OFFCURVE",
"211 486 OFFCURVE",
"221 486 CURVE SMOOTH",
"231 486 OFFCURVE",
"234 480 OFFCURVE",
"231 461 CURVE SMOOTH",
"184 125 LINE SMOOTH",
"181 104 OFFCURVE",
"176 100 OFFCURVE",
"167 100 CURVE SMOOTH"
);
},
{
closed = 1;
nodes = (
"279 -11 OFFCURVE",
"334 43 OFFCURVE",
"354 186 CURVE SMOOTH",
"392 452 LINE SMOOTH",
"394 466 OFFCURVE",
"394 479 OFFCURVE",
"394 491 CURVE",
"451 505 OFFCURVE",
"480 544 OFFCURVE",
"490 619 CURVE SMOOTH",
"496 663 LINE",
"353 663 LINE",
"347 619 LINE SMOOTH",
"344 597 OFFCURVE",
"340 592 OFFCURVE",
"334 592 CURVE SMOOTH",
"315 592 LINE",
"294 599 OFFCURVE",
"268 602 OFFCURVE",
"238 602 CURVE SMOOTH",
"119 602 OFFCURVE",
"49 550 OFFCURVE",
"35 452 CURVE SMOOTH",
"-3 185 LINE SMOOTH",
"-23 45 OFFCURVE",
"21 -11 OFFCURVE",
"152 -11 CURVE SMOOTH"
);
},
{
closed = 1;
nodes = (
"34 7 OFFCURVE",
"-3 54 OFFCURVE",
"15 185 CURVE SMOOTH",
"53 452 LINE SMOOTH",
"65 540 OFFCURVE",
"127 584 OFFCURVE",
"235 584 CURVE SMOOTH",
"267 584 OFFCURVE",
"292 578 OFFCURVE",
"310 574 CURVE",
"332 574 LINE SMOOTH",
"350 574 OFFCURVE",
"361 588 OFFCURVE",
"365 619 CURVE SMOOTH",
"369 645 LINE",
"476 645 LINE",
"472 619 LINE SMOOTH",
"462 545 OFFCURVE",
"435 513 OFFCURVE",
"373 505 CURVE",
"376 490 OFFCURVE",
"377 472 OFFCURVE",
"374 452 CURVE SMOOTH",
"336 186 LINE SMOOTH",
"318 53 OFFCURVE",
"271 7 OFFCURVE",
"154 7 CURVE SMOOTH"
);
},
{
closed = 1;
nodes = (
"172 108 OFFCURVE",
"173 109 OFFCURVE",
"176 125 CURVE SMOOTH",
"223 461 LINE SMOOTH",
"225 477 OFFCURVE",
"224 478 OFFCURVE",
"220 478 CURVE SMOOTH",
"216 478 OFFCURVE",
"214 476 OFFCURVE",
"212 461 CURVE SMOOTH",
"165 125 LINE SMOOTH",
"163 110 OFFCURVE",
"164 108 OFFCURVE",
"168 108 CURVE SMOOTH"
);
}
);
width = 370;
}
);
leftKerningGroup = O;
rightKerningGroup = O;
unicode = 01A0;
},
{
color = 8;
glyphname = Oogonek;
lastChange = "2022-01-15 01:05:12 +0000";
layers = (
{
background = {
anchors = (
{
name = bottom;
position = "{169, 0}";
},
{
name = center;
position = "{211, 296}";
},
{
name = ogonek;
position = "{234, 0}";
},
{
name = top;
position = "{252, 591}";
},
{
name = topleft;
position = "{68, 591}";
},
{
name = topright;
position = "{292, 591}";
}
);
components = (
{
name = O;
},
{
name = ogonekcomb;
transform = "{1, 0, 0, 1, 93, -1}";
}
);
};
layerId = "6544E2DB-1912-401E-9B5B-A29F161A5995";
paths = (
{
closed = 1;
nodes = (
"179 -156 OFFCURVE",
"215 -143 OFFCURVE",
"233 -124 CURVE",
"224 -50 LINE",
"208 -57 OFFCURVE",
"194 -64 OFFCURVE",
"186 -64 CURVE SMOOTH",
"179 -64 OFFCURVE",
"176 -61 OFFCURVE",
"177 -56 CURVE SMOOTH",
"179 -40 OFFCURVE",
"187 -20 OFFCURVE",
"197 -9 CURVE",
"291 4 OFFCURVE",
"337 61 OFFCURVE",
"355 186 CURVE SMOOTH",
"392 452 LINE SMOOTH",
"406 552 OFFCURVE",
"354 602 OFFCURVE",
"238 602 CURVE SMOOTH",
"119 602 OFFCURVE",
"49 550 OFFCURVE",
"35 452 CURVE SMOOTH",
"-2 185 LINE SMOOTH",
"-19 70 OFFCURVE",
"9 12 OFFCURVE",
"91 -5 CURVE",
"75 -25 OFFCURVE",
"62 -48 OFFCURVE",
"58 -74 CURVE SMOOTH",
"52 -122 OFFCURVE",
"87 -156 OFFCURVE",
"140 -156 CURVE SMOOTH"
);
},
{
closed = 1;
nodes = (
"98 -138 OFFCURVE",
"71 -112 OFFCURVE",
"76 -74 CURVE SMOOTH",
"81 -40 OFFCURVE",
"103 -13 OFFCURVE",
"126 8 CURVE",
"29 16 OFFCURVE",
"-1 66 OFFCURVE",
"16 185 CURVE SMOOTH",
"53 452 LINE SMOOTH",
"66 540 OFFCURVE",
"127 584 OFFCURVE",
"236 584 CURVE SMOOTH",
"342 584 OFFCURVE",
"387 542 OFFCURVE",
"374 452 CURVE SMOOTH",
"337 186 LINE SMOOTH",
"320 67 OFFCURVE",
"280 18 OFFCURVE",
"191 8 CURVE",
"174 -11 OFFCURVE",
"162 -34 OFFCURVE",
"159 -56 CURVE SMOOTH",
"157 -72 OFFCURVE",
"164 -81 OFFCURVE",
"180 -81 CURVE SMOOTH",
"192 -81 OFFCURVE",
"201 -77 OFFCURVE",
"208 -73 CURVE",
"214 -120 LINE",
"202 -130 OFFCURVE",
"169 -138 OFFCURVE",
"142 -138 CURVE SMOOTH"
);
},
{
closed = 1;
nodes = (
"172 -130 OFFCURVE",
"198 -122 OFFCURVE",
"205 -117 CURVE",
"202 -85 LINE",
"198 -86 OFFCURVE",
"190 -89 OFFCURVE",
"179 -89 CURVE SMOOTH",
"162 -89 OFFCURVE",
"147 -80 OFFCURVE",
"151 -56 CURVE SMOOTH",
"154 -31 OFFCURVE",
"169 -5 OFFCURVE",
"189 16 CURVE",
"271 24 OFFCURVE",
"312 65 OFFCURVE",
"329 186 CURVE SMOOTH",
"366 452 LINE SMOOTH",
"379 544 OFFCURVE",
"328 576 OFFCURVE",
"235 576 CURVE SMOOTH",
"140 576 OFFCURVE",
"74 542 OFFCURVE",
"61 452 CURVE SMOOTH",
"24 185 LINE SMOOTH",
"5 54 OFFCURVE",
"47 18 OFFCURVE",
"145 15 CURVE",
"119 -8 OFFCURVE",
"90 -36 OFFCURVE",
"84 -74 CURVE SMOOTH",
"80 -107 OFFCURVE",
"103 -130 OFFCURVE",
"143 -130 CURVE SMOOTH"
);
},
{
closed = 1;
nodes = (
"157 100 OFFCURVE",
"155 108 OFFCURVE",
"157 125 CURVE SMOOTH",
"204 461 LINE SMOOTH",
"207 480 OFFCURVE",
"212 486 OFFCURVE",
"222 486 CURVE SMOOTH",
"232 486 OFFCURVE",
"234 480 OFFCURVE",
"231 461 CURVE SMOOTH",
"184 125 LINE SMOOTH",
"181 104 OFFCURVE",
"177 100 OFFCURVE",
"168 100 CURVE SMOOTH"
);
},
{
closed = 1;
nodes = (
"173 108 OFFCURVE",
"174 109 OFFCURVE",
"176 125 CURVE SMOOTH",
"223 461 LINE SMOOTH",
"226 477 OFFCURVE",
"225 478 OFFCURVE",
"221 478 CURVE SMOOTH",
"217 478 OFFCURVE",
"215 476 OFFCURVE",
"212 461 CURVE SMOOTH",
"165 125 LINE SMOOTH",
"163 110 OFFCURVE",
"165 108 OFFCURVE",
"169 108 CURVE SMOOTH"
);
}
);
width = 370;
}
);
leftKerningGroup = O;
rightKerningGroup = O;
unicode = 01EA;
},
{
color = 3;
glyphname = Oslash;
lastChange = "2022-02-25 00:38:52 +0000";
layers = (
{
anchors = (
{
name = bottom;
position = "{189, 0}";
},
{
name = top;
position = "{272, 591}";
}
);
background = {
paths = (
{
closed = 1;
nodes = (
"78 -40 LINE",
"104 1 LINE",
"128 -8 OFFCURVE",
"156 -11 OFFCURVE",
"189 -11 CURVE SMOOTH",
"314 -11 OFFCURVE",
"374 29 OFFCURVE",
"396 187 CURVE SMOOTH",
"433 455 LINE SMOOTH",
"437 482 OFFCURVE",
"436 504 OFFCURVE",
"429 524 CURVE",
"499 634 LINE",
"379 634 LINE",
"355 596 LINE",
"333 603 OFFCURVE",
"307 606 OFFCURVE",
"276 606 CURVE SMOOTH",
"165 606 OFFCURVE",
"85 564 OFFCURVE",
"69 455 CURVE SMOOTH",
"32 186 LINE SMOOTH",
"25 139 OFFCURVE",
"26 106 OFFCURVE",
"34 77 CURVE",
"-40 -40 LINE"
);
},
{
closed = 1;
nodes = (
"210 110 OFFCURVE",
"213 116 OFFCURVE",
"215 129 CURVE SMOOTH",
"232 253 LINE",
"218 231 LINE",
"204 129 LINE SMOOTH",
"202 116 OFFCURVE",
"203 110 OFFCURVE",
"206 110 CURVE SMOOTH"
);
},
{
closed = 1;
nodes = (
"201 101 OFFCURVE",
"198 103 OFFCURVE",
"196 107 CURVE SMOOTH",
"194 110 OFFCURVE",
"194 118 OFFCURVE",
"195 129 CURVE SMOOTH",
"209 233 LINE",
"245 291 LINE",
"223 129 LINE SMOOTH",
"222 118 OFFCURVE",
"219 110 OFFCURVE",
"216 107 CURVE SMOOTH",
"213 103 OFFCURVE",
"209 101 OFFCURVE",
"205 101 CURVE SMOOTH"
);
},
{
closed = 1;
nodes = (
"53 76 LINE",
"44 102 OFFCURVE",
"43 139 OFFCURVE",
"50 186 CURVE SMOOTH",
"87 455 LINE SMOOTH",
"102 552 OFFCURVE",
"173 588 OFFCURVE",
"273 588 CURVE SMOOTH",
"308 588 OFFCURVE",
"337 583 OFFCURVE",
"360 573 CURVE",
"387 615 LINE",
"467 615 LINE",
"409 524 LINE",
"416 505 OFFCURVE",
"420 480 OFFCURVE",
"416 455 CURVE SMOOTH",
"379 187 LINE SMOOTH",
"359 44 OFFCURVE",
"302 7 OFFCURVE",
"191 7 CURVE SMOOTH",
"152 7 OFFCURVE",
"122 10 OFFCURVE",
"98 23 CURVE",
"69 -22 LINE",
"-10 -22 LINE"
);
},
{
closed = 1;
nodes = (
"65 -13 LINE",
"96 36 LINE",
"119 21 OFFCURVE",
"153 17 OFFCURVE",
"193 17 CURVE SMOOTH",
"300 17 OFFCURVE",
"350 51 OFFCURVE",
"370 187 CURVE SMOOTH",
"407 455 LINE SMOOTH",
"412 483 OFFCURVE",
"409 506 OFFCURVE",
"399 525 CURVE",
"451 606 LINE",
"391 606 LINE",
"363 561 LINE",
"340 573 OFFCURVE",
"309 579 OFFCURVE",
"272 579 CURVE SMOOTH",
"176 579 OFFCURVE",
"109 546 OFFCURVE",
"96 455 CURVE SMOOTH",
"59 186 LINE SMOOTH",
"52 138 OFFCURVE",
"54 104 OFFCURVE",
"63 77 CURVE",
"7 -13 LINE"
);
},
{
closed = 1;
nodes = (
"241 462 LINE SMOOTH",
"242 473 OFFCURVE",
"245 480 OFFCURVE",
"248 484 CURVE SMOOTH",
"251 487 OFFCURVE",
"255 489 OFFCURVE",
"259 489 CURVE SMOOTH",
"263 489 OFFCURVE",
"266 487 OFFCURVE",
"268 484 CURVE SMOOTH",
"270 480 OFFCURVE",
"270 473 OFFCURVE",
"269 462 CURVE SMOOTH",
"257 376 LINE",
"221 319 LINE"
);
},
{
closed = 1;
nodes = (
"250 378 LINE",
"261 462 LINE SMOOTH",
"262 469 OFFCURVE",
"263 474 OFFCURVE",
"262 477 CURVE SMOOTH",
"261 479 OFFCURVE",
"259 480 OFFCURVE",
"258 480 CURVE SMOOTH",
"257 480 OFFCURVE",
"255 479 OFFCURVE",
"254 477 CURVE SMOOTH",
"253 474 OFFCURVE",
"251 469 OFFCURVE",
"250 462 CURVE SMOOTH",
"236 356 LINE"
);
}
);
};
layerId = "6544E2DB-1912-401E-9B5B-A29F161A5995";
paths = (
{
closed = 1;
nodes = (
"78 -40 LINE",
"104 1 LINE",
"128 -8 OFFCURVE",
"156 -11 OFFCURVE",
"189 -11 CURVE SMOOTH",
"314 -11 OFFCURVE",
"374 29 OFFCURVE",
"396 187 CURVE SMOOTH",
"433 455 LINE SMOOTH",
"437 482 OFFCURVE",
"436 504 OFFCURVE",
"429 524 CURVE",
"499 634 LINE",
"379 634 LINE",
"355 596 LINE",
"333 603 OFFCURVE",
"307 606 OFFCURVE",
"276 606 CURVE SMOOTH",
"165 606 OFFCURVE",
"85 564 OFFCURVE",
"69 455 CURVE SMOOTH",
"32 186 LINE SMOOTH",
"25 139 OFFCURVE",
"26 106 OFFCURVE",
"34 77 CURVE",
"-40 -40 LINE"
);
},
{
closed = 1;
nodes = (
"210 110 OFFCURVE",
"213 116 OFFCURVE",
"215 129 CURVE SMOOTH",
"232 253 LINE",
"218 231 LINE",
"204 129 LINE SMOOTH",
"202 116 OFFCURVE",
"203 110 OFFCURVE",
"206 110 CURVE SMOOTH"
);
},
{
closed = 1;
nodes = (
"201 101 OFFCURVE",
"198 103 OFFCURVE",
"196 107 CURVE SMOOTH",
"194 110 OFFCURVE",
"194 118 OFFCURVE",
"195 129 CURVE SMOOTH",
"209 233 LINE",
"245 291 LINE",
"223 129 LINE SMOOTH",
"222 118 OFFCURVE",
"219 110 OFFCURVE",
"216 107 CURVE SMOOTH",
"213 103 OFFCURVE",
"209 101 OFFCURVE",
"205 101 CURVE SMOOTH"
);
},
{
closed = 1;
nodes = (
"53 76 LINE",
"44 102 OFFCURVE",
"43 139 OFFCURVE",
"50 186 CURVE SMOOTH",
"87 455 LINE SMOOTH",
"102 552 OFFCURVE",
"173 588 OFFCURVE",
"273 588 CURVE SMOOTH",
"308 588 OFFCURVE",
"337 583 OFFCURVE",
"360 573 CURVE",
"387 615 LINE",
"467 615 LINE",
"409 524 LINE",
"416 505 OFFCURVE",
"420 480 OFFCURVE",
"416 455 CURVE SMOOTH",
"379 187 LINE SMOOTH",
"359 44 OFFCURVE",
"302 7 OFFCURVE",
"191 7 CURVE SMOOTH",
"152 7 OFFCURVE",
"122 10 OFFCURVE",
"98 23 CURVE",
"69 -22 LINE",
"-10 -22 LINE"
);
},
{
closed = 1;
nodes = (
"65 -13 LINE",
"96 36 LINE",
"119 21 OFFCURVE",
"153 17 OFFCURVE",
"193 17 CURVE SMOOTH",
"300 17 OFFCURVE",
"350 51 OFFCURVE",
"370 187 CURVE SMOOTH",
"407 455 LINE SMOOTH",
"412 483 OFFCURVE",
"409 506 OFFCURVE",
"399 525 CURVE",
"451 606 LINE",
"391 606 LINE",
"363 561 LINE",
"340 573 OFFCURVE",
"309 579 OFFCURVE",
"272 579 CURVE SMOOTH",
"176 579 OFFCURVE",
"109 546 OFFCURVE",
"96 455 CURVE SMOOTH",
"59 186 LINE SMOOTH",
"52 138 OFFCURVE",
"54 104 OFFCURVE",
"63 77 CURVE",
"7 -13 LINE"
);
},
{
closed = 1;
nodes = (
"241 462 LINE SMOOTH",
"242 473 OFFCURVE",
"245 480 OFFCURVE",
"248 484 CURVE SMOOTH",
"251 487 OFFCURVE",
"255 489 OFFCURVE",
"259 489 CURVE SMOOTH",
"263 489 OFFCURVE",
"266 487 OFFCURVE",
"268 484 CURVE SMOOTH",
"270 480 OFFCURVE",
"270 473 OFFCURVE",
"269 462 CURVE SMOOTH",
"257 376 LINE",
"221 319 LINE"
);
},
{
closed = 1;
nodes = (
"250 378 LINE",
"261 462 LINE SMOOTH",
"262 469 OFFCURVE",
"263 474 OFFCURVE",
"262 477 CURVE SMOOTH",
"261 479 OFFCURVE",
"259 480 OFFCURVE",
"258 480 CURVE SMOOTH",
"257 480 OFFCURVE",
"255 479 OFFCURVE",
"254 477 CURVE SMOOTH",
"253 474 OFFCURVE",
"251 469 OFFCURVE",
"250 462 CURVE SMOOTH",
"236 356 LINE"
);
}
);
userData = {
assembly = "PUSHW[ ]	/* 4 values pushed */\01272 6 56 4 \012CALL[ ]	/* CallFunction */\012PUSHW[ ]	/* 1 value pushed */\01256 \012SRP0[ ]	/* SetRefPoint0 */\012PUSHW[ ]	/* 1 value pushed */\01229 \012MDRP[10000]	/* MoveDirectRelPt */\012PUSHW[ ]	/* 1 value pushed */\01229 \012MDAP[1]	/* MoveDirectAbsPt */\012PUSHW[ ]	/* 3 values pushed */\01230 56 72 \012SRP1[ ]	/* SetRefPoint1 */\012SRP2[ ]	/* SetRefPoint2 */\012IP[ ]	/* InterpolatePts */\012PUSHW[ ]	/* 1 value pushed */\01256 \012SRP0[ ]	/* SetRefPoint0 */\012PUSHW[ ]	/* 1 value pushed */\01235 \012MDRP[10000]	/* MoveDirectRelPt */\012PUSHW[ ]	/* 1 value pushed */\01235 \012MDAP[1]	/* MoveDirectAbsPt */\012PUSHW[ ]	/* 3 values pushed */\01252 56 72 \012SRP1[ ]	/* SetRefPoint1 */\012SRP2[ ]	/* SetRefPoint2 */\012IP[ ]	/* InterpolatePts */\012PUSHW[ ]	/* 1 value pushed */\01256 \012SRP0[ ]	/* SetRefPoint0 */\012PUSHW[ ]	/* 1 value pushed */\01258 \012MDRP[10000]	/* MoveDirectRelPt */\012PUSHW[ ]	/* 1 value pushed */\01258 \012MDAP[1]	/* MoveDirectAbsPt */\012PUSHW[ ]	/* 1 value pushed */\01272 \012SRP0[ ]	/* SetRefPoint0 */\012PUSHW[ ]	/* 1 value pushed */\012116 \012MDRP[11100]	/* MoveDirectRelPt */\012SVTCA[0]	/* SetFreedomAndProjectionVectorToAxis */\012PUSHW[ ]	/* 3 values pushed */\012101 4 3 \012CALL[ ]	/* CallFunction */\012PUSHW[ ]	/* 4 values pushed */\01226 2 83 4 \012CALL[ ]	/* CallFunction */\012PUSHW[ ]	/* 4 values pushed */\01272 2 40 4 \012CALL[ ]	/* CallFunction */\012PUSHW[ ]	/* 1 value pushed */\01283 \012SRP0[ ]	/* SetRefPoint0 */\012PUSHW[ ]	/* 1 value pushed */\0120 \012MDRP[10000]	/* MoveDirectRelPt */\012PUSHW[ ]	/* 1 value pushed */\0120 \012MDAP[1]	/* MoveDirectAbsPt */\012PUSHW[ ]	/* 1 value pushed */\01272 \012SRP0[ ]	/* SetRefPoint0 */\012PUSHW[ ]	/* 1 value pushed */\01213 \012MDRP[10000]	/* MoveDirectRelPt */\012PUSHW[ ]	/* 1 value pushed */\01213 \012MDAP[1]	/* MoveDirectAbsPt */\012PUSHW[ ]	/* 1 value pushed */\012101 \012SRP0[ ]	/* SetRefPoint0 */\012PUSHW[ ]	/* 1 value pushed */\01216 \012MDRP[10000]	/* MoveDirectRelPt */\012PUSHW[ ]	/* 3 values pushed */\01230 4 101 \012SRP1[ ]	/* SetRefPoint1 */\012SRP2[ ]	/* SetRefPoint2 */\012IP[ ]	/* InterpolatePts */\012PUSHW[ ]	/* 3 values pushed */\01235 4 101 \012SRP1[ ]	/* SetRefPoint1 */\012SRP2[ ]	/* SetRefPoint2 */\012IP[ ]	/* InterpolatePts */\012PUSHW[ ]	/* 3 values pushed */\01252 4 101 \012SRP1[ ]	/* SetRefPoint1 */\012SRP2[ ]	/* SetRefPoint2 */\012IP[ ]	/* InterpolatePts */\012PUSHW[ ]	/* 3 values pushed */\01257 4 101 \012SRP1[ ]	/* SetRefPoint1 */\012SRP2[ ]	/* SetRefPoint2 */\012IP[ ]	/* InterpolatePts */\012PUSHW[ ]	/* 1 value pushed */\0124 \012SRP0[ ]	/* SetRefPoint0 */\012PUSHW[ ]	/* 1 value pushed */\01286 \012MDRP[10000]	/* MoveDirectRelPt */\012PUSHW[ ]	/* 1 value pushed */\01286 \012MDAP[1]	/* MoveDirectAbsPt */\012IUP[0]	/* InterpolateUntPts */\012IUP[1]	/* InterpolateUntPts */";
};
width = 447;
}
);
leftKerningGroup = O;
note = Oslash;
rightKerningGroup = O;
unicode = 00D8;
},
{
glyphname = OE;
lastChange = "2021-12-07 23:36:59 +0000";
layers = (
{
background = {
paths = (
{
closed = 1;
nodes = (
"190 -11 OFFCURVE",
"220 -8 OFFCURVE",
"245 0 CURVE",
"448 0 LINE",
"469 153 LINE",
"362 153 LINE",
"371 219 LINE",
"469 219 LINE",
"493 387 LINE",
"395 387 LINE",
"402 437 LINE",
"509 437 LINE",
"531 593 LINE",
"319 593 LINE",
"296 600 OFFCURVE",
"273 601 OFFCURVE",
"244 601 CURVE SMOOTH",
"131 601 OFFCURVE",
"51 560 OFFCURVE",
"35 451 CURVE SMOOTH",
"-2 185 LINE SMOOTH",
"-24 28 OFFCURVE",
"32 -11 OFFCURVE",
"158 -11 CURVE SMOOTH"
);
},
{
closed = 1;
nodes = (
"169 100 OFFCURVE",
"166 102 OFFCURVE",
"164 106 CURVE SMOOTH",
"162 110 OFFCURVE",
"162 117 OFFCURVE",
"163 127 CURVE SMOOTH",
"210 458 LINE SMOOTH",
"211 469 OFFCURVE",
"214 476 OFFCURVE",
"217 480 CURVE SMOOTH",
"220 483 OFFCURVE",
"223 485 OFFCURVE",
"228 485 CURVE SMOOTH",
"232 485 OFFCURVE",
"235 483 OFFCURVE",
"237 480 CURVE SMOOTH",
"239 476 OFFCURVE",
"239 469 OFFCURVE",
"238 458 CURVE SMOOTH",
"191 127 LINE SMOOTH",
"190 117 OFFCURVE",
"188 110 OFFCURVE",
"185 106 CURVE SMOOTH",
"182 102 OFFCURVE",
"178 100 OFFCURVE",
"174 100 CURVE SMOOTH"
);
},
{
closed = 1;
nodes = (
"179 109 OFFCURVE",
"181 115 OFFCURVE",
"182 127 CURVE",
"229 458 LINE SMOOTH",
"230 465 OFFCURVE",
"231 470 OFFCURVE",
"230 473 CURVE SMOOTH",
"229 475 OFFCURVE",
"227 476 OFFCURVE",
"226 476 CURVE SMOOTH",
"224 476 OFFCURVE",
"223 475 OFFCURVE",
"222 473 CURVE SMOOTH",
"219 458 LINE",
"172 127 LINE",
"171 115 OFFCURVE",
"172 109 OFFCURVE",
"175 109 CURVE SMOOTH"
);
},
{
closed = 1;
nodes = (
"46 7 OFFCURVE",
"-4 44 OFFCURVE",
"16 185 CURVE SMOOTH",
"53 451 LINE SMOOTH",
"66 547 OFFCURVE",
"138 583 OFFCURVE",
"241 583 CURVE SMOOTH",
"268 583 OFFCURVE",
"294 579 OFFCURVE",
"313 575 CURVE",
"510 575 LINE",
"493 455 LINE",
"386 455 LINE",
"374 369 LINE",
"472 369 LINE",
"454 237 LINE",
"356 237 LINE",
"341 135 LINE",
"448 135 LINE",
"432 18 LINE",
"243 18 LINE",
"220 10 OFFCURVE",
"191 7 OFFCURVE",
"160 7 CURVE SMOOTH"
);
},
{
closed = 1;
nodes = (
"193 16 OFFCURVE",
"219 19 OFFCURVE",
"242 27 CURVE",
"424 27 LINE",
"438 126 LINE",
"332 126 LINE",
"349 246 LINE",
"446 246 LINE",
"462 360 LINE",
"365 360 LINE",
"380 464 LINE",
"486 464 LINE",
"500 566 LINE",
"309 566 LINE",
"290 571 OFFCURVE",
"267 574 OFFCURVE",
"240 574 CURVE SMOOTH",
"143 574 OFFCURVE",
"74 542 OFFCURVE",
"61 451 CURVE SMOOTH",
"24 185 LINE SMOOTH",
"4 50 OFFCURVE",
"54 16 OFFCURVE",
"162 16 CURVE SMOOTH"
);
}
);
};
layerId = "6544E2DB-1912-401E-9B5B-A29F161A5995";
paths = (
{
closed = 1;
nodes = (
"190 -11 OFFCURVE",
"220 -8 OFFCURVE",
"245 0 CURVE",
"448 0 LINE",
"469 153 LINE",
"362 153 LINE",
"371 219 LINE",
"469 219 LINE",
"493 387 LINE",
"395 387 LINE",
"402 437 LINE",
"509 437 LINE",
"531 593 LINE",
"319 593 LINE",
"296 600 OFFCURVE",
"273 601 OFFCURVE",
"244 601 CURVE SMOOTH",
"131 601 OFFCURVE",
"51 560 OFFCURVE",
"35 451 CURVE SMOOTH",
"-2 185 LINE SMOOTH",
"-24 28 OFFCURVE",
"32 -11 OFFCURVE",
"158 -11 CURVE SMOOTH"
);
},
{
closed = 1;
nodes = (
"169 100 OFFCURVE",
"166 102 OFFCURVE",
"164 106 CURVE SMOOTH",
"162 110 OFFCURVE",
"162 117 OFFCURVE",
"163 127 CURVE SMOOTH",
"210 458 LINE SMOOTH",
"211 469 OFFCURVE",
"214 476 OFFCURVE",
"217 480 CURVE SMOOTH",
"220 483 OFFCURVE",
"223 485 OFFCURVE",
"228 485 CURVE SMOOTH",
"232 485 OFFCURVE",
"235 483 OFFCURVE",
"237 480 CURVE SMOOTH",
"239 476 OFFCURVE",
"239 469 OFFCURVE",
"238 458 CURVE SMOOTH",
"191 127 LINE SMOOTH",
"190 117 OFFCURVE",
"188 110 OFFCURVE",
"185 106 CURVE SMOOTH",
"182 102 OFFCURVE",
"178 100 OFFCURVE",
"174 100 CURVE SMOOTH"
);
},
{
closed = 1;
nodes = (
"179 109 OFFCURVE",
"181 115 OFFCURVE",
"182 127 CURVE",
"229 458 LINE SMOOTH",
"230 465 OFFCURVE",
"231 470 OFFCURVE",
"230 473 CURVE SMOOTH",
"229 475 OFFCURVE",
"227 476 OFFCURVE",
"226 476 CURVE SMOOTH",
"224 476 OFFCURVE",
"223 475 OFFCURVE",
"222 473 CURVE SMOOTH",
"219 458 LINE",
"172 127 LINE",
"171 115 OFFCURVE",
"172 109 OFFCURVE",
"175 109 CURVE SMOOTH"
);
},
{
closed = 1;
nodes = (
"46 7 OFFCURVE",
"-4 44 OFFCURVE",
"16 185 CURVE SMOOTH",
"53 451 LINE SMOOTH",
"66 547 OFFCURVE",
"138 583 OFFCURVE",
"241 583 CURVE SMOOTH",
"268 583 OFFCURVE",
"294 579 OFFCURVE",
"313 575 CURVE",
"510 575 LINE",
"493 455 LINE",
"386 455 LINE",
"374 369 LINE",
"472 369 LINE",
"454 237 LINE",
"356 237 LINE",
"341 135 LINE",
"448 135 LINE",
"432 18 LINE",
"243 18 LINE",
"220 10 OFFCURVE",
"191 7 OFFCURVE",
"160 7 CURVE SMOOTH"
);
},
{
closed = 1;
nodes = (
"193 16 OFFCURVE",
"219 19 OFFCURVE",
"242 27 CURVE",
"424 27 LINE",
"438 126 LINE",
"332 126 LINE",
"349 246 LINE",
"446 246 LINE",
"462 360 LINE",
"365 360 LINE",
"380 464 LINE",
"486 464 LINE",
"500 566 LINE",
"309 566 LINE",
"290 571 OFFCURVE",
"267 574 OFFCURVE",
"240 574 CURVE SMOOTH",
"143 574 OFFCURVE",
"74 542 OFFCURVE",
"61 451 CURVE SMOOTH",
"24 185 LINE SMOOTH",
"4 50 OFFCURVE",
"54 16 OFFCURVE",
"162 16 CURVE SMOOTH"
);
}
);
userData = {
assembly = "PUSHW[ ]	/* 4 values pushed */\01291 6 49 4 \012CALL[ ]	/* CallFunction */\012PUSHW[ ]	/* 4 values pushed */\01212 6 58 4 \012CALL[ ]	/* CallFunction */\012PUSHW[ ]	/* 3 values pushed */\01211 49 91 \012SRP1[ ]	/* SetRefPoint1 */\012SRP2[ ]	/* SetRefPoint2 */\012IP[ ]	/* InterpolatePts */\012PUSHW[ ]	/* 1 value pushed */\01211 \012MDAP[1]	/* MoveDirectAbsPt */\012PUSHW[ ]	/* 1 value pushed */\01258 \012SRP0[ ]	/* SetRefPoint0 */\012PUSHW[ ]	/* 1 value pushed */\01218 \012MDRP[10000]	/* MoveDirectRelPt */\012PUSHW[ ]	/* 1 value pushed */\01218 \012MDAP[1]	/* MoveDirectAbsPt */\012PUSHW[ ]	/* 1 value pushed */\01211 \012SRP0[ ]	/* SetRefPoint0 */\012PUSHW[ ]	/* 2 values pushed */\01241 6 \012MIRP[10100]	/* MoveIndirectRelPt */\012PUSHW[ ]	/* 1 value pushed */\01212 \012SRP0[ ]	/* SetRefPoint0 */\012PUSHW[ ]	/* 1 value pushed */\01263 \012MDRP[10000]	/* MoveDirectRelPt */\012PUSHW[ ]	/* 1 value pushed */\01263 \012MDAP[1]	/* MoveDirectAbsPt */\012PUSHW[ ]	/* 1 value pushed */\01212 \012SRP0[ ]	/* SetRefPoint0 */\012PUSHW[ ]	/* 1 value pushed */\01296 \012MDRP[10000]	/* MoveDirectRelPt */\012PUSHW[ ]	/* 1 value pushed */\01296 \012MDAP[1]	/* MoveDirectAbsPt */\012PUSHW[ ]	/* 1 value pushed */\01258 \012SRP0[ ]	/* SetRefPoint0 */\012PUSHW[ ]	/* 1 value pushed */\01299 \012MDRP[10000]	/* MoveDirectRelPt */\012PUSHW[ ]	/* 1 value pushed */\01299 \012MDAP[1]	/* MoveDirectAbsPt */\012PUSHW[ ]	/* 1 value pushed */\01212 \012SRP0[ ]	/* SetRefPoint0 */\012PUSHW[ ]	/* 1 value pushed */\012106 \012MDRP[11100]	/* MoveDirectRelPt */\012SVTCA[0]	/* SetFreedomAndProjectionVectorToAxis */\012PUSHW[ ]	/* 4 values pushed */\01225 2 54 4 \012CALL[ ]	/* CallFunction */\012PUSHW[ ]	/* 4 values pushed */\01220 3 21 4 \012CALL[ ]	/* CallFunction */\012PUSHW[ ]	/* 4 values pushed */\01211 2 32 4 \012CALL[ ]	/* CallFunction */\012PUSHW[ ]	/* 1 value pushed */\01254 \012SRP0[ ]	/* SetRefPoint0 */\012PUSHW[ ]	/* 1 value pushed */\0120 \012MDRP[10000]	/* MoveDirectRelPt */\012PUSHW[ ]	/* 1 value pushed */\0120 \012MDAP[1]	/* MoveDirectAbsPt */\012PUSHW[ ]	/* 1 value pushed */\01225 \012SRP0[ ]	/* SetRefPoint0 */\012PUSHW[ ]	/* 2 values pushed */\01222 2 \012MIRP[10100]	/* MoveIndirectRelPt */\012IUP[0]	/* InterpolateUntPts */\012IUP[1]	/* InterpolateUntPts */";
};
width = 489;
}
);
leftKerningGroup = O;
leftMetricsKey = O;
note = OE;
rightKerningGroup = E;
rightMetricsKey = E;
unicode = 0152;
},
{
glyphname = P;
lastChange = "2022-02-25 00:39:36 +0000";
layers = (
{
background = {
paths = (
{
closed = 1;
nodes = (
"169 0 LINE",
"197 203 LINE",
"235 203 LINE SMOOTH",
"333 203 OFFCURVE",
"372 286 OFFCURVE",
"385 383 CURVE SMOOTH",
"398 472 LINE SMOOTH",
"409 543 OFFCURVE",
"376 591 OFFCURVE",
"283 591 CURVE SMOOTH",
"58 591 LINE",
"-26 0 LINE"
);
},
{
closed = 1;
nodes = (
"73 573 LINE",
"280 573 LINE SMOOTH",
"361 573 OFFCURVE",
"389 532 OFFCURVE",
"381 472 CURVE SMOOTH",
"368 383 LINE SMOOTH",
"354 296 OFFCURVE",
"324 222 OFFCURVE",
"238 222 CURVE SMOOTH",
"183 222 LINE",
"154 18 LINE",
"-6 18 LINE"
);
},
{
closed = 1;
nodes = (
"146 27 LINE",
"175 231 LINE",
"239 231 LINE SMOOTH",
"316 231 OFFCURVE",
"349 302 OFFCURVE",
"360 383 CURVE SMOOTH",
"373 472 LINE SMOOTH",
"380 527 OFFCURVE",
"355 564 OFFCURVE",
"279 564 CURVE SMOOTH",
"80 564 LINE",
"4 27 LINE"
);
},
{
closed = 1;
nodes = (
"211 488 LINE",
"224 488 LINE SMOOTH",
"231 488 OFFCURVE",
"235 481 OFFCURVE",
"235 468 CURVE SMOOTH",
"234 455 OFFCURVE",
"231 431 OFFCURVE",
"226 398 CURVE SMOOTH",
"221 364 OFFCURVE",
"217 341 OFFCURVE",
"212 328 CURVE SMOOTH",
"207 315 OFFCURVE",
"202 309 OFFCURVE",
"196 309 CURVE SMOOTH",
"186 309 LINE"
);
},
{
closed = 1;
nodes = (
"197 318 LINE SMOOTH",
"200 318 OFFCURVE",
"204 324 OFFCURVE",
"207 336 CURVE SMOOTH",
"210 347 OFFCURVE",
"214 368 OFFCURVE",
"218 398 CURVE SMOOTH",
"223 428 OFFCURVE",
"226 449 OFFCURVE",
"227 461 CURVE SMOOTH",
"228 472 OFFCURVE",
"226 478 OFFCURVE",
"223 478 CURVE SMOOTH",
"219 478 LINE",
"196 318 LINE"
);
}
);
};
layerId = "6544E2DB-1912-401E-9B5B-A29F161A5995";
paths = (
{
closed = 1;
nodes = (
"169 0 LINE",
"197 203 LINE",
"235 203 LINE SMOOTH",
"333 203 OFFCURVE",
"372 286 OFFCURVE",
"385 383 CURVE SMOOTH",
"398 472 LINE SMOOTH",
"409 543 OFFCURVE",
"376 591 OFFCURVE",
"283 591 CURVE SMOOTH",
"58 591 LINE",
"-26 0 LINE"
);
},
{
closed = 1;
nodes = (
"73 573 LINE",
"280 573 LINE SMOOTH",
"361 573 OFFCURVE",
"389 532 OFFCURVE",
"381 472 CURVE SMOOTH",
"368 383 LINE SMOOTH",
"354 296 OFFCURVE",
"324 222 OFFCURVE",
"238 222 CURVE SMOOTH",
"183 222 LINE",
"154 18 LINE",
"-6 18 LINE"
);
},
{
closed = 1;
nodes = (
"146 27 LINE",
"175 231 LINE",
"239 231 LINE SMOOTH",
"316 231 OFFCURVE",
"349 302 OFFCURVE",
"360 383 CURVE SMOOTH",
"373 472 LINE SMOOTH",
"380 527 OFFCURVE",
"355 564 OFFCURVE",
"279 564 CURVE SMOOTH",
"80 564 LINE",
"4 27 LINE"
);
},
{
closed = 1;
nodes = (
"211 488 LINE",
"224 488 LINE SMOOTH",
"231 488 OFFCURVE",
"235 481 OFFCURVE",
"235 468 CURVE SMOOTH",
"234 455 OFFCURVE",
"231 431 OFFCURVE",
"226 398 CURVE SMOOTH",
"221 364 OFFCURVE",
"217 341 OFFCURVE",
"212 328 CURVE SMOOTH",
"207 315 OFFCURVE",
"202 309 OFFCURVE",
"196 309 CURVE SMOOTH",
"186 309 LINE"
);
},
{
closed = 1;
nodes = (
"197 318 LINE SMOOTH",
"200 318 OFFCURVE",
"204 324 OFFCURVE",
"207 336 CURVE SMOOTH",
"210 347 OFFCURVE",
"214 368 OFFCURVE",
"218 398 CURVE SMOOTH",
"223 428 OFFCURVE",
"226 449 OFFCURVE",
"227 461 CURVE SMOOTH",
"228 472 OFFCURVE",
"226 478 OFFCURVE",
"223 478 CURVE SMOOTH",
"219 478 LINE",
"196 318 LINE"
);
}
);
userData = {
assembly = "SVTCA[0]	/* SetFreedomAndProjectionVectorToAxis */\012PUSHW[ ]	/* 1 value pushed */\01212 \012MDAP[1]	/* MoveDirectAbsPt */\012PUSHW[ ]	/* 4 values pushed */\01214 1 34 4 \012CALL[ ]	/* CallFunction */\012IUP[0]	/* InterpolateUntPts */\012IUP[1]	/* InterpolateUntPts */";
};
width = 372;
}
);
leftKerningGroup = H;
leftMetricsKey = H;
note = P;
rightKerningGroup = P;
unicode = 0050;
},
{
glyphname = Thorn;
lastChange = "2021-12-07 23:32:14 +0000";
layers = (
{
background = {
paths = (
{
closed = 1;
nodes = (
"165 0 LINE",
"181 115 LINE",
"219 115 LINE SMOOTH",
"317 115 OFFCURVE",
"356 198 OFFCURVE",
"369 295 CURVE SMOOTH",
"381 384 LINE SMOOTH",
"392 455 OFFCURVE",
"359 503 OFFCURVE",
"266 503 CURVE SMOOTH",
"236 503 LINE",
"249 591 LINE",
"54 591 LINE",
"-29 0 LINE"
);
},
{
closed = 1;
nodes = (
"69 573 LINE",
"229 573 LINE",
"217 485 LINE",
"264 485 LINE SMOOTH",
"345 485 OFFCURVE",
"373 444 OFFCURVE",
"364 384 CURVE SMOOTH",
"352 295 LINE SMOOTH",
"339 209 OFFCURVE",
"305 133 OFFCURVE",
"221 133 CURVE SMOOTH",
"166 133 LINE",
"150 18 LINE",
"-9 18 LINE"
);
},
{
closed = 1;
nodes = (
"142 27 LINE",
"159 143 LINE",
"223 143 LINE SMOOTH",
"300 143 OFFCURVE",
"333 214 OFFCURVE",
"344 295 CURVE SMOOTH",
"356 384 LINE SMOOTH",
"364 439 OFFCURVE",
"338 476 OFFCURVE",
"262 476 CURVE SMOOTH",
"206 476 LINE",
"219 564 LINE",
"76 564 LINE",
"0 27 LINE"
);
},
{
closed = 1;
nodes = (
"195 399 LINE",
"208 399 LINE SMOOTH",
"215 399 OFFCURVE",
"219 393 OFFCURVE",
"218 380 CURVE SMOOTH",
"217 367 OFFCURVE",
"215 343 OFFCURVE",
"210 310 CURVE SMOOTH",
"205 276 OFFCURVE",
"201 253 OFFCURVE",
"196 240 CURVE SMOOTH",
"191 227 OFFCURVE",
"186 221 OFFCURVE",
"180 221 CURVE SMOOTH",
"170 221 LINE"
);
},
{
closed = 1;
nodes = (
"181 230 LINE SMOOTH",
"184 230 OFFCURVE",
"188 236 OFFCURVE",
"191 248 CURVE SMOOTH",
"194 259 OFFCURVE",
"198 280 OFFCURVE",
"202 310 CURVE SMOOTH",
"206 340 OFFCURVE",
"209 361 OFFCURVE",
"210 373 CURVE SMOOTH",
"211 384 OFFCURVE",
"209 390 OFFCURVE",
"206 390 CURVE SMOOTH",
"202 390 LINE",
"180 230 LINE"
);
}
);
};
layerId = "6544E2DB-1912-401E-9B5B-A29F161A5995";
paths = (
{
closed = 1;
nodes = (
"165 0 LINE",
"181 115 LINE",
"219 115 LINE SMOOTH",
"317 115 OFFCURVE",
"356 198 OFFCURVE",
"369 295 CURVE SMOOTH",
"381 384 LINE SMOOTH",
"392 455 OFFCURVE",
"359 503 OFFCURVE",
"266 503 CURVE SMOOTH",
"236 503 LINE",
"249 591 LINE",
"54 591 LINE",
"-29 0 LINE"
);
},
{
closed = 1;
nodes = (
"69 573 LINE",
"229 573 LINE",
"217 485 LINE",
"264 485 LINE SMOOTH",
"345 485 OFFCURVE",
"373 444 OFFCURVE",
"364 384 CURVE SMOOTH",
"352 295 LINE SMOOTH",
"339 209 OFFCURVE",
"305 133 OFFCURVE",
"221 133 CURVE SMOOTH",
"166 133 LINE",
"150 18 LINE",
"-9 18 LINE"
);
},
{
closed = 1;
nodes = (
"142 27 LINE",
"159 143 LINE",
"223 143 LINE SMOOTH",
"300 143 OFFCURVE",
"333 214 OFFCURVE",
"344 295 CURVE SMOOTH",
"356 384 LINE SMOOTH",
"364 439 OFFCURVE",
"338 476 OFFCURVE",
"262 476 CURVE SMOOTH",
"206 476 LINE",
"219 564 LINE",
"76 564 LINE",
"0 27 LINE"
);
},
{
closed = 1;
nodes = (
"195 399 LINE",
"208 399 LINE SMOOTH",
"215 399 OFFCURVE",
"219 393 OFFCURVE",
"218 380 CURVE SMOOTH",
"217 367 OFFCURVE",
"215 343 OFFCURVE",
"210 310 CURVE SMOOTH",
"205 276 OFFCURVE",
"201 253 OFFCURVE",
"196 240 CURVE SMOOTH",
"191 227 OFFCURVE",
"186 221 OFFCURVE",
"180 221 CURVE SMOOTH",
"170 221 LINE"
);
},
{
closed = 1;
nodes = (
"181 230 LINE SMOOTH",
"184 230 OFFCURVE",
"188 236 OFFCURVE",
"191 248 CURVE SMOOTH",
"194 259 OFFCURVE",
"198 280 OFFCURVE",
"202 310 CURVE SMOOTH",
"206 340 OFFCURVE",
"209 361 OFFCURVE",
"210 373 CURVE SMOOTH",
"211 384 OFFCURVE",
"209 390 OFFCURVE",
"206 390 CURVE SMOOTH",
"202 390 LINE",
"180 230 LINE"
);
}
);
userData = {
assembly = "SVTCA[0]	/* SetFreedomAndProjectionVectorToAxis */\012PUSHW[ ]	/* 1 value pushed */\01214 \012MDAP[1]	/* MoveDirectAbsPt */\012IUP[0]	/* InterpolateUntPts */\012IUP[1]	/* InterpolateUntPts */";
};
width = 373;
}
);
leftKerningGroup = H;
note = Thorn;
rightKerningGroup = P;
unicode = 00DE;
},
{
glyphname = Q;
lastChange = "2022-02-25 00:39:36 +0000";
layers = (
{
background = {
paths = (
{
closed = 1;
nodes = (
"336 -45 LINE",
"320 -3 LINE SMOOTH",
"313 14 OFFCURVE",
"307 29 OFFCURVE",
"301 43 CURVE",
"328 74 OFFCURVE",
"345 120 OFFCURVE",
"356 188 CURVE SMOOTH",
"394 457 LINE SMOOTH",
"410 567 OFFCURVE",
"350 610 OFFCURVE",
"239 610 CURVE SMOOTH",
"128 610 OFFCURVE",
"52 568 OFFCURVE",
"36 457 CURVE SMOOTH",
"-2 188 LINE SMOOTH",
"-24 33 OFFCURVE",
"26 -8 OFFCURVE",
"143 -11 CURVE",
"190 -129 LINE"
);
},
{
closed = 1;
nodes = (
"154 7 LINE",
"41 7 OFFCURVE",
"-4 45 OFFCURVE",
"15 188 CURVE SMOOTH",
"53 457 LINE SMOOTH",
"68 556 OFFCURVE",
"137 591 OFFCURVE",
"237 591 CURVE SMOOTH",
"338 591 OFFCURVE",
"390 555 OFFCURVE",
"377 457 CURVE SMOOTH",
"339 188 LINE SMOOTH",
"328 115 OFFCURVE",
"309 72 OFFCURVE",
"281 45 CURVE",
"292 18 OFFCURVE",
"304 -14 OFFCURVE",
"313 -39 CURVE",
"200 -104 LINE"
);
},
{
closed = 1;
nodes = (
"302 -35 LINE",
"270 46 LINE",
"298 71 OFFCURVE",
"319 113 OFFCURVE",
"330 188 CURVE SMOOTH",
"368 457 LINE SMOOTH",
"381 549 OFFCURVE",
"328 582 OFFCURVE",
"235 582 CURVE SMOOTH",
"140 582 OFFCURVE",
"75 549 OFFCURVE",
"62 457 CURVE SMOOTH",
"24 188 LINE SMOOTH",
"4 52 OFFCURVE",
"51 17 OFFCURVE",
"156 17 CURVE SMOOTH",
"162 17 LINE",
"205 -91 LINE"
);
},
{
closed = 1;
nodes = (
"163 102 OFFCURVE",
"160 104 OFFCURVE",
"159 108 CURVE SMOOTH",
"157 111 OFFCURVE",
"157 118 OFFCURVE",
"158 129 CURVE SMOOTH",
"205 465 LINE SMOOTH",
"206 476 OFFCURVE",
"209 483 OFFCURVE",
"212 487 CURVE SMOOTH",
"215 490 OFFCURVE",
"218 492 OFFCURVE",
"223 492 CURVE SMOOTH",
"227 492 OFFCURVE",
"230 490 OFFCURVE",
"232 487 CURVE SMOOTH",
"234 483 OFFCURVE",
"234 476 OFFCURVE",
"233 465 CURVE SMOOTH",
"186 129 LINE SMOOTH",
"185 118 OFFCURVE",
"182 111 OFFCURVE",
"179 108 CURVE SMOOTH",
"176 104 OFFCURVE",
"172 102 OFFCURVE",
"168 102 CURVE SMOOTH"
);
},
{
closed = 1;
nodes = (
"170 111 OFFCURVE",
"172 112 OFFCURVE",
"173 115 CURVE SMOOTH",
"174 117 OFFCURVE",
"176 122 OFFCURVE",
"177 129 CURVE SMOOTH",
"224 465 LINE SMOOTH",
"225 472 OFFCURVE",
"226 477 OFFCURVE",
"225 480 CURVE SMOOTH",
"224 482 OFFCURVE",
"222 483 OFFCURVE",
"221 483 CURVE SMOOTH",
"220 483 OFFCURVE",
"219 482 OFFCURVE",
"218 480 CURVE SMOOTH",
"217 477 OFFCURVE",
"215 472 OFFCURVE",
"214 465 CURVE SMOOTH",
"167 129 LINE SMOOTH",
"166 122 OFFCURVE",
"165 117 OFFCURVE",
"166 115 CURVE SMOOTH",
"167 112 OFFCURVE",
"168 111 OFFCURVE",
"169 111 CURVE SMOOTH"
);
}
);
};
layerId = "6544E2DB-1912-401E-9B5B-A29F161A5995";
paths = (
{
closed = 1;
nodes = (
"336 -45 LINE",
"320 -3 LINE SMOOTH",
"313 14 OFFCURVE",
"307 29 OFFCURVE",
"301 43 CURVE",
"328 74 OFFCURVE",
"345 120 OFFCURVE",
"356 188 CURVE SMOOTH",
"394 457 LINE SMOOTH",
"410 567 OFFCURVE",
"350 610 OFFCURVE",
"239 610 CURVE SMOOTH",
"128 610 OFFCURVE",
"52 568 OFFCURVE",
"36 457 CURVE SMOOTH",
"-2 188 LINE SMOOTH",
"-24 33 OFFCURVE",
"26 -8 OFFCURVE",
"143 -11 CURVE",
"190 -129 LINE"
);
},
{
closed = 1;
nodes = (
"154 7 LINE",
"41 7 OFFCURVE",
"-4 45 OFFCURVE",
"15 188 CURVE SMOOTH",
"53 457 LINE SMOOTH",
"68 556 OFFCURVE",
"137 591 OFFCURVE",
"237 591 CURVE SMOOTH",
"338 591 OFFCURVE",
"390 555 OFFCURVE",
"377 457 CURVE SMOOTH",
"339 188 LINE SMOOTH",
"328 115 OFFCURVE",
"309 72 OFFCURVE",
"281 45 CURVE",
"292 18 OFFCURVE",
"304 -14 OFFCURVE",
"313 -39 CURVE",
"200 -104 LINE"
);
},
{
closed = 1;
nodes = (
"302 -35 LINE",
"270 46 LINE",
"298 71 OFFCURVE",
"319 113 OFFCURVE",
"330 188 CURVE SMOOTH",
"368 457 LINE SMOOTH",
"381 549 OFFCURVE",
"328 582 OFFCURVE",
"235 582 CURVE SMOOTH",
"140 582 OFFCURVE",
"75 549 OFFCURVE",
"62 457 CURVE SMOOTH",
"24 188 LINE SMOOTH",
"4 52 OFFCURVE",
"51 17 OFFCURVE",
"156 17 CURVE SMOOTH",
"162 17 LINE",
"205 -91 LINE"
);
},
{
closed = 1;
nodes = (
"163 102 OFFCURVE",
"160 104 OFFCURVE",
"159 108 CURVE SMOOTH",
"157 111 OFFCURVE",
"157 118 OFFCURVE",
"158 129 CURVE SMOOTH",
"205 465 LINE SMOOTH",
"206 476 OFFCURVE",
"209 483 OFFCURVE",
"212 487 CURVE SMOOTH",
"215 490 OFFCURVE",
"218 492 OFFCURVE",
"223 492 CURVE SMOOTH",
"227 492 OFFCURVE",
"230 490 OFFCURVE",
"232 487 CURVE SMOOTH",
"234 483 OFFCURVE",
"234 476 OFFCURVE",
"233 465 CURVE SMOOTH",
"186 129 LINE SMOOTH",
"185 118 OFFCURVE",
"182 111 OFFCURVE",
"179 108 CURVE SMOOTH",
"176 104 OFFCURVE",
"172 102 OFFCURVE",
"168 102 CURVE SMOOTH"
);
},
{
closed = 1;
nodes = (
"170 111 OFFCURVE",
"172 112 OFFCURVE",
"173 115 CURVE SMOOTH",
"174 117 OFFCURVE",
"176 122 OFFCURVE",
"177 129 CURVE SMOOTH",
"224 465 LINE SMOOTH",
"225 472 OFFCURVE",
"226 477 OFFCURVE",
"225 480 CURVE SMOOTH",
"224 482 OFFCURVE",
"222 483 OFFCURVE",
"221 483 CURVE SMOOTH",
"220 483 OFFCURVE",
"219 482 OFFCURVE",
"218 480 CURVE SMOOTH",
"217 477 OFFCURVE",
"215 472 OFFCURVE",
"214 465 CURVE SMOOTH",
"167 129 LINE SMOOTH",
"166 122 OFFCURVE",
"165 117 OFFCURVE",
"166 115 CURVE SMOOTH",
"167 112 OFFCURVE",
"168 111 OFFCURVE",
"169 111 CURVE SMOOTH"
);
}
);
userData = {
assembly = "PUSHW[ ]	/* 4 values pushed */\01249 6 34 4 \012CALL[ ]	/* CallFunction */\012PUSHW[ ]	/* 1 value pushed */\01234 \012SRP0[ ]	/* SetRefPoint0 */\012PUSHW[ ]	/* 1 value pushed */\01237 \012MDRP[10000]	/* MoveDirectRelPt */\012PUSHW[ ]	/* 1 value pushed */\01237 \012MDAP[1]	/* MoveDirectAbsPt */\012PUSHW[ ]	/* 1 value pushed */\01249 \012SRP0[ ]	/* SetRefPoint0 */\012PUSHW[ ]	/* 1 value pushed */\01297 \012MDRP[11100]	/* MoveDirectRelPt */\012IUP[0]	/* InterpolateUntPts */\012IUP[1]	/* InterpolateUntPts */";
};
width = 383;
}
);
leftKerningGroup = O;
leftMetricsKey = O;
note = Q;
rightKerningGroup = Q;
rightMetricsKey = O;
unicode = 0051;
},
{
glyphname = R;
lastChange = "2022-02-25 00:39:36 +0000";
layers = (
{
anchors = (
{
name = bottom;
position = "{166, 0}";
},
{
name = top;
position = "{225, 591}";
}
);
background = {
anchors = (
{
name = bottom;
position = "{166, 0}";
},
{
name = top;
position = "{225, 591}";
}
);
paths = (
{
closed = 1;
nodes = (
"376 0 LINE",
"352 229 LINE",
"345 256 OFFCURVE",
"343 268 OFFCURVE",
"335 280 CURVE",
"371 307 OFFCURVE",
"385 347 OFFCURVE",
"391 390 CURVE SMOOTH",
"403 472 LINE SMOOTH",
"414 545 OFFCURVE",
"376 591 OFFCURVE",
"285 591 CURVE SMOOTH",
"58 591 LINE",
"-26 0 LINE"
);
},
{
closed = 1;
nodes = (
"72 573 LINE",
"282 573 LINE SMOOTH",
"365 573 OFFCURVE",
"394 531 OFFCURVE",
"385 472 CURVE SMOOTH",
"373 390 LINE SMOOTH",
"367 347 OFFCURVE",
"346 304 OFFCURVE",
"305 281 CURVE",
"320 272 OFFCURVE",
"327 257 OFFCURVE",
"335 218 CURVE",
"356 18 LINE",
"188 22 LINE",
"187 49 OFFCURVE",
"185 73 OFFCURVE",
"183 94 CURVE SMOOTH",
"182 112 OFFCURVE",
"180 129 OFFCURVE",
"179 145 CURVE SMOOTH",
"177 172 LINE",
"155 18 LINE",
"-7 18 LINE"
);
},
{
closed = 1;
nodes = (
"148 27 LINE",
"182 265 LINE",
"183 265 LINE",
"183 259 OFFCURVE",
"186 174 OFFCURVE",
"187 142 CURVE SMOOTH",
"192 27 LINE",
"346 27 LINE",
"326 222 LINE",
"317 264 OFFCURVE",
"304 277 OFFCURVE",
"278 280 CURVE",
"337 295 OFFCURVE",
"358 339 OFFCURVE",
"365 390 CURVE SMOOTH",
"377 472 LINE SMOOTH",
"385 527 OFFCURVE",
"357 564 OFFCURVE",
"281 564 CURVE SMOOTH",
"80 564 LINE",
"4 27 LINE"
);
},
{
closed = 1;
nodes = (
"213 488 LINE",
"226 488 LINE SMOOTH",
"233 488 OFFCURVE",
"237 481 OFFCURVE",
"237 468 CURVE SMOOTH",
"236 455 OFFCURVE",
"233 431 OFFCURVE",
"228 398 CURVE SMOOTH",
"223 365 OFFCURVE",
"219 343 OFFCURVE",
"215 333 CURVE SMOOTH",
"210 323 OFFCURVE",
"205 318 OFFCURVE",
"199 318 CURVE SMOOTH",
"189 318 LINE"
);
},
{
closed = 1;
nodes = (
"200 327 LINE SMOOTH",
"203 327 OFFCURVE",
"206 332 OFFCURVE",
"209 341 CURVE SMOOTH",
"212 350 OFFCURVE",
"216 369 OFFCURVE",
"220 398 CURVE SMOOTH",
"225 428 OFFCURVE",
"228 449 OFFCURVE",
"229 461 CURVE SMOOTH",
"230 472 OFFCURVE",
"228 478 OFFCURVE",
"225 478 CURVE SMOOTH",
"220 478 LINE",
"198 327 LINE"
);
}
);
};
layerId = "6544E2DB-1912-401E-9B5B-A29F161A5995";
paths = (
{
closed = 1;
nodes = (
"376 0 LINE",
"352 229 LINE",
"345 256 OFFCURVE",
"343 268 OFFCURVE",
"335 280 CURVE",
"371 307 OFFCURVE",
"385 347 OFFCURVE",
"391 390 CURVE SMOOTH",
"403 472 LINE SMOOTH",
"414 545 OFFCURVE",
"376 591 OFFCURVE",
"285 591 CURVE SMOOTH",
"58 591 LINE",
"-26 0 LINE"
);
},
{
closed = 1;
nodes = (
"72 573 LINE",
"282 573 LINE SMOOTH",
"365 573 OFFCURVE",
"394 531 OFFCURVE",
"385 472 CURVE SMOOTH",
"373 390 LINE SMOOTH",
"367 347 OFFCURVE",
"346 304 OFFCURVE",
"305 281 CURVE",
"320 272 OFFCURVE",
"327 257 OFFCURVE",
"335 218 CURVE",
"356 18 LINE",
"188 22 LINE",
"187 49 OFFCURVE",
"185 73 OFFCURVE",
"183 94 CURVE SMOOTH",
"182 112 OFFCURVE",
"180 129 OFFCURVE",
"179 145 CURVE SMOOTH",
"177 172 LINE",
"155 18 LINE",
"-7 18 LINE"
);
},
{
closed = 1;
nodes = (
"148 27 LINE",
"182 265 LINE",
"183 265 LINE",
"183 259 OFFCURVE",
"186 174 OFFCURVE",
"187 142 CURVE SMOOTH",
"192 27 LINE",
"346 27 LINE",
"326 222 LINE",
"317 264 OFFCURVE",
"304 277 OFFCURVE",
"278 280 CURVE",
"337 295 OFFCURVE",
"358 339 OFFCURVE",
"365 390 CURVE SMOOTH",
"377 472 LINE SMOOTH",
"385 527 OFFCURVE",
"357 564 OFFCURVE",
"281 564 CURVE SMOOTH",
"80 564 LINE",
"4 27 LINE"
);
},
{
closed = 1;
nodes = (
"213 488 LINE",
"226 488 LINE SMOOTH",
"233 488 OFFCURVE",
"237 481 OFFCURVE",
"237 468 CURVE SMOOTH",
"236 455 OFFCURVE",
"233 431 OFFCURVE",
"228 398 CURVE SMOOTH",
"223 365 OFFCURVE",
"219 343 OFFCURVE",
"215 333 CURVE SMOOTH",
"210 323 OFFCURVE",
"205 318 OFFCURVE",
"199 318 CURVE SMOOTH",
"189 318 LINE"
);
},
{
closed = 1;
nodes = (
"200 327 LINE SMOOTH",
"203 327 OFFCURVE",
"206 332 OFFCURVE",
"209 341 CURVE SMOOTH",
"212 350 OFFCURVE",
"216 369 OFFCURVE",
"220 398 CURVE SMOOTH",
"225 428 OFFCURVE",
"228 449 OFFCURVE",
"229 461 CURVE SMOOTH",
"230 472 OFFCURVE",
"228 478 OFFCURVE",
"225 478 CURVE SMOOTH",
"220 478 LINE",
"198 327 LINE"
);
}
);
userData = {
assembly = "SVTCA[0]	/* SetFreedomAndProjectionVectorToAxis */\012PUSHW[ ]	/* 1 value pushed */\01214 \012MDAP[1]	/* MoveDirectAbsPt */\012PUSHW[ ]	/* 1 value pushed */\01224 \012MDAP[1]	/* MoveDirectAbsPt */\012PUSHW[ ]	/* 1 value pushed */\01251 \012MDAP[1]	/* MoveDirectAbsPt */\012IUP[0]	/* InterpolateUntPts */\012IUP[1]	/* InterpolateUntPts */";
};
width = 413;
}
);
leftKerningGroup = H;
leftMetricsKey = H;
note = R;
rightKerningGroup = R;
unicode = 0052;
},
{
glyphname = S;
lastChange = "2022-02-25 00:39:36 +0000";
layers = (
{
anchors = (
{
name = bottom;
position = "{159, 0}";
},
{
name = top;
position = "{242, 591}";
}
);
background = {
anchors = (
{
name = bottom;
position = "{159, 0}";
},
{
name = top;
position = "{242, 591}";
}
);
paths = (
{
closed = 1;
nodes = (
"278 -7 OFFCURVE",
"353 45 OFFCURVE",
"373 183 CURVE SMOOTH",
"388 276 OFFCURVE",
"371 317 OFFCURVE",
"314 348 CURVE",
"390 348 LINE",
"403 436 LINE SMOOTH",
"418 541 OFFCURVE",
"364 594 OFFCURVE",
"242 594 CURVE SMOOTH",
"103 594 OFFCURVE",
"51 547 OFFCURVE",
"32 411 CURVE SMOOTH",
"19 316 OFFCURVE",
"33 262 OFFCURVE",
"105 226 CURVE",
"106 225 LINE",
"2 225 LINE",
"-4 181 LINE SMOOTH",
"-24 37 OFFCURVE",
"25 -7 OFFCURVE",
"153 -7 CURVE SMOOTH"
);
},
{
closed = 1;
nodes = (
"177 110 OFFCURVE",
"180 113 OFFCURVE",
"182 118 CURVE SMOOTH",
"184 123 OFFCURVE",
"186 134 OFFCURVE",
"189 151 CURVE SMOOTH",
"192 176 OFFCURVE",
"189 192 OFFCURVE",
"178 205 CURVE",
"172 158 LINE SMOOTH",
"169 137 OFFCURVE",
"167 124 OFFCURVE",
"168 119 CURVE SMOOTH",
"169 113 OFFCURVE",
"171 110 OFFCURVE",
"174 110 CURVE SMOOTH"
);
},
{
closed = 1;
nodes = (
"40 11 OFFCURVE",
"-5 51 OFFCURVE",
"13 181 CURVE SMOOTH",
"17 207 LINE",
"175 207 LINE",
"162 219 OFFCURVE",
"143 228 OFFCURVE",
"115 243 CURVE SMOOTH",
"50 275 OFFCURVE",
"38 326 OFFCURVE",
"50 411 CURVE SMOOTH",
"66 531 OFFCURVE",
"114 576 OFFCURVE",
"239 576 CURVE SMOOTH",
"350 576 OFFCURVE",
"399 529 OFFCURVE",
"386 436 CURVE SMOOTH",
"376 366 LINE",
"228 366 LINE",
"235 361 OFFCURVE",
"244 357 OFFCURVE",
"255 354 CURVE",
"254 355 LINE",
"255 354 OFFCURVE",
"257 354 OFFCURVE",
"260 353 CURVE SMOOTH",
"265 350 LINE",
"266 349 LINE",
"346 315 OFFCURVE",
"371 291 OFFCURVE",
"356 183 CURVE SMOOTH",
"338 57 OFFCURVE",
"268 11 OFFCURVE",
"155 11 CURVE SMOOTH"
);
},
{
closed = 1;
nodes = (
"263 20 OFFCURVE",
"331 64 OFFCURVE",
"347 183 CURVE SMOOTH",
"362 284 OFFCURVE",
"338 310 OFFCURVE",
"261 341 CURVE SMOOTH",
"222 359 OFFCURVE",
"194 362 OFFCURVE",
"202 416 CURVE SMOOTH",
"206 443 OFFCURVE",
"211 465 OFFCURVE",
"226 465 CURVE SMOOTH",
"235 465 OFFCURVE",
"240 459 OFFCURVE",
"239 446 CURVE SMOOTH",
"238 433 OFFCURVE",
"236 415 OFFCURVE",
"233 390 CURVE SMOOTH",
"231 376 LINE",
"368 376 LINE",
"377 436 LINE SMOOTH",
"389 523 OFFCURVE",
"343 566 OFFCURVE",
"238 566 CURVE SMOOTH",
"119 566 OFFCURVE",
"74 527 OFFCURVE",
"58 411 CURVE SMOOTH",
"47 328 OFFCURVE",
"58 282 OFFCURVE",
"119 251 CURVE SMOOTH",
"180 221 OFFCURVE",
"205 210 OFFCURVE",
"197 151 CURVE SMOOTH",
"194 130 OFFCURVE",
"191 116 OFFCURVE",
"188 110 CURVE SMOOTH",
"185 104 OFFCURVE",
"180 101 OFFCURVE",
"173 101 CURVE SMOOTH",
"167 101 OFFCURVE",
"163 104 OFFCURVE",
"161 111 CURVE SMOOTH",
"159 118 OFFCURVE",
"160 133 OFFCURVE",
"163 158 CURVE SMOOTH",
"168 198 LINE",
"24 198 LINE",
"22 181 LINE SMOOTH",
"4 58 OFFCURVE",
"47 20 OFFCURVE",
"156 20 CURVE SMOOTH"
);
},
{
closed = 1;
nodes = (
"224 390 LINE SMOOTH",
"227 411 OFFCURVE",
"230 428 OFFCURVE",
"231 439 CURVE SMOOTH",
"232 450 OFFCURVE",
"230 456 OFFCURVE",
"225 456 CURVE SMOOTH",
"221 456 OFFCURVE",
"218 452 OFFCURVE",
"216 444 CURVE SMOOTH",
"213 436 OFFCURVE",
"211 427 OFFCURVE",
"210 416 CURVE SMOOTH",
"207 393 OFFCURVE",
"211 380 OFFCURVE",
"222 371 CURVE"
);
}
);
};
layerId = "6544E2DB-1912-401E-9B5B-A29F161A5995";
paths = (
{
closed = 1;
nodes = (
"278 -7 OFFCURVE",
"353 45 OFFCURVE",
"373 183 CURVE SMOOTH",
"388 276 OFFCURVE",
"371 317 OFFCURVE",
"314 348 CURVE",
"390 348 LINE",
"403 436 LINE SMOOTH",
"418 541 OFFCURVE",
"364 594 OFFCURVE",
"242 594 CURVE SMOOTH",
"103 594 OFFCURVE",
"51 547 OFFCURVE",
"32 411 CURVE SMOOTH",
"19 316 OFFCURVE",
"33 262 OFFCURVE",
"105 226 CURVE",
"106 225 LINE",
"2 225 LINE",
"-4 181 LINE SMOOTH",
"-24 37 OFFCURVE",
"25 -7 OFFCURVE",
"153 -7 CURVE SMOOTH"
);
},
{
closed = 1;
nodes = (
"177 110 OFFCURVE",
"180 113 OFFCURVE",
"182 118 CURVE SMOOTH",
"184 123 OFFCURVE",
"186 134 OFFCURVE",
"189 151 CURVE SMOOTH",
"192 176 OFFCURVE",
"189 192 OFFCURVE",
"178 205 CURVE",
"172 158 LINE SMOOTH",
"169 137 OFFCURVE",
"167 124 OFFCURVE",
"168 119 CURVE SMOOTH",
"169 113 OFFCURVE",
"171 110 OFFCURVE",
"174 110 CURVE SMOOTH"
);
},
{
closed = 1;
nodes = (
"40 11 OFFCURVE",
"-5 51 OFFCURVE",
"13 181 CURVE SMOOTH",
"17 207 LINE",
"175 207 LINE",
"162 219 OFFCURVE",
"143 228 OFFCURVE",
"115 243 CURVE SMOOTH",
"50 275 OFFCURVE",
"38 326 OFFCURVE",
"50 411 CURVE SMOOTH",
"66 531 OFFCURVE",
"114 576 OFFCURVE",
"239 576 CURVE SMOOTH",
"350 576 OFFCURVE",
"399 529 OFFCURVE",
"386 436 CURVE SMOOTH",
"376 366 LINE",
"228 366 LINE",
"235 361 OFFCURVE",
"244 357 OFFCURVE",
"255 354 CURVE",
"254 355 LINE",
"255 354 OFFCURVE",
"257 354 OFFCURVE",
"260 353 CURVE SMOOTH",
"265 350 LINE",
"266 349 LINE",
"346 315 OFFCURVE",
"371 291 OFFCURVE",
"356 183 CURVE SMOOTH",
"338 57 OFFCURVE",
"268 11 OFFCURVE",
"155 11 CURVE SMOOTH"
);
},
{
closed = 1;
nodes = (
"263 20 OFFCURVE",
"331 64 OFFCURVE",
"347 183 CURVE SMOOTH",
"362 284 OFFCURVE",
"338 310 OFFCURVE",
"261 341 CURVE SMOOTH",
"222 359 OFFCURVE",
"194 362 OFFCURVE",
"202 416 CURVE SMOOTH",
"206 443 OFFCURVE",
"211 465 OFFCURVE",
"226 465 CURVE SMOOTH",
"235 465 OFFCURVE",
"240 459 OFFCURVE",
"239 446 CURVE SMOOTH",
"238 433 OFFCURVE",
"236 415 OFFCURVE",
"233 390 CURVE SMOOTH",
"231 376 LINE",
"368 376 LINE",
"377 436 LINE SMOOTH",
"389 523 OFFCURVE",
"343 566 OFFCURVE",
"238 566 CURVE SMOOTH",
"119 566 OFFCURVE",
"74 527 OFFCURVE",
"58 411 CURVE SMOOTH",
"47 328 OFFCURVE",
"58 282 OFFCURVE",
"119 251 CURVE SMOOTH",
"180 221 OFFCURVE",
"205 210 OFFCURVE",
"197 151 CURVE SMOOTH",
"194 130 OFFCURVE",
"191 116 OFFCURVE",
"188 110 CURVE SMOOTH",
"185 104 OFFCURVE",
"180 101 OFFCURVE",
"173 101 CURVE SMOOTH",
"167 101 OFFCURVE",
"163 104 OFFCURVE",
"161 111 CURVE SMOOTH",
"159 118 OFFCURVE",
"160 133 OFFCURVE",
"163 158 CURVE SMOOTH",
"168 198 LINE",
"24 198 LINE",
"22 181 LINE SMOOTH",
"4 58 OFFCURVE",
"47 20 OFFCURVE",
"156 20 CURVE SMOOTH"
);
},
{
closed = 1;
nodes = (
"224 390 LINE SMOOTH",
"227 411 OFFCURVE",
"230 428 OFFCURVE",
"231 439 CURVE SMOOTH",
"232 450 OFFCURVE",
"230 456 OFFCURVE",
"225 456 CURVE SMOOTH",
"221 456 OFFCURVE",
"218 452 OFFCURVE",
"216 444 CURVE SMOOTH",
"213 436 OFFCURVE",
"211 427 OFFCURVE",
"210 416 CURVE SMOOTH",
"207 393 OFFCURVE",
"211 380 OFFCURVE",
"222 371 CURVE"
);
}
);
userData = {
assembly = "PUSHW[ ]	/* 4 values pushed */\012113 6 70 4 \012CALL[ ]	/* CallFunction */\012PUSHW[ ]	/* 3 values pushed */\01260 70 113 \012SRP1[ ]	/* SetRefPoint1 */\012SRP2[ ]	/* SetRefPoint2 */\012IP[ ]	/* InterpolatePts */\012PUSHW[ ]	/* 3 values pushed */\01280 70 113 \012SRP1[ ]	/* SetRefPoint1 */\012SRP2[ ]	/* SetRefPoint2 */\012IP[ ]	/* InterpolatePts */\012PUSHW[ ]	/* 1 value pushed */\012113 \012SRP0[ ]	/* SetRefPoint0 */\012PUSHW[ ]	/* 1 value pushed */\012144 \012MDRP[11100]	/* MoveDirectRelPt */\012SVTCA[0]	/* SetFreedomAndProjectionVectorToAxis */\012PUSHW[ ]	/* 4 values pushed */\01221 2 10 4 \012CALL[ ]	/* CallFunction */\012PUSHW[ ]	/* 4 values pushed */\01237 3 45 4 \012CALL[ ]	/* CallFunction */\012IUP[0]	/* InterpolateUntPts */\012IUP[1]	/* InterpolateUntPts */";
};
width = 387;
}
);
leftKerningGroup = S;
note = S;
rightKerningGroup = S;
unicode = 0053;
},
{
color = 3;
glyphname = Scedilla;
lastChange = "2022-02-25 00:37:42 +0000";
layers = (
{
background = {
anchors = (
{
name = bottom;
position = "{160, -253}";
},
{
name = top;
position = "{252, 591}";
}
);
paths = (
{
closed = 1;
nodes = (
"278 -7 OFFCURVE",
"353 45 OFFCURVE",
"373 183 CURVE SMOOTH",
"388 276 OFFCURVE",
"371 317 OFFCURVE",
"314 348 CURVE",
"390 348 LINE",
"403 436 LINE SMOOTH",
"418 541 OFFCURVE",
"364 594 OFFCURVE",
"242 594 CURVE SMOOTH",
"103 594 OFFCURVE",
"51 547 OFFCURVE",
"32 411 CURVE SMOOTH",
"19 316 OFFCURVE",
"33 262 OFFCURVE",
"105 226 CURVE",
"106 225 LINE",
"2 225 LINE",
"-4 181 LINE SMOOTH",
"-24 37 OFFCURVE",
"25 -7 OFFCURVE",
"153 -7 CURVE SMOOTH"
);
},
{
closed = 1;
nodes = (
"177 110 OFFCURVE",
"180 113 OFFCURVE",
"182 118 CURVE SMOOTH",
"184 123 OFFCURVE",
"186 134 OFFCURVE",
"189 151 CURVE SMOOTH",
"192 176 OFFCURVE",
"189 192 OFFCURVE",
"178 205 CURVE",
"172 158 LINE SMOOTH",
"169 137 OFFCURVE",
"167 124 OFFCURVE",
"168 119 CURVE SMOOTH",
"169 113 OFFCURVE",
"171 110 OFFCURVE",
"174 110 CURVE SMOOTH"
);
},
{
closed = 1;
nodes = (
"40 11 OFFCURVE",
"-5 51 OFFCURVE",
"13 181 CURVE SMOOTH",
"17 207 LINE",
"175 207 LINE",
"162 219 OFFCURVE",
"143 228 OFFCURVE",
"115 243 CURVE SMOOTH",
"50 275 OFFCURVE",
"38 326 OFFCURVE",
"50 411 CURVE SMOOTH",
"66 531 OFFCURVE",
"114 576 OFFCURVE",
"239 576 CURVE SMOOTH",
"350 576 OFFCURVE",
"399 529 OFFCURVE",
"386 436 CURVE SMOOTH",
"376 366 LINE",
"228 366 LINE",
"235 361 OFFCURVE",
"244 357 OFFCURVE",
"255 354 CURVE",
"254 355 LINE",
"255 354 OFFCURVE",
"257 354 OFFCURVE",
"260 353 CURVE SMOOTH",
"265 350 LINE",
"266 349 LINE",
"346 315 OFFCURVE",
"371 291 OFFCURVE",
"356 183 CURVE SMOOTH",
"338 57 OFFCURVE",
"268 11 OFFCURVE",
"155 11 CURVE SMOOTH"
);
},
{
closed = 1;
nodes = (
"263 20 OFFCURVE",
"331 64 OFFCURVE",
"347 183 CURVE SMOOTH",
"362 284 OFFCURVE",
"338 310 OFFCURVE",
"261 341 CURVE SMOOTH",
"222 359 OFFCURVE",
"194 362 OFFCURVE",
"202 416 CURVE SMOOTH",
"206 443 OFFCURVE",
"211 465 OFFCURVE",
"226 465 CURVE SMOOTH",
"235 465 OFFCURVE",
"240 459 OFFCURVE",
"239 446 CURVE SMOOTH",
"238 433 OFFCURVE",
"236 415 OFFCURVE",
"233 390 CURVE SMOOTH",
"231 376 LINE",
"368 376 LINE",
"377 436 LINE SMOOTH",
"389 523 OFFCURVE",
"343 566 OFFCURVE",
"238 566 CURVE SMOOTH",
"119 566 OFFCURVE",
"74 527 OFFCURVE",
"58 411 CURVE SMOOTH",
"47 328 OFFCURVE",
"58 282 OFFCURVE",
"119 251 CURVE SMOOTH",
"180 221 OFFCURVE",
"205 210 OFFCURVE",
"197 151 CURVE SMOOTH",
"194 130 OFFCURVE",
"191 116 OFFCURVE",
"188 110 CURVE SMOOTH",
"185 104 OFFCURVE",
"180 101 OFFCURVE",
"173 101 CURVE SMOOTH",
"167 101 OFFCURVE",
"163 104 OFFCURVE",
"161 111 CURVE SMOOTH",
"159 118 OFFCURVE",
"160 133 OFFCURVE",
"163 158 CURVE SMOOTH",
"168 198 LINE",
"24 198 LINE",
"22 181 LINE SMOOTH",
"4 58 OFFCURVE",
"47 20 OFFCURVE",
"156 20 CURVE SMOOTH"
);
},
{
closed = 1;
nodes = (
"224 390 LINE SMOOTH",
"227 411 OFFCURVE",
"230 428 OFFCURVE",
"231 439 CURVE SMOOTH",
"232 450 OFFCURVE",
"230 456 OFFCURVE",
"225 456 CURVE SMOOTH",
"221 456 OFFCURVE",
"218 452 OFFCURVE",
"216 444 CURVE SMOOTH",
"213 436 OFFCURVE",
"211 427 OFFCURVE",
"210 416 CURVE SMOOTH",
"207 393 OFFCURVE",
"211 380 OFFCURVE",
"222 371 CURVE"
);
},
{
closed = 1;
nodes = (
"193 -168 OFFCURVE",
"237 -134 OFFCURVE",
"243 -94 CURVE SMOOTH",
"247 -64 OFFCURVE",
"230 -33 OFFCURVE",
"188 -33 CURVE SMOOTH",
"170 -33 OFFCURVE",
"157 -38 OFFCURVE",
"148 -43 CURVE",
"154 -47 LINE",
"187 0 LINE",
"130 0 LINE",
"91 -58 LINE",
"128 -80 LINE",
"131 -78 OFFCURVE",
"136 -74 OFFCURVE",
"144 -74 CURVE SMOOTH",
"154 -74 OFFCURVE",
"161 -79 OFFCURVE",
"159 -91 CURVE SMOOTH",
"157 -106 OFFCURVE",
"146 -115 OFFCURVE",
"129 -115 CURVE SMOOTH",
"113 -115 OFFCURVE",
"97 -107 OFFCURVE",
"90 -100 CURVE",
"64 -147 LINE",
"72 -153 OFFCURVE",
"98 -168 OFFCURVE",
"128 -168 CURVE SMOOTH"
);
},
{
closed = 1;
nodes = (
"198 -174 OFFCURVE",
"240 -139 OFFCURVE",
"244 -99 CURVE SMOOTH",
"247 -70 OFFCURVE",
"227 -39 OFFCURVE",
"187 -39 CURVE SMOOTH",
"168 -39 OFFCURVE",
"155 -45 OFFCURVE",
"146 -49 CURVE",
"153 -53 LINE",
"187 32 LINE",
"141 32 LINE",
"91 -64 LINE",
"129 -86 LINE",
"132 -84 OFFCURVE",
"137 -80 OFFCURVE",
"145 -80 CURVE SMOOTH",
"155 -80 OFFCURVE",
"163 -86 OFFCURVE",
"162 -98 CURVE SMOOTH",
"161 -112 OFFCURVE",
"149 -121 OFFCURVE",
"131 -121 CURVE SMOOTH",
"118 -121 OFFCURVE",
"98 -114 OFFCURVE",
"90 -106 CURVE",
"67 -153 LINE",
"76 -159 OFFCURVE",
"103 -174 OFFCURVE",
"132 -174 CURVE SMOOTH"
);
}
);
};
components = (
{
name = S;
},
{
name = cedillacomb;
transform = "{1, 0, 0, 1, 119, 0}";
}
);
layerId = "6544E2DB-1912-401E-9B5B-A29F161A5995";
width = 387;
}
);
leftKerningGroup = S;
leftMetricsKey = S;
rightKerningGroup = S;
rightMetricsKey = S;
unicode = 015E;
},
{
glyphname = Germandbls;
lastChange = "2021-12-07 23:32:14 +0000";
layers = (
{
background = {
paths = (
{
closed = 1;
nodes = (
"240 0 LINE SMOOTH",
"347 0 OFFCURVE",
"414 39 OFFCURVE",
"429 151 CURVE SMOOTH",
"440 228 LINE SMOOTH",
"448 285 OFFCURVE",
"437 325 OFFCURVE",
"407 347 CURVE",
"437 372 OFFCURVE",
"451 407 OFFCURVE",
"457 450 CURVE SMOOTH",
"466 513 LINE SMOOTH",
"477 592 OFFCURVE",
"408 642 OFFCURVE",
"295 642 CURVE SMOOTH",
"162 642 OFFCURVE",
"74 621 OFFCURVE",
"54 497 CURVE",
"35 361 LINE",
"-17 1 LINE",
"-6 1 OFFCURVE",
"-23 1 OFFCURVE",
"170 0 CURVE"
);
},
{
closed = 1;
nodes = (
"214 271 LINE",
"238 270 LINE",
"226 175 LINE",
"225 171 LINE SMOOTH",
"223 158 OFFCURVE",
"220 133 OFFCURVE",
"223 130 CURVE",
"194 130 LINE"
);
},
{
closed = 1;
nodes = (
"55 380 LINE",
"69 479 LINE",
"71 493 LINE SMOOTH",
"87 606 OFFCURVE",
"169 624 OFFCURVE",
"292 624 CURVE SMOOTH",
"396 624 OFFCURVE",
"457 581 OFFCURVE",
"448 513 CURVE SMOOTH",
"439 450 LINE SMOOTH",
"433 405 OFFCURVE",
"410 364 OFFCURVE",
"372 343 CURVE",
"410 328 OFFCURVE",
"432 292 OFFCURVE",
"423 228 CURVE SMOOTH",
"412 151 LINE SMOOTH",
"398 52 OFFCURVE",
"339 19 OFFCURVE",
"243 19 CURVE SMOOTH",
"168 19 LINE",
"181 111 LINE",
"222 111 LINE SMOOTH",
"235 111 OFFCURVE",
"239 150 OFFCURVE",
"242 171 CURVE SMOOTH",
"243 175 LINE",
"255 274 LINE SMOOTH",
"256 280 OFFCURVE",
"256 284 OFFCURVE",
"253 287 CURVE SMOOTH",
"252 288 OFFCURVE",
"251 289 OFFCURVE",
"250 289 CURVE SMOOTH",
"211 291 LINE",
"224 383 LINE",
"257 383 LINE SMOOTH",
"264 383 OFFCURVE",
"269 387 OFFCURVE",
"272 396 CURVE SMOOTH",
"275 405 OFFCURVE",
"277 417 OFFCURVE",
"280 432 CURVE SMOOTH",
"286 476 LINE SMOOTH",
"291 515 OFFCURVE",
"295 536 OFFCURVE",
"264 536 CURVE SMOOTH",
"239 536 OFFCURVE",
"232 521 OFFCURVE",
"228 490 CURVE SMOOTH",
"162 19 LINE",
"5 19 LINE"
);
},
{
closed = 1;
nodes = (
"244 28 LINE SMOOTH",
"332 28 OFFCURVE",
"390 58 OFFCURVE",
"403 151 CURVE SMOOTH",
"414 228 LINE SMOOTH",
"425 305 OFFCURVE",
"387 341 OFFCURVE",
"331 341 CURVE",
"331 343 LINE",
"392 350 OFFCURVE",
"422 394 OFFCURVE",
"430 450 CURVE SMOOTH",
"439 513 LINE SMOOTH",
"448 576 OFFCURVE",
"388 614 OFFCURVE",
"291 614 CURVE SMOOTH",
"172 614 OFFCURVE",
"94 596 OFFCURVE",
"80 493 CURVE SMOOTH",
"77 470 LINE",
"66 389 LINE",
"15 29 LINE",
"154 29 LINE",
"219 490 LINE SMOOTH",
"224 527 OFFCURVE",
"233 546 OFFCURVE",
"265 546 CURVE SMOOTH",
"304 546 OFFCURVE",
"301 520 OFFCURVE",
"295 476 CURVE SMOOTH",
"289 432 LINE SMOOTH",
"283 396 OFFCURVE",
"278 374 OFFCURVE",
"255 374 CURVE SMOOTH",
"231 374 LINE",
"221 300 LINE",
"251 298 LINE SMOOTH",
"254 298 OFFCURVE",
"256 297 OFFCURVE",
"258 295 CURVE SMOOTH",
"262 292 OFFCURVE",
"265 286 OFFCURVE",
"264 274 CURVE",
"252 175 LINE SMOOTH",
"248 152 OFFCURVE",
"243 102 OFFCURVE",
"220 102 CURVE SMOOTH",
"188 102 LINE",
"178 28 LINE"
);
},
{
closed = 1;
nodes = (
"245 490 LINE SMOOTH",
"247 509 OFFCURVE",
"253 518 OFFCURVE",
"262 518 CURVE SMOOTH",
"268 518 OFFCURVE",
"271 514 OFFCURVE",
"271 507 CURVE SMOOTH",
"271 500 OFFCURVE",
"269 489 OFFCURVE",
"268 476 CURVE SMOOTH",
"262 432 LINE SMOOTH",
"259 412 OFFCURVE",
"258 409 OFFCURVE",
"257 402 CURVE",
"232 402 LINE"
);
}
);
};
layerId = "6544E2DB-1912-401E-9B5B-A29F161A5995";
paths = (
{
closed = 1;
nodes = (
"240 0 LINE SMOOTH",
"347 0 OFFCURVE",
"414 39 OFFCURVE",
"429 151 CURVE SMOOTH",
"440 228 LINE SMOOTH",
"448 285 OFFCURVE",
"437 325 OFFCURVE",
"407 347 CURVE",
"437 372 OFFCURVE",
"451 407 OFFCURVE",
"457 450 CURVE SMOOTH",
"466 513 LINE SMOOTH",
"477 592 OFFCURVE",
"408 642 OFFCURVE",
"295 642 CURVE SMOOTH",
"162 642 OFFCURVE",
"74 621 OFFCURVE",
"54 497 CURVE",
"35 361 LINE",
"-17 1 LINE",
"-6 1 OFFCURVE",
"-23 1 OFFCURVE",
"170 0 CURVE"
);
},
{
closed = 1;
nodes = (
"214 271 LINE",
"238 270 LINE",
"226 175 LINE",
"225 171 LINE SMOOTH",
"223 158 OFFCURVE",
"220 133 OFFCURVE",
"223 130 CURVE",
"194 130 LINE"
);
},
{
closed = 1;
nodes = (
"55 380 LINE",
"69 479 LINE",
"71 493 LINE SMOOTH",
"87 606 OFFCURVE",
"169 624 OFFCURVE",
"292 624 CURVE SMOOTH",
"396 624 OFFCURVE",
"457 581 OFFCURVE",
"448 513 CURVE SMOOTH",
"439 450 LINE SMOOTH",
"433 405 OFFCURVE",
"410 364 OFFCURVE",
"372 343 CURVE",
"410 328 OFFCURVE",
"432 292 OFFCURVE",
"423 228 CURVE SMOOTH",
"412 151 LINE SMOOTH",
"398 52 OFFCURVE",
"339 19 OFFCURVE",
"243 19 CURVE SMOOTH",
"168 19 LINE",
"181 111 LINE",
"222 111 LINE SMOOTH",
"235 111 OFFCURVE",
"239 150 OFFCURVE",
"242 171 CURVE SMOOTH",
"243 175 LINE",
"255 274 LINE SMOOTH",
"256 280 OFFCURVE",
"256 284 OFFCURVE",
"253 287 CURVE SMOOTH",
"252 288 OFFCURVE",
"251 289 OFFCURVE",
"250 289 CURVE SMOOTH",
"211 291 LINE",
"224 383 LINE",
"257 383 LINE SMOOTH",
"264 383 OFFCURVE",
"269 387 OFFCURVE",
"272 396 CURVE SMOOTH",
"275 405 OFFCURVE",
"277 417 OFFCURVE",
"280 432 CURVE SMOOTH",
"286 476 LINE SMOOTH",
"291 515 OFFCURVE",
"295 536 OFFCURVE",
"264 536 CURVE SMOOTH",
"239 536 OFFCURVE",
"232 521 OFFCURVE",
"228 490 CURVE SMOOTH",
"162 19 LINE",
"5 19 LINE"
);
},
{
closed = 1;
nodes = (
"244 28 LINE SMOOTH",
"332 28 OFFCURVE",
"390 58 OFFCURVE",
"403 151 CURVE SMOOTH",
"414 228 LINE SMOOTH",
"425 305 OFFCURVE",
"387 341 OFFCURVE",
"331 341 CURVE",
"331 343 LINE",
"392 350 OFFCURVE",
"422 394 OFFCURVE",
"430 450 CURVE SMOOTH",
"439 513 LINE SMOOTH",
"448 576 OFFCURVE",
"388 614 OFFCURVE",
"291 614 CURVE SMOOTH",
"172 614 OFFCURVE",
"94 596 OFFCURVE",
"80 493 CURVE SMOOTH",
"77 470 LINE",
"66 389 LINE",
"15 29 LINE",
"154 29 LINE",
"219 490 LINE SMOOTH",
"224 527 OFFCURVE",
"233 546 OFFCURVE",
"265 546 CURVE SMOOTH",
"304 546 OFFCURVE",
"301 520 OFFCURVE",
"295 476 CURVE SMOOTH",
"289 432 LINE SMOOTH",
"283 396 OFFCURVE",
"278 374 OFFCURVE",
"255 374 CURVE SMOOTH",
"231 374 LINE",
"221 300 LINE",
"251 298 LINE SMOOTH",
"254 298 OFFCURVE",
"256 297 OFFCURVE",
"258 295 CURVE SMOOTH",
"262 292 OFFCURVE",
"265 286 OFFCURVE",
"264 274 CURVE",
"252 175 LINE SMOOTH",
"248 152 OFFCURVE",
"243 102 OFFCURVE",
"220 102 CURVE SMOOTH",
"188 102 LINE",
"178 28 LINE"
);
},
{
closed = 1;
nodes = (
"245 490 LINE SMOOTH",
"247 509 OFFCURVE",
"253 518 OFFCURVE",
"262 518 CURVE SMOOTH",
"268 518 OFFCURVE",
"271 514 OFFCURVE",
"271 507 CURVE SMOOTH",
"271 500 OFFCURVE",
"269 489 OFFCURVE",
"268 476 CURVE SMOOTH",
"262 432 LINE SMOOTH",
"259 412 OFFCURVE",
"258 409 OFFCURVE",
"257 402 CURVE",
"232 402 LINE"
);
}
);
width = 454;
}
);
unicode = 1E9E;
},
{
glyphname = Schwa;
lastChange = "2021-12-07 23:32:14 +0000";
layers = (
{
background = {
paths = (
{
closed = 1;
nodes = (
"263 -9 OFFCURVE",
"334 33 OFFCURVE",
"352 161 CURVE SMOOTH",
"383 381 LINE SMOOTH",
"409 567 OFFCURVE",
"359 601 OFFCURVE",
"235 601 CURVE SMOOTH",
"115 601 OFFCURVE",
"52 567 OFFCURVE",
"26 381 CURVE SMOOTH",
"-5 161 LINE SMOOTH",
"-23 33 OFFCURVE",
"35 -9 OFFCURVE",
"149 -9 CURVE SMOOTH"
);
},
{
closed = 1;
nodes = (
"159 108 OFFCURVE",
"153 114 OFFCURVE",
"154 124 CURVE SMOOTH",
"167 216 LINE",
"198 216 LINE",
"186 128 LINE SMOOTH",
"183 113 OFFCURVE",
"176 108 OFFCURVE",
"167 108 CURVE SMOOTH"
);
},
{
closed = 1;
nodes = (
"175 118 OFFCURVE",
"176 122 OFFCURVE",
"178 136 CURVE SMOOTH",
"188 207 LINE",
"175 207 LINE",
"165 136 LINE SMOOTH",
"163 122 OFFCURVE",
"162 118 OFFCURVE",
"169 118 CURVE SMOOTH"
);
},
{
closed = 1;
nodes = (
"49 13 OFFCURVE",
"-4 47 OFFCURVE",
"12 161 CURVE SMOOTH",
"31 296 LINE",
"201 296 LINE",
"223 454 LINE SMOOTH",
"225 465 OFFCURVE",
"226 476 OFFCURVE",
"221 476 CURVE SMOOTH",
"216 476 OFFCURVE",
"214 465 OFFCURVE",
"212 454 CURVE SMOOTH",
"198 350 LINE",
"39 350 LINE",
"43 381 LINE SMOOTH",
"66 548 OFFCURVE",
"121 583 OFFCURVE",
"232 583 CURVE SMOOTH",
"342 583 OFFCURVE",
"388 549 OFFCURVE",
"365 381 CURVE SMOOTH",
"334 161 LINE SMOOTH",
"318 47 OFFCURVE",
"255 13 OFFCURVE",
"152 13 CURVE SMOOTH"
);
},
{
closed = 1;
nodes = (
"253 23 OFFCURVE",
"311 55 OFFCURVE",
"326 161 CURVE SMOOTH",
"357 381 LINE SMOOTH",
"379 538 OFFCURVE",
"336 574 OFFCURVE",
"231 574 CURVE SMOOTH",
"127 574 OFFCURVE",
"75 538 OFFCURVE",
"53 381 CURVE SMOOTH",
"50 359 LINE",
"191 359 LINE",
"204 454 LINE SMOOTH",
"206 469 OFFCURVE",
"209 485 OFFCURVE",
"222 485 CURVE SMOOTH",
"231 485 OFFCURVE",
"234 476 OFFCURVE",
"231 454 CURVE SMOOTH",
"208 287 LINE",
"39 287 LINE",
"21 161 LINE SMOOTH",
"6 55 OFFCURVE",
"56 23 OFFCURVE",
"154 23 CURVE SMOOTH"
);
}
);
};
layerId = "6544E2DB-1912-401E-9B5B-A29F161A5995";
paths = (
{
closed = 1;
nodes = (
"263 -9 OFFCURVE",
"334 33 OFFCURVE",
"352 161 CURVE SMOOTH",
"383 381 LINE SMOOTH",
"409 567 OFFCURVE",
"359 601 OFFCURVE",
"235 601 CURVE SMOOTH",
"115 601 OFFCURVE",
"52 567 OFFCURVE",
"26 381 CURVE SMOOTH",
"-5 161 LINE SMOOTH",
"-23 33 OFFCURVE",
"35 -9 OFFCURVE",
"149 -9 CURVE SMOOTH"
);
},
{
closed = 1;
nodes = (
"159 108 OFFCURVE",
"153 114 OFFCURVE",
"154 124 CURVE SMOOTH",
"167 216 LINE",
"198 216 LINE",
"186 128 LINE SMOOTH",
"183 113 OFFCURVE",
"176 108 OFFCURVE",
"167 108 CURVE SMOOTH"
);
},
{
closed = 1;
nodes = (
"175 118 OFFCURVE",
"176 122 OFFCURVE",
"178 136 CURVE SMOOTH",
"188 207 LINE",
"175 207 LINE",
"165 136 LINE SMOOTH",
"163 122 OFFCURVE",
"162 118 OFFCURVE",
"169 118 CURVE SMOOTH"
);
},
{
closed = 1;
nodes = (
"49 13 OFFCURVE",
"-4 47 OFFCURVE",
"12 161 CURVE SMOOTH",
"31 296 LINE",
"201 296 LINE",
"223 454 LINE SMOOTH",
"225 465 OFFCURVE",
"226 476 OFFCURVE",
"221 476 CURVE SMOOTH",
"216 476 OFFCURVE",
"214 465 OFFCURVE",
"212 454 CURVE SMOOTH",
"198 350 LINE",
"39 350 LINE",
"43 381 LINE SMOOTH",
"66 548 OFFCURVE",
"121 583 OFFCURVE",
"232 583 CURVE SMOOTH",
"342 583 OFFCURVE",
"388 549 OFFCURVE",
"365 381 CURVE SMOOTH",
"334 161 LINE SMOOTH",
"318 47 OFFCURVE",
"255 13 OFFCURVE",
"152 13 CURVE SMOOTH"
);
},
{
closed = 1;
nodes = (
"253 23 OFFCURVE",
"311 55 OFFCURVE",
"326 161 CURVE SMOOTH",
"357 381 LINE SMOOTH",
"379 538 OFFCURVE",
"336 574 OFFCURVE",
"231 574 CURVE SMOOTH",
"127 574 OFFCURVE",
"75 538 OFFCURVE",
"53 381 CURVE SMOOTH",
"50 359 LINE",
"191 359 LINE",
"204 454 LINE SMOOTH",
"206 469 OFFCURVE",
"209 485 OFFCURVE",
"222 485 CURVE SMOOTH",
"231 485 OFFCURVE",
"234 476 OFFCURVE",
"231 454 CURVE SMOOTH",
"208 287 LINE",
"39 287 LINE",
"21 161 LINE SMOOTH",
"6 55 OFFCURVE",
"56 23 OFFCURVE",
"154 23 CURVE SMOOTH"
);
}
);
width = 371;
}
);
rightKerningGroup = o;
unicode = 018F;
},
{
glyphname = T;
lastChange = "2022-02-25 00:39:36 +0000";
layers = (
{
anchors = (
{
name = bottom;
position = "{137, 0}";
},
{
name = center;
position = "{175, 296}";
},
{
name = top;
position = "{216, 591}";
}
);
background = {
anchors = (
{
name = bottom;
position = "{137, 0}";
},
{
name = center;
position = "{175, 296}";
},
{
name = top;
position = "{216, 591}";
}
);
paths = (
{
closed = 1;
nodes = (
"226 0 LINE",
"287 436 LINE",
"358 436 LINE",
"380 591 LINE",
"51 591 LINE",
"29 436 LINE",
"101 436 LINE",
"40 0 LINE"
);
},
{
closed = 1;
nodes = (
"120 454 LINE",
"48 454 LINE",
"65 573 LINE",
"361 573 LINE",
"344 454 LINE",
"272 454 LINE",
"211 18 LINE",
"59 18 LINE"
);
},
{
closed = 1;
nodes = (
"203 27 LINE",
"265 463 LINE",
"337 463 LINE",
"351 564 LINE",
"73 564 LINE",
"59 463 LINE",
"131 463 LINE",
"69 27 LINE"
);
}
);
};
layerId = "6544E2DB-1912-401E-9B5B-A29F161A5995";
paths = (
{
closed = 1;
nodes = (
"226 0 LINE",
"287 436 LINE",
"358 436 LINE",
"380 591 LINE",
"51 591 LINE",
"29 436 LINE",
"101 436 LINE",
"40 0 LINE"
);
},
{
closed = 1;
nodes = (
"120 454 LINE",
"48 454 LINE",
"65 573 LINE",
"361 573 LINE",
"344 454 LINE",
"272 454 LINE",
"211 18 LINE",
"59 18 LINE"
);
},
{
closed = 1;
nodes = (
"203 27 LINE",
"265 463 LINE",
"337 463 LINE",
"351 564 LINE",
"73 564 LINE",
"59 463 LINE",
"131 463 LINE",
"69 27 LINE"
);
}
);
userData = {
assembly = "SVTCA[0]	/* SetFreedomAndProjectionVectorToAxis */\012PUSHW[ ]	/* 1 value pushed */\0121 \012MDAP[1]	/* MoveDirectAbsPt */\012IUP[0]	/* InterpolateUntPts */\012IUP[1]	/* InterpolateUntPts */";
};
width = 335;
}
);
leftKerningGroup = T;
note = T;
rightKerningGroup = T;
unicode = 0054;
},
{
color = 3;
glyphname = Tbar;
lastChange = "2022-02-25 01:23:00 +0000";
layers = (
{
anchors = (
{
name = bottom;
position = "{134, 0}";
},
{
name = center;
position = "{188, 379}";
},
{
name = top;
position = "{217, 591}";
}
);
background = {
anchors = (
{
name = bottom;
position = "{134, 0}";
},
{
name = center;
position = "{188, 379}";
},
{
name = top;
position = "{217, 591}";
}
);
paths = (
{
closed = 1;
nodes = (
"227 0 LINE",
"263 257 LINE",
"292 257 LINE",
"302 334 LINE",
"274 334 LINE",
"288 436 LINE",
"359 436 LINE",
"381 591 LINE",
"52 591 LINE",
"30 436 LINE",
"102 436 LINE",
"88 334 LINE",
"60 334 LINE",
"50 257 LINE",
"77 257 LINE",
"41 0 LINE"
);
},
{
closed = 1;
nodes = (
"227 0 LINE",
"288 436 LINE",
"359 436 LINE",
"381 591 LINE",
"52 591 LINE",
"30 436 LINE",
"102 436 LINE",
"41 0 LINE"
);
},
{
closed = 1;
nodes = (
"121 454 LINE",
"49 454 LINE",
"66 573 LINE",
"362 573 LINE",
"345 454 LINE",
"273 454 LINE",
"212 18 LINE",
"60 18 LINE"
);
},
{
closed = 1;
nodes = (
"204 27 LINE",
"266 463 LINE",
"338 463 LINE",
"352 564 LINE",
"74 564 LINE",
"60 463 LINE",
"132 463 LINE",
"70 27 LINE"
);
},
{
closed = 1;
nodes = (
"253 264 LINE",
"261 315 LINE",
"89 315 LINE",
"81 264 LINE"
);
},
{
closed = 1;
nodes = (
"271 243 LINE",
"285 336 LINE",
"71 336 LINE",
"57 243 LINE"
);
},
{
closed = 1;
nodes = (
"83 322 LINE",
"269 322 LINE",
"259 257 LINE",
"73 257 LINE"
);
}
);
};
layerId = "6544E2DB-1912-401E-9B5B-A29F161A5995";
paths = (
{
closed = 1;
nodes = (
"204 27 LINE",
"237 257 LINE",
"279 257 LINE",
"291 334 LINE",
"248 334 LINE",
"266 463 LINE",
"338 463 LINE",
"352 564 LINE",
"74 564 LINE",
"60 463 LINE",
"132 463 LINE",
"114 334 LINE",
"76 334 LINE",
"64 258 LINE",
"103 258 LINE",
"70 27 LINE"
);
},
{
closed = 1;
nodes = (
"227 1 LINE",
"260 231 LINE",
"301 231 LINE",
"321 360 LINE",
"278 360 LINE",
"289 437 LINE",
"361 437 LINE",
"382 590 LINE",
"51 590 LINE",
"30 437 LINE",
"102 437 LINE",
"91 360 LINE",
"54 360 LINE",
"34 232 LINE",
"73 232 LINE",
"40 1 LINE"
);
},
{
closed = 1;
nodes = (
"94 250 LINE",
"55 250 LINE",
"69 342 LINE",
"107 342 LINE",
"123 455 LINE",
"51 455 LINE",
"67 572 LINE",
"361 572 LINE",
"345 455 LINE",
"273 455 LINE",
"257 342 LINE",
"300 342 LINE",
"286 249 LINE",
"244 249 LINE",
"211 19 LINE",
"61 19 LINE"
);
}
);
width = 337;
}
);
leftKerningGroup = T;
leftMetricsKey = T;
rightKerningGroup = T;
rightMetricsKey = T;
unicode = 0166;
},
{
color = 9;
glyphname = Tcedilla;
lastChange = "2022-02-25 00:30:15 +0000";
layers = (
{
background = {
anchors = (
{
name = bottom;
position = "{134, -253}";
},
{
name = center;
position = "{187, 379}";
},
{
name = top;
position = "{216, 591}";
}
);
paths = (
{
closed = 1;
nodes = (
"167 -168 OFFCURVE",
"211 -134 OFFCURVE",
"217 -94 CURVE SMOOTH",
"221 -64 OFFCURVE",
"204 -33 OFFCURVE",
"162 -33 CURVE SMOOTH",
"151 -33 OFFCURVE",
"142 -35 OFFCURVE",
"135 -37 CURVE",
"161 0 LINE",
"212 0 LINE",
"280 480 LINE",
"365 480 LINE",
"381 591 LINE",
"52 591 LINE",
"36 480 LINE",
"121 480 LINE",
"53 0 LINE",
"104 0 LINE",
"65 -58 LINE",
"102 -80 LINE",
"105 -78 OFFCURVE",
"110 -74 OFFCURVE",
"118 -74 CURVE SMOOTH",
"128 -74 OFFCURVE",
"135 -79 OFFCURVE",
"133 -91 CURVE SMOOTH",
"131 -106 OFFCURVE",
"120 -115 OFFCURVE",
"103 -115 CURVE SMOOTH",
"87 -115 OFFCURVE",
"71 -107 OFFCURVE",
"64 -100 CURVE",
"38 -147 LINE",
"46 -153 OFFCURVE",
"72 -168 OFFCURVE",
"102 -168 CURVE SMOOTH"
);
}
);
};
components = (
{
name = Tcommaaccent;
}
);
layerId = "6544E2DB-1912-401E-9B5B-A29F161A5995";
width = 335;
}
);
leftKerningGroup = T;
leftMetricsKey = T;
rightKerningGroup = T;
rightMetricsKey = T;
unicode = 0162;
},
{
glyphname = U;
lastChange = "2022-02-25 00:39:36 +0000";
layers = (
{
anchors = (
{
name = bottom;
position = "{153, 0}";
},
{
name = ogonek;
position = "{316, 10}";
},
{
name = top;
position = "{236, 591}";
},
{
name = topright;
position = "{417, 591}";
}
);
background = {
anchors = (
{
name = bottom;
position = "{153, 0}";
},
{
name = ogonek;
position = "{316, 10}";
},
{
name = top;
position = "{236, 591}";
},
{
name = topright;
position = "{417, 591}";
}
);
paths = (
{
closed = 1;
nodes = (
"270 -11 OFFCURVE",
"331 19 OFFCURVE",
"353 176 CURVE SMOOTH",
"412 592 LINE",
"60 592 LINE",
"1 176 LINE SMOOTH",
"-23 20 OFFCURVE",
"30 -11 OFFCURVE",
"151 -11 CURVE SMOOTH"
);
},
{
closed = 1;
nodes = (
"45 7 OFFCURVE",
"-3 35 OFFCURVE",
"18 176 CURVE SMOOTH",
"74 574 LINE",
"227 574 LINE",
"165 132 LINE SMOOTH",
"164 125 OFFCURVE",
"164 120 OFFCURVE",
"165 118 CURVE SMOOTH",
"166 115 OFFCURVE",
"168 114 OFFCURVE",
"169 114 CURVE SMOOTH",
"171 114 OFFCURVE",
"173 115 OFFCURVE",
"174 118 CURVE SMOOTH",
"175 120 OFFCURVE",
"176 125 OFFCURVE",
"177 132 CURVE SMOOTH",
"239 574 LINE",
"392 574 LINE",
"336 176 LINE SMOOTH",
"316 35 OFFCURVE",
"263 7 OFFCURVE",
"153 7 CURVE SMOOTH"
);
},
{
closed = 1;
nodes = (
"259 16 OFFCURVE",
"308 42 OFFCURVE",
"328 176 CURVE SMOOTH",
"383 565 LINE",
"247 565 LINE",
"186 132 LINE SMOOTH",
"183 111 OFFCURVE",
"176 105 OFFCURVE",
"167 105 CURVE SMOOTH",
"163 105 OFFCURVE",
"160 107 OFFCURVE",
"158 111 CURVE SMOOTH",
"156 114 OFFCURVE",
"156 121 OFFCURVE",
"157 132 CURVE SMOOTH",
"218 565 LINE",
"82 565 LINE",
"27 176 LINE SMOOTH",
"7 42 OFFCURVE",
"53 16 OFFCURVE",
"155 16 CURVE SMOOTH"
);
}
);
};
layerId = "6544E2DB-1912-401E-9B5B-A29F161A5995";
paths = (
{
closed = 1;
nodes = (
"270 -11 OFFCURVE",
"331 19 OFFCURVE",
"353 176 CURVE SMOOTH",
"412 592 LINE",
"60 592 LINE",
"1 176 LINE SMOOTH",
"-23 20 OFFCURVE",
"30 -11 OFFCURVE",
"151 -11 CURVE SMOOTH"
);
},
{
closed = 1;
nodes = (
"45 7 OFFCURVE",
"-3 35 OFFCURVE",
"18 176 CURVE SMOOTH",
"74 574 LINE",
"227 574 LINE",
"165 132 LINE SMOOTH",
"164 125 OFFCURVE",
"164 120 OFFCURVE",
"165 118 CURVE SMOOTH",
"166 115 OFFCURVE",
"168 114 OFFCURVE",
"169 114 CURVE SMOOTH",
"171 114 OFFCURVE",
"173 115 OFFCURVE",
"174 118 CURVE SMOOTH",
"175 120 OFFCURVE",
"176 125 OFFCURVE",
"177 132 CURVE SMOOTH",
"239 574 LINE",
"392 574 LINE",
"336 176 LINE SMOOTH",
"316 35 OFFCURVE",
"263 7 OFFCURVE",
"153 7 CURVE SMOOTH"
);
},
{
closed = 1;
nodes = (
"259 16 OFFCURVE",
"308 42 OFFCURVE",
"328 176 CURVE SMOOTH",
"383 565 LINE",
"247 565 LINE",
"186 132 LINE SMOOTH",
"183 111 OFFCURVE",
"176 105 OFFCURVE",
"167 105 CURVE SMOOTH",
"163 105 OFFCURVE",
"160 107 OFFCURVE",
"158 111 CURVE SMOOTH",
"156 114 OFFCURVE",
"156 121 OFFCURVE",
"157 132 CURVE SMOOTH",
"218 565 LINE",
"82 565 LINE",
"27 176 LINE SMOOTH",
"7 42 OFFCURVE",
"53 16 OFFCURVE",
"155 16 CURVE SMOOTH"
);
}
);
width = 375;
}
);
leftKerningGroup = U;
leftMetricsKey = "=O+5";
note = U;
rightKerningGroup = U;
rightMetricsKey = "=O+5";
unicode = 0055;
},
{
color = 3;
glyphname = Uhorn;
lastChange = "2022-02-25 00:37:50 +0000";
layers = (
{
background = {
anchors = (
{
name = bottom;
position = "{151, 0}";
},
{
name = ogonek;
position = "{212, 0}";
},
{
name = top;
position = "{234, 591}";
},
{
name = topright;
position = "{473, 658}";
}
);
paths = (
{
closed = 1;
nodes = (
"256 -12 OFFCURVE",
"328 4 OFFCURVE",
"350 164 CURVE SMOOTH",
"405 555 LINE",
"430 573 OFFCURVE",
"445 600 OFFCURVE",
"450 638 CURVE SMOOTH",
"452 658 LINE",
"352 658 LINE",
"350 638 LINE SMOOTH",
"345 608 OFFCURVE",
"330 591 OFFCURVE",
"301 591 CURVE SMOOTH",
"251 591 LINE",
"184 115 LINE SMOOTH",
"181 92 OFFCURVE",
"173 85 OFFCURVE",
"163 85 CURVE SMOOTH",
"153 85 OFFCURVE",
"147 92 OFFCURVE",
"150 115 CURVE SMOOTH",
"217 591 LINE",
"58 591 LINE",
"-2 163 LINE SMOOTH",
"-24 4 OFFCURVE",
"44 -12 OFFCURVE",
"150 -12 CURVE SMOOTH"
);
}
);
};
layerId = "6544E2DB-1912-401E-9B5B-A29F161A5995";
paths = (
{
closed = 1;
nodes = (
"281 -11 OFFCURVE",
"335 39 OFFCURVE",
"354 176 CURVE SMOOTH",
"398 490 LINE",
"460 503 OFFCURVE",
"490 542 OFFCURVE",
"501 619 CURVE SMOOTH",
"507 663 LINE",
"364 663 LINE",
"358 619 LINE SMOOTH",
"355 597 OFFCURVE",
"350 592 OFFCURVE",
"345 592 CURVE SMOOTH",
"59 592 LINE",
"1 176 LINE SMOOTH",
"-18 39 OFFCURVE",
"22 -11 OFFCURVE",
"151 -11 CURVE SMOOTH"
);
},
{
closed = 1;
nodes = (
"35 7 OFFCURVE",
"1 49 OFFCURVE",
"19 176 CURVE SMOOTH",
"75 574 LINE",
"227 574 LINE",
"164 129 LINE SMOOTH",
"163 117 OFFCURVE",
"164 113 OFFCURVE",
"168 113 CURVE SMOOTH",
"173 113 OFFCURVE",
"175 115 OFFCURVE",
"177 129 CURVE SMOOTH",
"240 574 LINE",
"343 574 LINE SMOOTH",
"361 574 OFFCURVE",
"372 588 OFFCURVE",
"376 619 CURVE SMOOTH",
"380 645 LINE",
"487 645 LINE",
"483 619 LINE SMOOTH",
"473 545 OFFCURVE",
"445 513 OFFCURVE",
"382 505 CURVE",
"336 176 LINE SMOOTH",
"318 49 OFFCURVE",
"272 7 OFFCURVE",
"153 7 CURVE SMOOTH"
);
},
{
closed = 1;
nodes = (
"256 15 OFFCURVE",
"309 41 OFFCURVE",
"328 176 CURVE SMOOTH",
"375 512 LINE",
"439 518 OFFCURVE",
"465 546 OFFCURVE",
"475 619 CURVE SMOOTH",
"478 637 LINE",
"387 637 LINE",
"384 619 LINE SMOOTH",
"380 586 OFFCURVE",
"366 566 OFFCURVE",
"342 566 CURVE SMOOTH",
"247 566 LINE",
"185 129 LINE SMOOTH",
"183 114 OFFCURVE",
"179 105 OFFCURVE",
"167 105 CURVE SMOOTH",
"157 105 OFFCURVE",
"154 114 OFFCURVE",
"156 129 CURVE SMOOTH",
"218 566 LINE",
"82 566 LINE",
"27 176 LINE SMOOTH",
"8 41 OFFCURVE",
"53 15 OFFCURVE",
"154 15 CURVE SMOOTH"
);
}
);
width = 375;
}
);
leftKerningGroup = U;
leftMetricsKey = U;
rightKerningGroup = U;
unicode = 01AF;
},
{
color = 8;
glyphname = Uogonek;
lastChange = "2022-02-25 00:37:42 +0000";
layers = (
{
background = {
anchors = (
{
name = bottom;
position = "{152, 0}";
},
{
name = ogonek;
position = "{213, 0}";
},
{
name = top;
position = "{235, 591}";
},
{
name = topright;
position = "{281, 591}";
}
);
paths = (
{
closed = 1;
nodes = (
"270 -11 OFFCURVE",
"331 19 OFFCURVE",
"353 176 CURVE SMOOTH",
"412 592 LINE",
"60 592 LINE",
"1 176 LINE SMOOTH",
"-23 20 OFFCURVE",
"30 -11 OFFCURVE",
"151 -11 CURVE SMOOTH"
);
},
{
closed = 1;
nodes = (
"45 7 OFFCURVE",
"-3 35 OFFCURVE",
"18 176 CURVE SMOOTH",
"74 574 LINE",
"227 574 LINE",
"165 132 LINE SMOOTH",
"164 125 OFFCURVE",
"164 120 OFFCURVE",
"165 118 CURVE SMOOTH",
"166 115 OFFCURVE",
"168 114 OFFCURVE",
"169 114 CURVE SMOOTH",
"171 114 OFFCURVE",
"173 115 OFFCURVE",
"174 118 CURVE SMOOTH",
"175 120 OFFCURVE",
"176 125 OFFCURVE",
"177 132 CURVE SMOOTH",
"239 574 LINE",
"392 574 LINE",
"336 176 LINE SMOOTH",
"316 35 OFFCURVE",
"263 7 OFFCURVE",
"153 7 CURVE SMOOTH"
);
},
{
closed = 1;
nodes = (
"259 16 OFFCURVE",
"308 42 OFFCURVE",
"328 176 CURVE SMOOTH",
"383 565 LINE",
"247 565 LINE",
"186 132 LINE SMOOTH",
"183 111 OFFCURVE",
"176 105 OFFCURVE",
"167 105 CURVE SMOOTH",
"163 105 OFFCURVE",
"160 107 OFFCURVE",
"158 111 CURVE SMOOTH",
"156 114 OFFCURVE",
"156 121 OFFCURVE",
"157 132 CURVE SMOOTH",
"218 565 LINE",
"82 565 LINE",
"27 176 LINE SMOOTH",
"7 42 OFFCURVE",
"53 16 OFFCURVE",
"155 16 CURVE SMOOTH"
);
},
{
closed = 1;
nodes = (
"190 -141 OFFCURVE",
"212 -127 OFFCURVE",
"220 -123 CURVE",
"208 -86 LINE",
"205 -86 OFFCURVE",
"199 -89 OFFCURVE",
"190 -89 CURVE SMOOTH",
"174 -89 OFFCURVE",
"155 -75 OFFCURVE",
"158 -51 CURVE SMOOTH",
"161 -29 OFFCURVE",
"180 0 OFFCURVE",
"217 10 CURVE",
"159 12 LINE",
"103 7 OFFCURVE",
"62 -36 OFFCURVE",
"57 -73 CURVE SMOOTH",
"52 -107 OFFCURVE",
"82 -141 OFFCURVE",
"140 -141 CURVE SMOOTH"
);
},
{
closed = 1;
nodes = (
"259 16 OFFCURVE",
"309 42 OFFCURVE",
"328 176 CURVE SMOOTH",
"383 565 LINE",
"247 565 LINE",
"186 132 LINE SMOOTH",
"183 111 OFFCURVE",
"176 105 OFFCURVE",
"167 105 CURVE SMOOTH",
"158 105 OFFCURVE",
"154 114 OFFCURVE",
"157 132 CURVE SMOOTH",
"218 565 LINE",
"82 565 LINE",
"27 176 LINE SMOOTH",
"8 42 OFFCURVE",
"53 16 OFFCURVE",
"155 16 CURVE SMOOTH"
);
},
{
closed = 1;
nodes = (
"195 -141 OFFCURVE",
"217 -127 OFFCURVE",
"224 -123 CURVE",
"211 -86 LINE",
"208 -87 OFFCURVE",
"202 -89 OFFCURVE",
"193 -89 CURVE SMOOTH",
"173 -89 OFFCURVE",
"156 -80 OFFCURVE",
"156 -54 CURVE SMOOTH",
"156 -24 OFFCURVE",
"189 9 OFFCURVE",
"235 27 CURVE",
"176 29 LINE",
"124 18 OFFCURVE",
"65 -29 OFFCURVE",
"65 -76 CURVE SMOOTH",
"65 -113 OFFCURVE",
"91 -141 OFFCURVE",
"145 -141 CURVE SMOOTH"
);
}
);
};
layerId = "6544E2DB-1912-401E-9B5B-A29F161A5995";
paths = (
{
closed = 1;
nodes = (
"179 -156 OFFCURVE",
"216 -141 OFFCURVE",
"234 -124 CURVE",
"225 -45 LINE",
"215 -50 OFFCURVE",
"199 -59 OFFCURVE",
"187 -59 CURVE SMOOTH",
"180 -59 OFFCURVE",
"176 -56 OFFCURVE",
"178 -48 CURVE SMOOTH",
"179 -35 OFFCURVE",
"186 -23 OFFCURVE",
"198 -9 CURVE",
"292 3 OFFCURVE",
"337 57 OFFCURVE",
"354 176 CURVE SMOOTH",
"413 592 LINE",
"60 592 LINE",
"1 176 LINE SMOOTH",
"-15 63 OFFCURVE",
"11 9 OFFCURVE",
"91 -6 CURVE",
"72 -29 OFFCURVE",
"61 -51 OFFCURVE",
"58 -74 CURVE SMOOTH",
"51 -122 OFFCURVE",
"86 -156 OFFCURVE",
"140 -156 CURVE SMOOTH"
);
},
{
closed = 1;
nodes = (
"99 -139 OFFCURVE",
"71 -112 OFFCURVE",
"76 -74 CURVE SMOOTH",
"81 -40 OFFCURVE",
"104 -14 OFFCURVE",
"127 8 CURVE",
"30 13 OFFCURVE",
"3 59 OFFCURVE",
"19 176 CURVE SMOOTH",
"75 574 LINE",
"227 574 LINE",
"164 129 LINE SMOOTH",
"163 117 OFFCURVE",
"164 113 OFFCURVE",
"168 113 CURVE SMOOTH",
"173 113 OFFCURVE",
"176 115 OFFCURVE",
"177 129 CURVE SMOOTH",
"240 574 LINE",
"392 574 LINE",
"336 176 LINE SMOOTH",
"320 63 OFFCURVE",
"281 17 OFFCURVE",
"193 8 CURVE",
"175 -10 OFFCURVE",
"162 -29 OFFCURVE",
"159 -51 CURVE SMOOTH",
"157 -67 OFFCURVE",
"166 -76 OFFCURVE",
"182 -76 CURVE SMOOTH",
"198 -76 OFFCURVE",
"208 -69 OFFCURVE",
"210 -69 CURVE",
"214 -121 LINE",
"203 -131 OFFCURVE",
"170 -139 OFFCURVE",
"146 -139 CURVE SMOOTH"
);
},
{
closed = 1;
nodes = (
"173 -131 OFFCURVE",
"198 -123 OFFCURVE",
"206 -118 CURVE",
"203 -80 LINE",
"199 -81 OFFCURVE",
"192 -84 OFFCURVE",
"181 -84 CURVE SMOOTH",
"164 -84 OFFCURVE",
"148 -75 OFFCURVE",
"151 -51 CURVE SMOOTH",
"155 -26 OFFCURVE",
"170 -3 OFFCURVE",
"191 16 CURVE",
"270 23 OFFCURVE",
"312 58 OFFCURVE",
"328 176 CURVE SMOOTH",
"383 566 LINE",
"247 566 LINE",
"185 129 LINE SMOOTH",
"183 114 OFFCURVE",
"179 105 OFFCURVE",
"167 105 CURVE SMOOTH",
"157 105 OFFCURVE",
"154 114 OFFCURVE",
"156 129 CURVE SMOOTH",
"218 566 LINE",
"82 566 LINE",
"27 176 LINE SMOOTH",
"9 45 OFFCURVE",
"51 16 OFFCURVE",
"146 15 CURVE",
"119 -8 OFFCURVE",
"89 -36 OFFCURVE",
"84 -74 CURVE SMOOTH",
"79 -108 OFFCURVE",
"104 -131 OFFCURVE",
"144 -131 CURVE SMOOTH"
);
}
);
width = 376;
}
);
leftKerningGroup = U;
leftMetricsKey = U;
rightKerningGroup = U;
rightMetricsKey = U;
unicode = 0172;
},
{
glyphname = V;
lastChange = "2022-02-25 00:39:36 +0000";
layers = (
{
background = {
paths = (
{
closed = 1;
nodes = (
"296 0 LINE",
"463 591 LINE",
"271 591 LINE",
"242 473 LINE",
"250 591 LINE",
"51 591 LINE",
"51 0 LINE"
);
},
{
closed = 1;
nodes = (
"68 573 LINE",
"230 573 LINE",
"214 275 LINE",
"283 573 LINE",
"440 573 LINE",
"283 18 LINE",
"68 18 LINE"
);
},
{
closed = 1;
nodes = (
"276 27 LINE",
"429 564 LINE",
"290 564 LINE",
"202 192 LINE",
"198 170 LINE",
"200 192 LINE",
"221 564 LINE",
"78 564 LINE",
"77 27 LINE"
);
}
);
};
layerId = "6544E2DB-1912-401E-9B5B-A29F161A5995";
paths = (
{
closed = 1;
nodes = (
"296 0 LINE",
"463 591 LINE",
"271 591 LINE",
"242 473 LINE",
"250 591 LINE",
"51 591 LINE",
"51 0 LINE"
);
},
{
closed = 1;
nodes = (
"68 573 LINE",
"230 573 LINE",
"214 275 LINE",
"283 573 LINE",
"440 573 LINE",
"283 18 LINE",
"68 18 LINE"
);
},
{
closed = 1;
nodes = (
"276 27 LINE",
"429 564 LINE",
"290 564 LINE",
"202 192 LINE",
"198 170 LINE",
"200 192 LINE",
"221 564 LINE",
"78 564 LINE",
"77 27 LINE"
);
}
);
userData = {
assembly = "SVTCA[0]	/* SetFreedomAndProjectionVectorToAxis */\012PUSHW[ ]	/* 1 value pushed */\0122 \012MDAP[1]	/* MoveDirectAbsPt */\012IUP[0]	/* InterpolateUntPts */\012IUP[1]	/* InterpolateUntPts */";
};
width = 418;
}
);
leftKerningGroup = V;
note = V;
rightKerningGroup = V;
unicode = 0056;
},
{
glyphname = W;
lastChange = "2022-02-25 00:39:36 +0000";
layers = (
{
anchors = (
{
name = bottom;
position = "{283, 0}";
},
{
name = top;
position = "{366, 591}";
}
);
background = {
anchors = (
{
name = bottom;
position = "{283, 0}";
},
{
name = top;
position = "{366, 591}";
}
);
paths = (
{
closed = 1;
nodes = (
"271 0 LINE",
"292 76 LINE",
"294 0 LINE",
"511 0 LINE",
"681 591 LINE",
"474 591 LINE",
"470 575 OFFCURVE",
"465 556 OFFCURVE",
"460 535 CURVE SMOOTH",
"445 476 LINE",
"451 591 LINE",
"279 591 LINE",
"253 483 LINE",
"258 591 LINE",
"51 591 LINE",
"54 0 LINE"
);
},
{
closed = 1;
nodes = (
"69 573 LINE",
"238 573 LINE",
"228 304 LINE",
"262 440 LINE SMOOTH",
"273 485 OFFCURVE",
"284 529 OFFCURVE",
"294 573 CURVE",
"431 573 LINE",
"420 304 LINE",
"431 349 OFFCURVE",
"443 395 OFFCURVE",
"454 440 CURVE SMOOTH",
"487 573 LINE",
"657 573 LINE",
"498 18 LINE",
"312 18 LINE",
"310 198 LINE",
"284 107 LINE SMOOTH",
"275 77 OFFCURVE",
"266 47 OFFCURVE",
"258 18 CURVE",
"72 18 LINE"
);
},
{
closed = 1;
nodes = (
"251 27 LINE",
"318 261 LINE",
"321 27 LINE",
"490 27 LINE",
"645 564 LINE",
"494 564 LINE",
"407 209 LINE",
"422 564 LINE",
"301 564 LINE",
"216 209 LINE",
"229 564 LINE",
"78 564 LINE",
"81 27 LINE"
);
}
);
};
layerId = "6544E2DB-1912-401E-9B5B-A29F161A5995";
paths = (
{
closed = 1;
nodes = (
"271 0 LINE",
"292 76 LINE",
"294 0 LINE",
"511 0 LINE",
"681 591 LINE",
"474 591 LINE",
"470 575 OFFCURVE",
"465 556 OFFCURVE",
"460 535 CURVE SMOOTH",
"445 476 LINE",
"451 591 LINE",
"279 591 LINE",
"253 483 LINE",
"258 591 LINE",
"51 591 LINE",
"54 0 LINE"
);
},
{
closed = 1;
nodes = (
"69 573 LINE",
"238 573 LINE",
"228 304 LINE",
"262 440 LINE SMOOTH",
"273 485 OFFCURVE",
"284 529 OFFCURVE",
"294 573 CURVE",
"431 573 LINE",
"420 304 LINE",
"431 349 OFFCURVE",
"443 395 OFFCURVE",
"454 440 CURVE SMOOTH",
"487 573 LINE",
"657 573 LINE",
"498 18 LINE",
"312 18 LINE",
"310 198 LINE",
"284 107 LINE SMOOTH",
"275 77 OFFCURVE",
"266 47 OFFCURVE",
"258 18 CURVE",
"72 18 LINE"
);
},
{
closed = 1;
nodes = (
"251 27 LINE",
"318 261 LINE",
"321 27 LINE",
"490 27 LINE",
"645 564 LINE",
"494 564 LINE",
"407 209 LINE",
"422 564 LINE",
"301 564 LINE",
"216 209 LINE",
"229 564 LINE",
"78 564 LINE",
"81 27 LINE"
);
}
);
userData = {
assembly = "SVTCA[0]	/* SetFreedomAndProjectionVectorToAxis */\012PUSHW[ ]	/* 1 value pushed */\0123 \012MDAP[1]	/* MoveDirectAbsPt */\012PUSHW[ ]	/* 1 value pushed */\0126 \012MDAP[1]	/* MoveDirectAbsPt */\012IUP[0]	/* InterpolateUntPts */\012IUP[1]	/* InterpolateUntPts */";
};
width = 636;
}
);
leftKerningGroup = W;
note = W;
rightKerningGroup = W;
unicode = 0057;
},
{
glyphname = X;
lastChange = "2022-02-25 00:39:36 +0000";
layers = (
{
background = {
paths = (
{
closed = 1;
nodes = (
"169 0 LINE",
"170 5 OFFCURVE",
"172 11 OFFCURVE",
"174 16 CURVE SMOOTH",
"176 21 OFFCURVE",
"178 27 OFFCURVE",
"179 33 CURVE",
"181 0 LINE",
"373 0 LINE",
"344 305 LINE",
"459 591 LINE",
"256 591 LINE",
"250 575 LINE SMOOTH",
"248 570 OFFCURVE",
"246 564 OFFCURVE",
"245 558 CURVE",
"243 591 LINE",
"50 591 LINE",
"68 449 LINE SMOOTH",
"72 407 OFFCURVE",
"82 341 OFFCURVE",
"86 306 CURVE",
"-34 0 LINE"
);
},
{
closed = 1;
nodes = (
"104 306 LINE",
"70 573 LINE",
"227 573 LINE",
"235 471 LINE",
"246 506 OFFCURVE",
"257 540 OFFCURVE",
"268 573 CURVE",
"433 573 LINE",
"328 306 LINE",
"354 18 LINE",
"197 18 LINE",
"189 120 LINE",
"157 18 LINE",
"-9 18 LINE"
);
},
{
closed = 1;
nodes = (
"150 27 LINE",
"195 167 LINE",
"205 27 LINE",
"343 27 LINE",
"318 306 LINE",
"421 564 LINE",
"274 564 LINE",
"229 423 LINE",
"219 564 LINE",
"81 564 LINE",
"113 306 LINE",
"3 27 LINE"
);
}
);
};
layerId = "6544E2DB-1912-401E-9B5B-A29F161A5995";
paths = (
{
closed = 1;
nodes = (
"169 0 LINE",
"170 5 OFFCURVE",
"172 11 OFFCURVE",
"174 16 CURVE SMOOTH",
"176 21 OFFCURVE",
"178 27 OFFCURVE",
"179 33 CURVE",
"181 0 LINE",
"373 0 LINE",
"344 305 LINE",
"459 591 LINE",
"256 591 LINE",
"250 575 LINE SMOOTH",
"248 570 OFFCURVE",
"246 564 OFFCURVE",
"245 558 CURVE",
"243 591 LINE",
"50 591 LINE",
"68 449 LINE SMOOTH",
"72 407 OFFCURVE",
"82 341 OFFCURVE",
"86 306 CURVE",
"-34 0 LINE"
);
},
{
closed = 1;
nodes = (
"104 306 LINE",
"70 573 LINE",
"227 573 LINE",
"235 471 LINE",
"246 506 OFFCURVE",
"257 540 OFFCURVE",
"268 573 CURVE",
"433 573 LINE",
"328 306 LINE",
"354 18 LINE",
"197 18 LINE",
"189 120 LINE",
"157 18 LINE",
"-9 18 LINE"
);
},
{
closed = 1;
nodes = (
"150 27 LINE",
"195 167 LINE",
"205 27 LINE",
"343 27 LINE",
"318 306 LINE",
"421 564 LINE",
"274 564 LINE",
"229 423 LINE",
"219 564 LINE",
"81 564 LINE",
"113 306 LINE",
"3 27 LINE"
);
}
);
userData = {
assembly = "SVTCA[0]	/* SetFreedomAndProjectionVectorToAxis */\012PUSHW[ ]	/* 1 value pushed */\0121 \012MDAP[1]	/* MoveDirectAbsPt */\012PUSHW[ ]	/* 1 value pushed */\01210 \012MDAP[1]	/* MoveDirectAbsPt */\012PUSHW[ ]	/* 1 value pushed */\01227 \012MDAP[1]	/* MoveDirectAbsPt */\012PUSHW[ ]	/* 1 value pushed */\0124 \012MDAP[1]	/* MoveDirectAbsPt */\012PUSHW[ ]	/* 1 value pushed */\0127 \012MDAP[1]	/* MoveDirectAbsPt */\012PUSHW[ ]	/* 1 value pushed */\01239 \012MDAP[1]	/* MoveDirectAbsPt */\012PUSHW[ ]	/* 3 values pushed */\0120 1 4 \012SRP1[ ]	/* SetRefPoint1 */\012SRP2[ ]	/* SetRefPoint2 */\012IP[ ]	/* InterpolatePts */\012PUSHW[ ]	/* 3 values pushed */\0126 1 4 \012SRP1[ ]	/* SetRefPoint1 */\012SRP2[ ]	/* SetRefPoint2 */\012IP[ ]	/* InterpolatePts */\012PUSHW[ ]	/* 3 values pushed */\01218 1 4 \012SRP1[ ]	/* SetRefPoint1 */\012SRP2[ ]	/* SetRefPoint2 */\012IP[ ]	/* InterpolatePts */\012PUSHW[ ]	/* 3 values pushed */\01226 1 4 \012SRP1[ ]	/* SetRefPoint1 */\012SRP2[ ]	/* SetRefPoint2 */\012IP[ ]	/* InterpolatePts */\012IUP[0]	/* InterpolateUntPts */\012IUP[1]	/* InterpolateUntPts */";
};
width = 412;
}
);
leftKerningGroup = X;
note = X;
rightKerningGroup = X;
unicode = 0058;
},
{
glyphname = Y;
lastChange = "2022-02-25 00:39:36 +0000";
layers = (
{
anchors = (
{
name = bottom;
position = "{169, 0}";
},
{
name = top;
position = "{257, 591}";
},
{
name = topleft;
position = "{65, 591}";
}
);
background = {
anchors = (
{
name = bottom;
position = "{169, 0}";
},
{
name = top;
position = "{257, 591}";
},
{
name = topleft;
position = "{65, 591}";
}
);
paths = (
{
closed = 1;
nodes = (
"262 0 LINE",
"295 236 LINE",
"454 591 LINE",
"273 591 LINE",
"248 527 LINE",
"241 591 LINE",
"49 591 LINE",
"107 244 LINE",
"73 0 LINE"
);
},
{
closed = 1;
nodes = (
"124 247 LINE",
"70 573 LINE",
"225 573 LINE",
"238 456 LINE",
"283 573 LINE",
"427 573 LINE",
"278 239 LINE",
"247 18 LINE",
"92 18 LINE"
);
},
{
closed = 1;
nodes = (
"239 27 LINE",
"269 241 LINE",
"414 564 LINE",
"289 564 LINE",
"245 451 LINE",
"230 404 LINE",
"229 451 LINE",
"217 564 LINE",
"82 564 LINE",
"134 250 LINE",
"102 27 LINE"
);
}
);
};
layerId = "6544E2DB-1912-401E-9B5B-A29F161A5995";
paths = (
{
closed = 1;
nodes = (
"262 0 LINE",
"295 236 LINE",
"454 591 LINE",
"273 591 LINE",
"248 527 LINE",
"241 591 LINE",
"49 591 LINE",
"107 244 LINE",
"73 0 LINE"
);
},
{
closed = 1;
nodes = (
"124 247 LINE",
"70 573 LINE",
"225 573 LINE",
"238 456 LINE",
"283 573 LINE",
"427 573 LINE",
"278 239 LINE",
"247 18 LINE",
"92 18 LINE"
);
},
{
closed = 1;
nodes = (
"239 27 LINE",
"269 241 LINE",
"414 564 LINE",
"289 564 LINE",
"245 451 LINE",
"230 404 LINE",
"229 451 LINE",
"217 564 LINE",
"82 564 LINE",
"134 250 LINE",
"102 27 LINE"
);
}
);
userData = {
assembly = "SVTCA[0]	/* SetFreedomAndProjectionVectorToAxis */\012PUSHW[ ]	/* 1 value pushed */\0122 \012MDAP[1]	/* MoveDirectAbsPt */\012IUP[0]	/* InterpolateUntPts */\012IUP[1]	/* InterpolateUntPts */";
};
width = 407;
}
);
leftKerningGroup = Y;
note = Y;
rightKerningGroup = Y;
unicode = 0059;
},
{
glyphname = Z;
lastChange = "2022-02-25 00:39:36 +0000";
layers = (
{
anchors = (
{
name = bottom;
position = "{109, 0}";
},
{
name = center;
position = "{160, 296}";
},
{
name = top;
position = "{195, 591}";
}
);
background = {
anchors = (
{
name = bottom;
position = "{109, 0}";
},
{
name = center;
position = "{160, 296}";
},
{
name = top;
position = "{195, 591}";
}
);
paths = (
{
closed = 1;
nodes = (
"256 0 LINE",
"277 155 LINE",
"190 155 LINE",
"325 492 LINE",
"339 591 LINE",
"60 591 LINE",
"38 436 LINE",
"110 436 LINE",
"-17 120 LINE",
"-33 0 LINE"
);
},
{
closed = 1;
nodes = (
"1 119 LINE",
"134 454 LINE",
"56 454 LINE",
"73 573 LINE",
"320 573 LINE",
"309 493 LINE",
"166 137 LINE",
"259 137 LINE",
"242 18 LINE",
"-14 18 LINE"
);
},
{
closed = 1;
nodes = (
"234 27 LINE",
"248 128 LINE",
"153 128 LINE",
"300 496 LINE",
"310 564 LINE",
"80 564 LINE",
"66 463 LINE",
"147 463 LINE",
"9 116 LINE",
"-5 27 LINE"
);
}
);
};
layerId = "6544E2DB-1912-401E-9B5B-A29F161A5995";
paths = (
{
closed = 1;
nodes = (
"256 0 LINE",
"277 155 LINE",
"190 155 LINE",
"325 492 LINE",
"339 591 LINE",
"60 591 LINE",
"38 436 LINE",
"110 436 LINE",
"-17 120 LINE",
"-33 0 LINE"
);
},
{
closed = 1;
nodes = (
"1 119 LINE",
"134 454 LINE",
"56 454 LINE",
"73 573 LINE",
"320 573 LINE",
"309 493 LINE",
"166 137 LINE",
"259 137 LINE",
"242 18 LINE",
"-14 18 LINE"
);
},
{
closed = 1;
nodes = (
"234 27 LINE",
"248 128 LINE",
"153 128 LINE",
"300 496 LINE",
"310 564 LINE",
"80 564 LINE",
"66 463 LINE",
"147 463 LINE",
"9 116 LINE",
"-5 27 LINE"
);
}
);
userData = {
assembly = "PUSHW[ ]	/* 4 values pushed */\0129 5 20 4 \012CALL[ ]	/* CallFunction */\012PUSHW[ ]	/* 3 values pushed */\0122 20 9 \012SRP1[ ]	/* SetRefPoint1 */\012SRP2[ ]	/* SetRefPoint2 */\012IP[ ]	/* InterpolatePts */\012PUSHW[ ]	/* 3 values pushed */\0127 20 9 \012SRP1[ ]	/* SetRefPoint1 */\012SRP2[ ]	/* SetRefPoint2 */\012IP[ ]	/* InterpolatePts */\012PUSHW[ ]	/* 3 values pushed */\01212 20 9 \012SRP1[ ]	/* SetRefPoint1 */\012SRP2[ ]	/* SetRefPoint2 */\012IP[ ]	/* InterpolatePts */\012PUSHW[ ]	/* 3 values pushed */\01217 20 9 \012SRP1[ ]	/* SetRefPoint1 */\012SRP2[ ]	/* SetRefPoint2 */\012IP[ ]	/* InterpolatePts */\012PUSHW[ ]	/* 1 value pushed */\0129 \012SRP0[ ]	/* SetRefPoint0 */\012PUSHW[ ]	/* 2 values pushed */\01219 5 \012MIRP[10100]	/* MoveIndirectRelPt */\012PUSHW[ ]	/* 1 value pushed */\01221 \012MDRP[10000]	/* MoveDirectRelPt */\012PUSHW[ ]	/* 1 value pushed */\01221 \012MDAP[1]	/* MoveDirectAbsPt */\012PUSHW[ ]	/* 3 values pushed */\01222 20 9 \012SRP1[ ]	/* SetRefPoint1 */\012SRP2[ ]	/* SetRefPoint2 */\012IP[ ]	/* InterpolatePts */\012PUSHW[ ]	/* 3 values pushed */\01227 20 9 \012SRP1[ ]	/* SetRefPoint1 */\012SRP2[ ]	/* SetRefPoint2 */\012IP[ ]	/* InterpolatePts */\012SVTCA[0]	/* SetFreedomAndProjectionVectorToAxis */\012PUSHW[ ]	/* 4 values pushed */\0127 3 9 4 \012CALL[ ]	/* CallFunction */\012IUP[0]	/* InterpolateUntPts */\012IUP[1]	/* InterpolateUntPts */";
};
width = 297;
}
);
leftKerningGroup = Z;
note = Z;
rightKerningGroup = Z;
unicode = 005A;
},
{
color = 4;
glyphname = A.ss01;
lastChange = "2022-01-21 18:55:04 +0000";
layers = (
{
anchors = (
{
name = bottom;
position = "{187, 0}";
},
{
name = ogonek;
position = "{364, 0}";
},
{
name = top;
position = "{257, 495}";
}
);
background = {
anchors = (
{
name = bottom;
position = "{187, 0}";
},
{
name = ogonek;
position = "{364, 0}";
},
{
name = top;
position = "{257, 495}";
}
);
paths = (
{
closed = 1;
nodes = (
"364 0 LINE",
"366 496 LINE",
"154 496 LINE",
"16 0 LINE"
);
},
{
closed = 1;
nodes = (
"214 158 LINE",
"219 228 LINE",
"205 158 LINE"
);
},
{
closed = 1;
nodes = (
"167 478 LINE",
"349 478 LINE",
"346 18 LINE",
"200 18 LINE",
"204 82 LINE",
"194 82 LINE",
"181 18 LINE",
"38 18 LINE"
);
},
{
closed = 1;
nodes = (
"173 27 LINE",
"187 91 LINE",
"213 91 LINE",
"209 27 LINE",
"337 27 LINE",
"340 469 LINE",
"172 469 LINE",
"49 27 LINE"
);
},
{
closed = 1;
nodes = (
"240 376 LINE",
"221 149 LINE",
"195 149 LINE"
);
}
);
};
layerId = "6544E2DB-1912-401E-9B5B-A29F161A5995";
paths = (
{
closed = 1;
nodes = (
"364 0 LINE",
"366 496 LINE",
"154 496 LINE",
"16 0 LINE"
);
},
{
closed = 1;
nodes = (
"214 158 LINE",
"219 228 LINE",
"205 158 LINE"
);
},
{
closed = 1;
nodes = (
"167 478 LINE",
"349 478 LINE",
"346 18 LINE",
"200 18 LINE",
"204 82 LINE",
"194 82 LINE",
"181 18 LINE",
"38 18 LINE"
);
},
{
closed = 1;
nodes = (
"173 27 LINE",
"187 91 LINE",
"213 91 LINE",
"209 27 LINE",
"337 27 LINE",
"340 469 LINE",
"172 469 LINE",
"49 27 LINE"
);
},
{
closed = 1;
nodes = (
"240 376 LINE",
"221 149 LINE",
"195 149 LINE"
);
}
);
userData = {
assembly = "PUSHW[ ]	/* 4 values pushed */\01226 6 24 4 \012CALL[ ]	/* CallFunction */\012PUSHW[ ]	/* 1 value pushed */\01226 \012SRP0[ ]	/* SetRefPoint0 */\012PUSHW[ ]	/* 1 value pushed */\0120 \012MDRP[10000]	/* MoveDirectRelPt */\012PUSHW[ ]	/* 1 value pushed */\0120 \012MDAP[1]	/* MoveDirectAbsPt */\012PUSHW[ ]	/* 1 value pushed */\01224 \012SRP0[ ]	/* SetRefPoint0 */\012PUSHW[ ]	/* 2 values pushed */\0121 6 \012MIRP[10100]	/* MoveIndirectRelPt */\012PUSHW[ ]	/* 1 value pushed */\01224 \012SRP0[ ]	/* SetRefPoint0 */\012PUSHW[ ]	/* 1 value pushed */\0122 \012MDRP[10000]	/* MoveDirectRelPt */\012PUSHW[ ]	/* 1 value pushed */\0122 \012MDAP[1]	/* MoveDirectAbsPt */\012PUSHW[ ]	/* 1 value pushed */\01226 \012SRP0[ ]	/* SetRefPoint0 */\012PUSHW[ ]	/* 2 values pushed */\01211 6 \012MIRP[10100]	/* MoveIndirectRelPt */\012PUSHW[ ]	/* 1 value pushed */\0123 \012MDRP[10000]	/* MoveDirectRelPt */\012PUSHW[ ]	/* 1 value pushed */\0123 \012MDAP[1]	/* MoveDirectAbsPt */\012PUSHW[ ]	/* 1 value pushed */\01211 \012SRP0[ ]	/* SetRefPoint0 */\012PUSHW[ ]	/* 1 value pushed */\0129 \012MDRP[10000]	/* MoveDirectRelPt */\012PUSHW[ ]	/* 1 value pushed */\0129 \012MDAP[1]	/* MoveDirectAbsPt */\012PUSHW[ ]	/* 3 values pushed */\01210 24 26 \012SRP1[ ]	/* SetRefPoint1 */\012SRP2[ ]	/* SetRefPoint2 */\012IP[ ]	/* InterpolatePts */\012PUSHW[ ]	/* 1 value pushed */\01211 \012SRP0[ ]	/* SetRefPoint0 */\012PUSHW[ ]	/* 1 value pushed */\01216 \012MDRP[10000]	/* MoveDirectRelPt */\012PUSHW[ ]	/* 1 value pushed */\01216 \012MDAP[1]	/* MoveDirectAbsPt */\012PUSHW[ ]	/* 1 value pushed */\01224 \012SRP0[ ]	/* SetRefPoint0 */\012PUSHW[ ]	/* 1 value pushed */\01217 \012MDRP[10000]	/* MoveDirectRelPt */\012PUSHW[ ]	/* 1 value pushed */\01217 \012MDAP[1]	/* MoveDirectAbsPt */\012PUSHW[ ]	/* 1 value pushed */\01224 \012SRP0[ ]	/* SetRefPoint0 */\012PUSHW[ ]	/* 2 values pushed */\01229 5 \012MIRP[10100]	/* MoveIndirectRelPt */\012SVTCA[0]	/* SetFreedomAndProjectionVectorToAxis */\012PUSHW[ ]	/* 1 value pushed */\0120 \012RCVT[ ]	/* ReadCVT */\012IF[ ]	/* If */\012PUSHW[ ]	/* 1 value pushed */\01228 \012MDAP[1]	/* MoveDirectAbsPt */\012ELSE[ ]	/* Else */\012PUSHW[ ]	/* 2 values pushed */\01228 11 \012MIAP[0]	/* MoveIndirectAbsPt */\012EIF[ ]	/* EndIf */\012PUSHW[ ]	/* 1 value pushed */\0120 \012RCVT[ ]	/* ReadCVT */\012IF[ ]	/* If */\012PUSHW[ ]	/* 1 value pushed */\01229 \012MDAP[1]	/* MoveDirectAbsPt */\012ELSE[ ]	/* Else */\012PUSHW[ ]	/* 2 values pushed */\01229 7 \012MIAP[0]	/* MoveIndirectAbsPt */\012EIF[ ]	/* EndIf */\012PUSHW[ ]	/* 3 values pushed */\0126 29 28 \012SRP1[ ]	/* SetRefPoint1 */\012SRP2[ ]	/* SetRefPoint2 */\012IP[ ]	/* InterpolatePts */\012PUSHW[ ]	/* 3 values pushed */\01210 29 28 \012SRP1[ ]	/* SetRefPoint1 */\012SRP2[ ]	/* SetRefPoint2 */\012IP[ ]	/* InterpolatePts */\012PUSHW[ ]	/* 3 values pushed */\01211 29 28 \012SRP1[ ]	/* SetRefPoint1 */\012SRP2[ ]	/* SetRefPoint2 */\012IP[ ]	/* InterpolatePts */\012PUSHW[ ]	/* 3 values pushed */\01219 29 28 \012SRP1[ ]	/* SetRefPoint1 */\012SRP2[ ]	/* SetRefPoint2 */\012IP[ ]	/* InterpolatePts */\012IUP[0]	/* InterpolateUntPts */\012IUP[1]	/* InterpolateUntPts */";
};
width = 450;
}
);
note = A.tabular;
},
{
color = 4;
glyphname = AE.ss01;
lastChange = "2022-01-21 18:55:04 +0000";
layers = (
{
background = {
paths = (
{
closed = 1;
nodes = (
"401 0 LINE",
"419 135 LINE",
"325 135 LINE",
"326 145 OFFCURVE",
"326 153 OFFCURVE",
"326 160 CURVE SMOOTH",
"325 180 LINE",
"419 180 LINE",
"439 327 LINE",
"326 327 LINE",
"327 334 OFFCURVE",
"327 341 OFFCURVE",
"327 346 CURVE SMOOTH",
"326 360 LINE",
"451 360 LINE",
"470 496 LINE",
"107 496 LINE",
"-32 0 LINE"
);
},
{
closed = 1;
nodes = (
"171 158 LINE",
"176 230 LINE",
"162 158 LINE"
);
},
{
closed = 1;
nodes = (
"193 357 LINE",
"196 376 LINE",
"195 357 LINE",
"177 149 LINE",
"151 149 LINE"
);
},
{
closed = 1;
nodes = (
"120 478 LINE",
"451 478 LINE",
"436 377 LINE",
"307 377 LINE",
"307 366 OFFCURVE",
"307 355 OFFCURVE",
"308 344 CURVE SMOOTH",
"309 333 OFFCURVE",
"309 322 OFFCURVE",
"308 310 CURVE",
"420 310 LINE",
"404 198 LINE",
"307 198 LINE",
"307 184 OFFCURVE",
"307 171 OFFCURVE",
"308 158 CURVE SMOOTH",
"308 117 LINE",
"400 117 LINE",
"386 18 LINE",
"158 18 LINE",
"160 82 LINE",
"150 82 LINE",
"148 72 OFFCURVE",
"146 61 OFFCURVE",
"143 50 CURVE SMOOTH",
"136 18 LINE",
"-10 18 LINE"
);
},
{
closed = 1;
nodes = (
"129 27 LINE",
"142 91 LINE",
"169 91 LINE",
"166 27 LINE",
"378 27 LINE",
"390 108 LINE",
"299 108 LINE",
"299 207 LINE",
"397 207 LINE",
"410 301 LINE",
"299 301 LINE",
"299 386 LINE",
"429 386 LINE",
"440 469 LINE",
"126 469 LINE",
"1 27 LINE"
);
}
);
};
layerId = "6544E2DB-1912-401E-9B5B-A29F161A5995";
paths = (
{
closed = 1;
nodes = (
"401 0 LINE",
"419 135 LINE",
"325 135 LINE",
"326 145 OFFCURVE",
"326 153 OFFCURVE",
"326 160 CURVE SMOOTH",
"325 180 LINE",
"419 180 LINE",
"439 327 LINE",
"326 327 LINE",
"327 334 OFFCURVE",
"327 341 OFFCURVE",
"327 346 CURVE SMOOTH",
"326 360 LINE",
"451 360 LINE",
"470 496 LINE",
"107 496 LINE",
"-32 0 LINE"
);
},
{
closed = 1;
nodes = (
"171 158 LINE",
"176 230 LINE",
"162 158 LINE"
);
},
{
closed = 1;
nodes = (
"193 357 LINE",
"196 376 LINE",
"195 357 LINE",
"177 149 LINE",
"151 149 LINE"
);
},
{
closed = 1;
nodes = (
"120 478 LINE",
"451 478 LINE",
"436 377 LINE",
"307 377 LINE",
"307 366 OFFCURVE",
"307 355 OFFCURVE",
"308 344 CURVE SMOOTH",
"309 333 OFFCURVE",
"309 322 OFFCURVE",
"308 310 CURVE",
"420 310 LINE",
"404 198 LINE",
"307 198 LINE",
"307 184 OFFCURVE",
"307 171 OFFCURVE",
"308 158 CURVE SMOOTH",
"308 117 LINE",
"400 117 LINE",
"386 18 LINE",
"158 18 LINE",
"160 82 LINE",
"150 82 LINE",
"148 72 OFFCURVE",
"146 61 OFFCURVE",
"143 50 CURVE SMOOTH",
"136 18 LINE",
"-10 18 LINE"
);
},
{
closed = 1;
nodes = (
"129 27 LINE",
"142 91 LINE",
"169 91 LINE",
"166 27 LINE",
"378 27 LINE",
"390 108 LINE",
"299 108 LINE",
"299 207 LINE",
"397 207 LINE",
"410 301 LINE",
"299 301 LINE",
"299 386 LINE",
"429 386 LINE",
"440 469 LINE",
"126 469 LINE",
"1 27 LINE"
);
}
);
userData = {
assembly = "SVTCA[0]	/* SetFreedomAndProjectionVectorToAxis */\012PUSHW[ ]	/* 1 value pushed */\0120 \012RCVT[ ]	/* ReadCVT */\012IF[ ]	/* If */\012PUSHW[ ]	/* 1 value pushed */\01246 \012MDAP[1]	/* MoveDirectAbsPt */\012ELSE[ ]	/* Else */\012PUSHW[ ]	/* 2 values pushed */\01246 11 \012MIAP[0]	/* MoveIndirectAbsPt */\012EIF[ ]	/* EndIf */\012PUSHW[ ]	/* 1 value pushed */\0120 \012RCVT[ ]	/* ReadCVT */\012IF[ ]	/* If */\012PUSHW[ ]	/* 1 value pushed */\01260 \012MDAP[1]	/* MoveDirectAbsPt */\012ELSE[ ]	/* Else */\012PUSHW[ ]	/* 2 values pushed */\01260 7 \012MIAP[0]	/* MoveIndirectAbsPt */\012EIF[ ]	/* EndIf */\012PUSHW[ ]	/* 4 values pushed */\01258 4 14 4 \012CALL[ ]	/* CallFunction */\012PUSHW[ ]	/* 4 values pushed */\01231 2 26 4 \012CALL[ ]	/* CallFunction */\012PUSHW[ ]	/* 4 values pushed */\0129 4 54 4 \012CALL[ ]	/* CallFunction */\012PUSHW[ ]	/* 4 values pushed */\01237 2 32 4 \012CALL[ ]	/* CallFunction */\012PUSHW[ ]	/* 1 value pushed */\01214 \012SRP0[ ]	/* SetRefPoint0 */\012PUSHW[ ]	/* 1 value pushed */\0122 \012MDRP[10000]	/* MoveDirectRelPt */\012PUSHW[ ]	/* 1 value pushed */\01260 \012SRP0[ ]	/* SetRefPoint0 */\012PUSHW[ ]	/* 2 values pushed */\01212 4 \012MIRP[10100]	/* MoveIndirectRelPt */\012PUSHW[ ]	/* 3 values pushed */\0123 60 12 \012SRP1[ ]	/* SetRefPoint1 */\012SRP2[ ]	/* SetRefPoint2 */\012IP[ ]	/* InterpolatePts */\012PUSHW[ ]	/* 1 value pushed */\01246 \012SRP0[ ]	/* SetRefPoint0 */\012PUSHW[ ]	/* 2 values pushed */\0126 4 \012MIRP[10100]	/* MoveIndirectRelPt */\012PUSHW[ ]	/* 2 values pushed */\0125 2 \012MIRP[10100]	/* MoveIndirectRelPt */\012PUSHW[ ]	/* 1 value pushed */\0129 \012SRP0[ ]	/* SetRefPoint0 */\012PUSHW[ ]	/* 2 values pushed */\01210 1 \012MIRP[10100]	/* MoveIndirectRelPt */\012PUSHW[ ]	/* 1 value pushed */\0125 \012SRP0[ ]	/* SetRefPoint0 */\012PUSHW[ ]	/* 2 values pushed */\01248 4 \012MIRP[10100]	/* MoveIndirectRelPt */\012PUSHW[ ]	/* 3 values pushed */\01219 5 48 \012SRP1[ ]	/* SetRefPoint1 */\012SRP2[ ]	/* SetRefPoint2 */\012IP[ ]	/* InterpolatePts */\012PUSHW[ ]	/* 3 values pushed */\01223 54 9 \012SRP1[ ]	/* SetRefPoint1 */\012SRP2[ ]	/* SetRefPoint2 */\012IP[ ]	/* InterpolatePts */\012PUSHW[ ]	/* 3 values pushed */\01240 60 12 \012SRP1[ ]	/* SetRefPoint1 */\012SRP2[ ]	/* SetRefPoint2 */\012IP[ ]	/* InterpolatePts */\012PUSHW[ ]	/* 1 value pushed */\01210 \012SRP0[ ]	/* SetRefPoint0 */\012PUSHW[ ]	/* 2 values pushed */\01253 4 \012MIRP[10100]	/* MoveIndirectRelPt */\012IUP[0]	/* InterpolateUntPts */\012IUP[1]	/* InterpolateUntPts */";
};
width = 450;
}
);
note = AE.tabular;
},
{
color = 4;
glyphname = B.ss01;
lastChange = "2022-01-21 18:55:04 +0000";
layers = (
{
background = {
paths = (
{
closed = 1;
nodes = (
"220 0 LINE SMOOTH",
"301 0 OFFCURVE",
"354 29 OFFCURVE",
"366 120 CURVE SMOOTH",
"375 178 LINE SMOOTH",
"380 218 OFFCURVE",
"370 250 OFFCURVE",
"353 269 CURVE",
"372 288 OFFCURVE",
"384 317 OFFCURVE",
"388 346 CURVE SMOOTH",
"395 394 LINE SMOOTH",
"403 453 OFFCURVE",
"375 496 OFFCURVE",
"296 496 CURVE SMOOTH",
"107 496 LINE",
"38 0 LINE"
);
},
{
closed = 1;
nodes = (
"209 213 LINE",
"220 213 LINE SMOOTH",
"226 213 OFFCURVE",
"229 207 OFFCURVE",
"229 195 CURVE SMOOTH",
"228 183 OFFCURVE",
"227 168 OFFCURVE",
"224 151 CURVE SMOOTH",
"221 133 OFFCURVE",
"219 118 OFFCURVE",
"216 106 CURVE SMOOTH",
"213 93 OFFCURVE",
"208 87 OFFCURVE",
"203 87 CURVE SMOOTH",
"192 87 LINE"
);
},
{
closed = 1;
nodes = (
"204 96 LINE SMOOTH",
"205 96 OFFCURVE",
"207 101 OFFCURVE",
"209 112 CURVE SMOOTH",
"211 123 OFFCURVE",
"213 136 OFFCURVE",
"216 151 CURVE SMOOTH",
"221 189 LINE SMOOTH",
"222 199 OFFCURVE",
"221 204 OFFCURVE",
"219 204 CURVE SMOOTH",
"216 204 LINE",
"201 96 LINE"
);
},
{
closed = 1;
nodes = (
"122 478 LINE",
"294 478 LINE SMOOTH",
"362 478 OFFCURVE",
"385 443 OFFCURVE",
"378 394 CURVE SMOOTH",
"371 346 LINE SMOOTH",
"366 311 OFFCURVE",
"351 282 OFFCURVE",
"323 266 CURVE",
"350 254 OFFCURVE",
"365 226 OFFCURVE",
"358 178 CURVE SMOOTH",
"349 120 LINE SMOOTH",
"338 41 OFFCURVE",
"291 18 OFFCURVE",
"222 18 CURVE SMOOTH",
"57 18 LINE"
);
},
{
closed = 1;
nodes = (
"223 27 LINE SMOOTH",
"288 27 OFFCURVE",
"330 48 OFFCURVE",
"341 120 CURVE SMOOTH",
"350 178 LINE SMOOTH",
"358 237 OFFCURVE",
"329 263 OFFCURVE",
"289 263 CURVE",
"290 265 LINE",
"334 270 OFFCURVE",
"356 303 OFFCURVE",
"363 346 CURVE SMOOTH",
"370 394 LINE SMOOTH",
"377 438 OFFCURVE",
"355 469 OFFCURVE",
"292 469 CURVE SMOOTH",
"128 469 LINE",
"66 27 LINE"
);
},
{
closed = 1;
nodes = (
"237 407 LINE",
"248 407 LINE SMOOTH",
"254 407 OFFCURVE",
"257 401 OFFCURVE",
"256 390 CURVE SMOOTH",
"255 378 OFFCURVE",
"254 364 OFFCURVE",
"251 347 CURVE SMOOTH",
"249 330 OFFCURVE",
"246 316 OFFCURVE",
"242 305 CURVE SMOOTH",
"238 293 OFFCURVE",
"234 287 OFFCURVE",
"229 287 CURVE SMOOTH",
"220 287 LINE"
);
},
{
closed = 1;
nodes = (
"230 296 LINE SMOOTH",
"232 296 OFFCURVE",
"234 301 OFFCURVE",
"237 311 CURVE SMOOTH",
"239 321 OFFCURVE",
"241 333 OFFCURVE",
"243 347 CURVE SMOOTH",
"248 383 LINE SMOOTH",
"249 393 OFFCURVE",
"248 398 OFFCURVE",
"246 398 CURVE SMOOTH",
"243 398 LINE",
"229 296 LINE"
);
}
);
};
layerId = "6544E2DB-1912-401E-9B5B-A29F161A5995";
paths = (
{
closed = 1;
nodes = (
"220 0 LINE SMOOTH",
"301 0 OFFCURVE",
"354 29 OFFCURVE",
"366 120 CURVE SMOOTH",
"375 178 LINE SMOOTH",
"380 218 OFFCURVE",
"370 250 OFFCURVE",
"353 269 CURVE",
"372 288 OFFCURVE",
"384 317 OFFCURVE",
"388 346 CURVE SMOOTH",
"395 394 LINE SMOOTH",
"403 453 OFFCURVE",
"375 496 OFFCURVE",
"296 496 CURVE SMOOTH",
"107 496 LINE",
"38 0 LINE"
);
},
{
closed = 1;
nodes = (
"209 213 LINE",
"220 213 LINE SMOOTH",
"226 213 OFFCURVE",
"229 207 OFFCURVE",
"229 195 CURVE SMOOTH",
"228 183 OFFCURVE",
"227 168 OFFCURVE",
"224 151 CURVE SMOOTH",
"221 133 OFFCURVE",
"219 118 OFFCURVE",
"216 106 CURVE SMOOTH",
"213 93 OFFCURVE",
"208 87 OFFCURVE",
"203 87 CURVE SMOOTH",
"192 87 LINE"
);
},
{
closed = 1;
nodes = (
"204 96 LINE SMOOTH",
"205 96 OFFCURVE",
"207 101 OFFCURVE",
"209 112 CURVE SMOOTH",
"211 123 OFFCURVE",
"213 136 OFFCURVE",
"216 151 CURVE SMOOTH",
"221 189 LINE SMOOTH",
"222 199 OFFCURVE",
"221 204 OFFCURVE",
"219 204 CURVE SMOOTH",
"216 204 LINE",
"201 96 LINE"
);
},
{
closed = 1;
nodes = (
"122 478 LINE",
"294 478 LINE SMOOTH",
"362 478 OFFCURVE",
"385 443 OFFCURVE",
"378 394 CURVE SMOOTH",
"371 346 LINE SMOOTH",
"366 311 OFFCURVE",
"351 282 OFFCURVE",
"323 266 CURVE",
"350 254 OFFCURVE",
"365 226 OFFCURVE",
"358 178 CURVE SMOOTH",
"349 120 LINE SMOOTH",
"338 41 OFFCURVE",
"291 18 OFFCURVE",
"222 18 CURVE SMOOTH",
"57 18 LINE"
);
},
{
closed = 1;
nodes = (
"223 27 LINE SMOOTH",
"288 27 OFFCURVE",
"330 48 OFFCURVE",
"341 120 CURVE SMOOTH",
"350 178 LINE SMOOTH",
"358 237 OFFCURVE",
"329 263 OFFCURVE",
"289 263 CURVE",
"290 265 LINE",
"334 270 OFFCURVE",
"356 303 OFFCURVE",
"363 346 CURVE SMOOTH",
"370 394 LINE SMOOTH",
"377 438 OFFCURVE",
"355 469 OFFCURVE",
"292 469 CURVE SMOOTH",
"128 469 LINE",
"66 27 LINE"
);
},
{
closed = 1;
nodes = (
"237 407 LINE",
"248 407 LINE SMOOTH",
"254 407 OFFCURVE",
"257 401 OFFCURVE",
"256 390 CURVE SMOOTH",
"255 378 OFFCURVE",
"254 364 OFFCURVE",
"251 347 CURVE SMOOTH",
"249 330 OFFCURVE",
"246 316 OFFCURVE",
"242 305 CURVE SMOOTH",
"238 293 OFFCURVE",
"234 287 OFFCURVE",
"229 287 CURVE SMOOTH",
"220 287 LINE"
);
},
{
closed = 1;
nodes = (
"230 296 LINE SMOOTH",
"232 296 OFFCURVE",
"234 301 OFFCURVE",
"237 311 CURVE SMOOTH",
"239 321 OFFCURVE",
"241 333 OFFCURVE",
"243 347 CURVE SMOOTH",
"248 383 LINE SMOOTH",
"249 393 OFFCURVE",
"248 398 OFFCURVE",
"246 398 CURVE SMOOTH",
"243 398 LINE",
"229 296 LINE"
);
}
);
userData = {
assembly = "SVTCA[0]	/* SetFreedomAndProjectionVectorToAxis */\012PUSHW[ ]	/* 1 value pushed */\0120 \012RCVT[ ]	/* ReadCVT */\012IF[ ]	/* If */\012PUSHW[ ]	/* 1 value pushed */\01271 \012MDAP[1]	/* MoveDirectAbsPt */\012ELSE[ ]	/* Else */\012PUSHW[ ]	/* 2 values pushed */\01271 11 \012MIAP[0]	/* MoveIndirectAbsPt */\012EIF[ ]	/* EndIf */\012PUSHW[ ]	/* 1 value pushed */\0120 \012RCVT[ ]	/* ReadCVT */\012IF[ ]	/* If */\012PUSHW[ ]	/* 1 value pushed */\01286 \012MDAP[1]	/* MoveDirectAbsPt */\012ELSE[ ]	/* Else */\012PUSHW[ ]	/* 2 values pushed */\01286 7 \012MIAP[0]	/* MoveIndirectAbsPt */\012EIF[ ]	/* EndIf */\012PUSHW[ ]	/* 3 values pushed */\0129 86 71 \012SRP1[ ]	/* SetRefPoint1 */\012SRP2[ ]	/* SetRefPoint2 */\012IP[ ]	/* InterpolatePts */\012PUSHW[ ]	/* 3 values pushed */\01244 86 71 \012SRP1[ ]	/* SetRefPoint1 */\012SRP2[ ]	/* SetRefPoint2 */\012IP[ ]	/* InterpolatePts */\012PUSHW[ ]	/* 3 values pushed */\01253 86 71 \012SRP1[ ]	/* SetRefPoint1 */\012SRP2[ ]	/* SetRefPoint2 */\012IP[ ]	/* InterpolatePts */\012PUSHW[ ]	/* 3 values pushed */\01262 86 71 \012SRP1[ ]	/* SetRefPoint1 */\012SRP2[ ]	/* SetRefPoint2 */\012IP[ ]	/* InterpolatePts */\012IUP[0]	/* InterpolateUntPts */\012IUP[1]	/* InterpolateUntPts */";
};
width = 450;
}
);
note = B.tabular;
},
{
color = 4;
glyphname = C.ss01;
lastChange = "2022-01-21 18:55:04 +0000";
layers = (
{
anchors = (
{
name = bottom;
position = "{202, 0}";
},
{
name = top;
position = "{263, 495}";
}
);
background = {
anchors = (
{
name = bottom;
position = "{202, 0}";
},
{
name = top;
position = "{263, 495}";
}
);
paths = (
{
closed = 1;
nodes = (
"296 -9 OFFCURVE",
"345 25 OFFCURVE",
"363 158 CURVE SMOOTH",
"374 240 LINE",
"240 240 LINE",
"241 246 LINE",
"375 246 LINE",
"393 377 LINE SMOOTH",
"406 470 OFFCURVE",
"356 505 OFFCURVE",
"264 505 CURVE SMOOTH",
"172 505 OFFCURVE",
"106 472 OFFCURVE",
"93 377 CURVE SMOOTH",
"63 157 LINE SMOOTH",
"45 25 OFFCURVE",
"89 -9 OFFCURVE",
"192 -9 CURVE SMOOTH"
);
},
{
closed = 1;
nodes = (
"102 9 OFFCURVE",
"64 41 OFFCURVE",
"80 157 CURVE SMOOTH",
"110 377 LINE SMOOTH",
"121 458 OFFCURVE",
"179 487 OFFCURVE",
"262 487 CURVE SMOOTH",
"343 487 OFFCURVE",
"388 458 OFFCURVE",
"377 377 CURVE SMOOTH",
"362 264 LINE",
"233 264 LINE",
"249 382 LINE SMOOTH",
"250 392 OFFCURVE",
"251 397 OFFCURVE",
"249 397 CURVE SMOOTH",
"248 397 OFFCURVE",
"245 392 OFFCURVE",
"244 382 CURVE SMOOTH",
"206 109 LINE",
"204 100 OFFCURVE",
"204 96 OFFCURVE",
"207 96 CURVE SMOOTH",
"208 96 OFFCURVE",
"210 100 OFFCURVE",
"211 109 CURVE SMOOTH",
"227 222 LINE",
"356 222 LINE",
"347 158 LINE SMOOTH",
"331 41 OFFCURVE",
"287 9 OFFCURVE",
"195 9 CURVE SMOOTH"
);
},
{
closed = 1;
nodes = (
"280 18 OFFCURVE",
"324 47 OFFCURVE",
"338 158 CURVE SMOOTH",
"345 213 LINE",
"234 213 LINE",
"220 109 LINE SMOOTH",
"219 100 OFFCURVE",
"217 95 OFFCURVE",
"215 92 CURVE SMOOTH",
"212 89 OFFCURVE",
"209 87 OFFCURVE",
"206 87 CURVE SMOOTH",
"202 87 OFFCURVE",
"199 89 OFFCURVE",
"198 92 CURVE SMOOTH",
"196 95 OFFCURVE",
"196 100 OFFCURVE",
"197 109 CURVE SMOOTH",
"235 382 LINE SMOOTH",
"236 391 OFFCURVE",
"238 398 OFFCURVE",
"241 401 CURVE SMOOTH",
"244 404 OFFCURVE",
"247 406 OFFCURVE",
"251 406 CURVE SMOOTH",
"254 406 OFFCURVE",
"257 404 OFFCURVE",
"258 401 CURVE SMOOTH",
"259 398 OFFCURVE",
"259 391 OFFCURVE",
"258 382 CURVE SMOOTH",
"243 273 LINE",
"354 273 LINE",
"368 377 LINE SMOOTH",
"378 452 OFFCURVE",
"337 478 OFFCURVE",
"261 478 CURVE SMOOTH",
"184 478 OFFCURVE",
"128 452 OFFCURVE",
"118 377 CURVE SMOOTH",
"88 157 LINE SMOOTH",
"73 47 OFFCURVE",
"109 18 OFFCURVE",
"196 18 CURVE SMOOTH"
);
}
);
};
layerId = "6544E2DB-1912-401E-9B5B-A29F161A5995";
paths = (
{
closed = 1;
nodes = (
"296 -9 OFFCURVE",
"345 25 OFFCURVE",
"363 158 CURVE SMOOTH",
"374 240 LINE",
"240 240 LINE",
"241 246 LINE",
"375 246 LINE",
"393 377 LINE SMOOTH",
"406 470 OFFCURVE",
"356 505 OFFCURVE",
"264 505 CURVE SMOOTH",
"172 505 OFFCURVE",
"106 472 OFFCURVE",
"93 377 CURVE SMOOTH",
"63 157 LINE SMOOTH",
"45 25 OFFCURVE",
"89 -9 OFFCURVE",
"192 -9 CURVE SMOOTH"
);
},
{
closed = 1;
nodes = (
"102 9 OFFCURVE",
"64 41 OFFCURVE",
"80 157 CURVE SMOOTH",
"110 377 LINE SMOOTH",
"121 458 OFFCURVE",
"179 487 OFFCURVE",
"262 487 CURVE SMOOTH",
"343 487 OFFCURVE",
"388 458 OFFCURVE",
"377 377 CURVE SMOOTH",
"362 264 LINE",
"233 264 LINE",
"249 382 LINE SMOOTH",
"250 392 OFFCURVE",
"251 397 OFFCURVE",
"249 397 CURVE SMOOTH",
"248 397 OFFCURVE",
"245 392 OFFCURVE",
"244 382 CURVE SMOOTH",
"206 109 LINE",
"204 100 OFFCURVE",
"204 96 OFFCURVE",
"207 96 CURVE SMOOTH",
"208 96 OFFCURVE",
"210 100 OFFCURVE",
"211 109 CURVE SMOOTH",
"227 222 LINE",
"356 222 LINE",
"347 158 LINE SMOOTH",
"331 41 OFFCURVE",
"287 9 OFFCURVE",
"195 9 CURVE SMOOTH"
);
},
{
closed = 1;
nodes = (
"280 18 OFFCURVE",
"324 47 OFFCURVE",
"338 158 CURVE SMOOTH",
"345 213 LINE",
"234 213 LINE",
"220 109 LINE SMOOTH",
"219 100 OFFCURVE",
"217 95 OFFCURVE",
"215 92 CURVE SMOOTH",
"212 89 OFFCURVE",
"209 87 OFFCURVE",
"206 87 CURVE SMOOTH",
"202 87 OFFCURVE",
"199 89 OFFCURVE",
"198 92 CURVE SMOOTH",
"196 95 OFFCURVE",
"196 100 OFFCURVE",
"197 109 CURVE SMOOTH",
"235 382 LINE SMOOTH",
"236 391 OFFCURVE",
"238 398 OFFCURVE",
"241 401 CURVE SMOOTH",
"244 404 OFFCURVE",
"247 406 OFFCURVE",
"251 406 CURVE SMOOTH",
"254 406 OFFCURVE",
"257 404 OFFCURVE",
"258 401 CURVE SMOOTH",
"259 398 OFFCURVE",
"259 391 OFFCURVE",
"258 382 CURVE SMOOTH",
"243 273 LINE",
"354 273 LINE",
"368 377 LINE SMOOTH",
"378 452 OFFCURVE",
"337 478 OFFCURVE",
"261 478 CURVE SMOOTH",
"184 478 OFFCURVE",
"128 452 OFFCURVE",
"118 377 CURVE SMOOTH",
"88 157 LINE SMOOTH",
"73 47 OFFCURVE",
"109 18 OFFCURVE",
"196 18 CURVE SMOOTH"
);
}
);
userData = {
assembly = "SVTCA[0]	/* SetFreedomAndProjectionVectorToAxis */\012PUSHW[ ]	/* 1 value pushed */\0120 \012RCVT[ ]	/* ReadCVT */\012IF[ ]	/* If */\012PUSHW[ ]	/* 1 value pushed */\01276 \012MDAP[1]	/* MoveDirectAbsPt */\012ELSE[ ]	/* Else */\012PUSHW[ ]	/* 2 values pushed */\01276 7 \012MIAP[0]	/* MoveIndirectAbsPt */\012EIF[ ]	/* EndIf */\012PUSHW[ ]	/* 4 values pushed */\01269 4 6 4 \012CALL[ ]	/* CallFunction */\012PUSHW[ ]	/* 4 values pushed */\01247 2 36 4 \012CALL[ ]	/* CallFunction */\012PUSHW[ ]	/* 4 values pushed */\01215 4 20 4 \012CALL[ ]	/* CallFunction */\012PUSHW[ ]	/* 1 value pushed */\01276 \012SRP0[ ]	/* SetRefPoint0 */\012PUSHW[ ]	/* 2 values pushed */\0120 4 \012MIRP[10100]	/* MoveIndirectRelPt */\012PUSHW[ ]	/* 1 value pushed */\0126 \012SRP0[ ]	/* SetRefPoint0 */\012PUSHW[ ]	/* 2 values pushed */\01235 4 \012MIRP[10100]	/* MoveIndirectRelPt */\012PUSHW[ ]	/* 1 value pushed */\01215 \012SRP0[ ]	/* SetRefPoint0 */\012PUSHW[ ]	/* 1 value pushed */\01268 \012MDRP[11100]	/* MoveDirectRelPt */\012PUSHW[ ]	/* 1 value pushed */\01220 \012SRP0[ ]	/* SetRefPoint0 */\012PUSHW[ ]	/* 1 value pushed */\01285 \012MDRP[11100]	/* MoveDirectRelPt */\012PUSHW[ ]	/* 1 value pushed */\01269 \012SRP0[ ]	/* SetRefPoint0 */\012PUSHW[ ]	/* 1 value pushed */\01289 \012MDRP[10000]	/* MoveDirectRelPt */\012PUSHW[ ]	/* 1 value pushed */\01289 \012MDAP[1]	/* MoveDirectAbsPt */\012IUP[0]	/* InterpolateUntPts */\012IUP[1]	/* InterpolateUntPts */";
};
width = 450;
}
);
note = C.tabular;
},
